G75*
%MOIN*%
%OFA0B0*%
%FSLAX24Y24*%
%IPPOS*%
%LPD*%
%AMOC8*
5,1,8,0,0,1.08239X$1,22.5*
%
%ADD10C,0.0000*%
%ADD11C,0.0780*%
%ADD12C,0.0050*%
%ADD13C,0.0740*%
%ADD14R,0.0690X0.0690*%
%ADD15C,0.0690*%
%ADD16OC8,0.0540*%
%ADD17C,0.0540*%
%ADD18C,0.0700*%
%ADD19R,0.0780X0.0780*%
%ADD20OC8,0.0780*%
%ADD21OC8,0.0700*%
D10*
X010333Y007000D02*
X010333Y030996D01*
X031703Y030996D01*
X031703Y007000D01*
X010333Y007000D01*
D11*
X014333Y010000D03*
X014333Y011000D03*
X011333Y011000D03*
X011333Y012000D03*
X011333Y013000D03*
X011333Y014000D03*
X011333Y015000D03*
X011333Y016000D03*
X011333Y017000D03*
X011333Y018000D03*
X011333Y019000D03*
X011333Y020000D03*
X011333Y021500D03*
X011333Y022500D03*
X011333Y023500D03*
X011333Y024500D03*
X011333Y025500D03*
X011333Y026500D03*
X011333Y027500D03*
X011333Y028500D03*
X014333Y027000D03*
X014333Y026000D03*
X014333Y023000D03*
X014333Y022000D03*
X014333Y019000D03*
X014333Y018000D03*
X014333Y015000D03*
X014333Y014000D03*
X022283Y014000D03*
X023283Y014000D03*
X024283Y014000D03*
X025283Y014000D03*
X026283Y014000D03*
X027283Y014000D03*
X027383Y015000D03*
X026383Y015000D03*
X025383Y015000D03*
X024383Y015000D03*
X023383Y015000D03*
X022383Y015000D03*
X022283Y016000D03*
X023283Y016000D03*
X024283Y016000D03*
X025283Y016000D03*
X026283Y016000D03*
X027283Y016000D03*
X027383Y017000D03*
X026383Y017000D03*
X025383Y017000D03*
X024383Y017000D03*
X023383Y017000D03*
X022383Y017000D03*
X022283Y018000D03*
X023283Y018000D03*
X024283Y018000D03*
X025283Y018000D03*
X026283Y018000D03*
X027283Y018000D03*
X027383Y019000D03*
X026383Y019000D03*
X025383Y019000D03*
X024383Y019000D03*
X023383Y019000D03*
X022383Y019000D03*
X022283Y020000D03*
X023283Y020000D03*
X024283Y020000D03*
X025283Y020000D03*
X026283Y020000D03*
X027283Y020000D03*
X027383Y021000D03*
X026383Y021000D03*
X025383Y021000D03*
X024383Y021000D03*
X023383Y021000D03*
X022383Y021000D03*
X030333Y020500D03*
X030333Y019500D03*
X030333Y018500D03*
X030333Y017500D03*
X030333Y016500D03*
X030333Y015500D03*
X030333Y014500D03*
X027383Y013000D03*
X026383Y013000D03*
X025383Y013000D03*
X024383Y013000D03*
X023383Y013000D03*
X022383Y013000D03*
X029333Y011000D03*
X029333Y010000D03*
X029333Y009000D03*
X030333Y021500D03*
X030333Y023500D03*
X030333Y024500D03*
X030333Y025500D03*
X030333Y026500D03*
X030333Y027500D03*
X030333Y028500D03*
D12*
X028010Y028499D02*
X028006Y028461D01*
X027993Y028424D01*
X027972Y028392D01*
X027944Y028365D01*
X027911Y028344D01*
X027875Y028332D01*
X027836Y028328D01*
X027798Y028331D01*
X027762Y028343D01*
X027729Y028363D01*
X027701Y028389D01*
X027680Y028421D01*
X027991Y028421D01*
X028007Y028470D02*
X027665Y028470D01*
X027666Y028457D02*
X027661Y028495D01*
X027665Y028535D01*
X027677Y028573D01*
X027698Y028608D01*
X027725Y028637D01*
X027759Y028659D01*
X027796Y028673D01*
X027836Y028679D01*
X027876Y028674D01*
X027913Y028660D01*
X027946Y028639D01*
X027974Y028610D01*
X027994Y028576D01*
X028007Y028538D01*
X028010Y028499D01*
X028008Y028518D02*
X027663Y028518D01*
X027675Y028567D02*
X027997Y028567D01*
X027969Y028615D02*
X027705Y028615D01*
X027771Y028664D02*
X027903Y028664D01*
X027952Y028373D02*
X027719Y028373D01*
X027680Y028421D02*
X027666Y028457D01*
X027365Y027171D02*
X027404Y027159D01*
X027438Y027139D01*
X027467Y027111D01*
X027490Y027077D01*
X027504Y027040D01*
X027509Y027000D01*
X027504Y026961D01*
X027490Y026924D01*
X027469Y026890D01*
X027440Y026863D01*
X027406Y026842D01*
X027369Y026830D01*
X027329Y026826D01*
X027291Y026831D01*
X027255Y026844D01*
X027222Y026865D01*
X027195Y026892D01*
X027175Y026925D01*
X027162Y026962D01*
X027158Y027000D01*
X027162Y027038D01*
X027174Y027075D01*
X027193Y027107D01*
X027220Y027135D01*
X027252Y027156D01*
X027287Y027170D01*
X027325Y027175D01*
X027365Y027171D01*
X027401Y027160D02*
X027262Y027160D01*
X027197Y027112D02*
X027467Y027112D01*
X027495Y027063D02*
X027170Y027063D01*
X027160Y027015D02*
X027507Y027015D01*
X027505Y026966D02*
X027162Y026966D01*
X027179Y026918D02*
X027487Y026918D01*
X027447Y026869D02*
X027218Y026869D01*
X024969Y028389D02*
X024941Y028362D01*
X024908Y028341D01*
X024872Y028329D01*
X024833Y028325D01*
X024795Y028328D01*
X024759Y028340D01*
X024726Y028360D01*
X024698Y028386D01*
X024677Y028418D01*
X024664Y028454D01*
X024658Y028492D01*
X024662Y028532D01*
X024674Y028570D01*
X024695Y028605D01*
X024722Y028634D01*
X024756Y028656D01*
X024794Y028670D01*
X024833Y028676D01*
X024873Y028671D01*
X024910Y028657D01*
X024943Y028636D01*
X024971Y028607D01*
X024991Y028573D01*
X025004Y028535D01*
X025007Y028496D01*
X025003Y028458D01*
X024990Y028421D01*
X024969Y028389D01*
X024952Y028373D02*
X024712Y028373D01*
X024676Y028421D02*
X024989Y028421D01*
X025004Y028470D02*
X024661Y028470D01*
X024661Y028518D02*
X025005Y028518D01*
X024993Y028567D02*
X024673Y028567D01*
X024704Y028615D02*
X024963Y028615D01*
X024892Y028664D02*
X024775Y028664D01*
X024833Y029825D02*
X024872Y029829D01*
X024908Y029841D01*
X024941Y029862D01*
X024969Y029889D01*
X024990Y029921D01*
X025003Y029958D01*
X025007Y029996D01*
X025004Y030035D01*
X024991Y030073D01*
X024971Y030107D01*
X024943Y030136D01*
X024910Y030157D01*
X024873Y030171D01*
X024833Y030176D01*
X024794Y030170D01*
X024756Y030156D01*
X024722Y030134D01*
X024695Y030105D01*
X024674Y030070D01*
X024992Y030070D01*
X025005Y030022D02*
X024661Y030022D01*
X024662Y030032D02*
X024674Y030070D01*
X024662Y030032D02*
X024658Y029992D01*
X024664Y029954D01*
X024677Y029918D01*
X024698Y029886D01*
X024726Y029860D01*
X024759Y029840D01*
X024795Y029828D01*
X024833Y029825D01*
X024859Y029828D02*
X024804Y029828D01*
X024709Y029876D02*
X024956Y029876D01*
X024991Y029925D02*
X024675Y029925D01*
X024661Y029973D02*
X025005Y029973D01*
X024959Y030119D02*
X024708Y030119D01*
X024785Y030167D02*
X024883Y030167D01*
X027661Y029995D02*
X027665Y030035D01*
X027677Y030073D01*
X027698Y030108D01*
X027725Y030137D01*
X027759Y030159D01*
X027796Y030173D01*
X027836Y030179D01*
X027876Y030174D01*
X027913Y030160D01*
X027946Y030139D01*
X027974Y030110D01*
X027994Y030076D01*
X028007Y030038D01*
X028010Y029999D01*
X028006Y029961D01*
X027993Y029924D01*
X027972Y029892D01*
X027944Y029865D01*
X027911Y029844D01*
X027875Y029832D01*
X027836Y029828D01*
X027798Y029831D01*
X027762Y029843D01*
X027729Y029863D01*
X027701Y029889D01*
X027680Y029921D01*
X027666Y029957D01*
X027661Y029995D01*
X027664Y029973D02*
X028007Y029973D01*
X028008Y030022D02*
X027664Y030022D01*
X027676Y030070D02*
X027996Y030070D01*
X027965Y030119D02*
X027708Y030119D01*
X027780Y030167D02*
X027894Y030167D01*
X027993Y029925D02*
X027679Y029925D01*
X027715Y029876D02*
X027956Y029876D01*
X027368Y024169D02*
X027407Y024156D01*
X027441Y024136D01*
X027470Y024108D01*
X027493Y024074D01*
X027507Y024037D01*
X027512Y023997D01*
X027507Y023958D01*
X027493Y023921D01*
X027472Y023887D01*
X027443Y023860D01*
X027409Y023839D01*
X027372Y023827D01*
X027332Y023823D01*
X027294Y023828D01*
X027258Y023841D01*
X027225Y023862D01*
X027446Y023862D01*
X027487Y023911D02*
X027185Y023911D01*
X027178Y023922D02*
X027165Y023959D01*
X027507Y023959D01*
X027511Y024008D02*
X027162Y024008D01*
X027161Y023997D02*
X027165Y023959D01*
X027161Y023997D02*
X027165Y024035D01*
X027177Y024072D01*
X027196Y024105D01*
X027473Y024105D01*
X027500Y024056D02*
X027172Y024056D01*
X027196Y024105D02*
X027223Y024132D01*
X027255Y024153D01*
X027290Y024167D01*
X027328Y024172D01*
X027368Y024169D01*
X027412Y024153D02*
X027254Y024153D01*
X027178Y023922D02*
X027198Y023889D01*
X027225Y023862D01*
X027336Y023179D02*
X027376Y023174D01*
X027413Y023160D01*
X027446Y023139D01*
X027474Y023110D01*
X027494Y023076D01*
X027507Y023038D01*
X027166Y023038D01*
X027165Y023035D02*
X027177Y023073D01*
X027198Y023108D01*
X027225Y023137D01*
X027259Y023159D01*
X027296Y023173D01*
X027336Y023179D01*
X027223Y023135D02*
X027450Y023135D01*
X027488Y023086D02*
X027185Y023086D01*
X027165Y023035D02*
X027161Y022995D01*
X027166Y022957D01*
X027180Y022921D01*
X027201Y022889D01*
X027229Y022863D01*
X027262Y022843D01*
X027298Y022831D01*
X027336Y022828D01*
X027375Y022832D01*
X027411Y022844D01*
X027444Y022865D01*
X027472Y022892D01*
X027199Y022892D01*
X027173Y022941D02*
X027498Y022941D01*
X027493Y022924D02*
X027472Y022892D01*
X027493Y022924D02*
X027506Y022961D01*
X027510Y022999D01*
X027507Y023038D01*
X027509Y022989D02*
X027162Y022989D01*
X027261Y022844D02*
X027409Y022844D01*
X024507Y022996D02*
X024503Y022958D01*
X024490Y022921D01*
X024469Y022889D01*
X024441Y022862D01*
X024408Y022841D01*
X024372Y022829D01*
X024333Y022825D01*
X024295Y022828D01*
X024259Y022840D01*
X024226Y022860D01*
X024198Y022886D01*
X024177Y022918D01*
X024164Y022954D01*
X024158Y022992D01*
X024162Y023032D01*
X024174Y023070D01*
X024195Y023105D01*
X024222Y023134D01*
X024256Y023156D01*
X024294Y023170D01*
X024333Y023176D01*
X024373Y023171D01*
X024410Y023157D01*
X024443Y023136D01*
X024471Y023107D01*
X024491Y023073D01*
X024504Y023035D01*
X024507Y022996D01*
X024506Y022989D02*
X024159Y022989D01*
X024164Y023038D02*
X024503Y023038D01*
X024483Y023086D02*
X024184Y023086D01*
X024223Y023135D02*
X024444Y023135D01*
X024497Y022941D02*
X024169Y022941D01*
X024194Y022892D02*
X024471Y022892D01*
X024412Y022844D02*
X024253Y022844D01*
X016506Y024461D02*
X016493Y024424D01*
X016472Y024392D01*
X016444Y024365D01*
X016411Y024344D01*
X016375Y024332D01*
X016336Y024328D01*
X016298Y024331D01*
X016262Y024343D01*
X016229Y024363D01*
X016201Y024389D01*
X016180Y024421D01*
X016166Y024457D01*
X016161Y024495D01*
X016165Y024535D01*
X016177Y024573D01*
X016198Y024608D01*
X016225Y024637D01*
X016259Y024659D01*
X016296Y024673D01*
X016336Y024679D01*
X016376Y024674D01*
X016413Y024660D01*
X016446Y024639D01*
X016474Y024610D01*
X016494Y024576D01*
X016507Y024538D01*
X016510Y024499D01*
X016506Y024461D01*
X016500Y024444D02*
X016171Y024444D01*
X016162Y024493D02*
X016510Y024493D01*
X016506Y024541D02*
X016167Y024541D01*
X016187Y024590D02*
X016486Y024590D01*
X016446Y024638D02*
X016227Y024638D01*
X016197Y024396D02*
X016474Y024396D01*
X016416Y024347D02*
X016255Y024347D01*
X013507Y024496D02*
X013503Y024458D01*
X013490Y024421D01*
X013469Y024389D01*
X013441Y024362D01*
X013408Y024341D01*
X013372Y024329D01*
X013333Y024325D01*
X013295Y024328D01*
X013259Y024340D01*
X013226Y024360D01*
X013198Y024386D01*
X013177Y024418D01*
X013164Y024454D01*
X013158Y024492D01*
X013162Y024532D01*
X013174Y024570D01*
X013195Y024605D01*
X013222Y024634D01*
X013256Y024656D01*
X013294Y024670D01*
X013333Y024676D01*
X013373Y024671D01*
X013410Y024657D01*
X013443Y024636D01*
X013471Y024607D01*
X013491Y024573D01*
X013504Y024535D01*
X013507Y024496D01*
X013507Y024493D02*
X013158Y024493D01*
X013165Y024541D02*
X013502Y024541D01*
X013481Y024590D02*
X013186Y024590D01*
X013229Y024638D02*
X013439Y024638D01*
X013498Y024444D02*
X013167Y024444D01*
X013192Y024396D02*
X013473Y024396D01*
X013418Y024347D02*
X013247Y024347D01*
X013333Y020676D02*
X013294Y020670D01*
X013256Y020656D01*
X013222Y020634D01*
X013195Y020605D01*
X013174Y020570D01*
X013162Y020532D01*
X013158Y020492D01*
X013164Y020454D01*
X013177Y020418D01*
X013198Y020386D01*
X013226Y020360D01*
X013259Y020340D01*
X013295Y020328D01*
X013333Y020325D01*
X013372Y020329D01*
X013408Y020341D01*
X013441Y020362D01*
X013469Y020389D01*
X013490Y020421D01*
X013503Y020458D01*
X013507Y020496D01*
X013504Y020535D01*
X013491Y020573D01*
X013471Y020607D01*
X013443Y020636D01*
X013410Y020657D01*
X013373Y020671D01*
X013333Y020676D01*
X013269Y020661D02*
X013399Y020661D01*
X013465Y020613D02*
X013202Y020613D01*
X013172Y020564D02*
X013494Y020564D01*
X013505Y020516D02*
X013160Y020516D01*
X013162Y020467D02*
X013504Y020467D01*
X013488Y020419D02*
X013177Y020419D01*
X013215Y020370D02*
X013450Y020370D01*
X016161Y020495D02*
X016165Y020535D01*
X016177Y020573D01*
X016198Y020608D01*
X016225Y020637D01*
X016259Y020659D01*
X016296Y020673D01*
X016336Y020679D01*
X016376Y020674D01*
X016413Y020660D01*
X016446Y020639D01*
X016474Y020610D01*
X016494Y020576D01*
X016507Y020538D01*
X016510Y020499D01*
X016506Y020461D01*
X016493Y020424D01*
X016472Y020392D01*
X016444Y020365D01*
X016411Y020344D01*
X016375Y020332D01*
X016336Y020328D01*
X016298Y020331D01*
X016262Y020343D01*
X016229Y020363D01*
X016201Y020389D01*
X016180Y020421D01*
X016166Y020457D01*
X016161Y020495D01*
X016163Y020516D02*
X016509Y020516D01*
X016506Y020467D02*
X016165Y020467D01*
X016182Y020419D02*
X016489Y020419D01*
X016450Y020370D02*
X016221Y020370D01*
X016174Y020564D02*
X016498Y020564D01*
X016471Y020613D02*
X016202Y020613D01*
X016264Y020661D02*
X016410Y020661D01*
X016836Y016679D02*
X016876Y016674D01*
X016913Y016660D01*
X016946Y016639D01*
X016974Y016610D01*
X016994Y016576D01*
X017007Y016538D01*
X017010Y016499D01*
X017006Y016461D01*
X016993Y016424D01*
X016972Y016392D01*
X016944Y016365D01*
X016911Y016344D01*
X016875Y016332D01*
X016836Y016328D01*
X016798Y016331D01*
X016762Y016343D01*
X016729Y016363D01*
X016701Y016389D01*
X016680Y016421D01*
X016666Y016457D01*
X016661Y016495D01*
X016665Y016535D01*
X016677Y016573D01*
X016698Y016608D01*
X016725Y016637D01*
X016759Y016659D01*
X016796Y016673D01*
X016836Y016679D01*
X016724Y016636D02*
X016949Y016636D01*
X016987Y016587D02*
X016685Y016587D01*
X016666Y016539D02*
X017006Y016539D01*
X017009Y016490D02*
X016662Y016490D01*
X016672Y016442D02*
X016999Y016442D01*
X016973Y016393D02*
X016699Y016393D01*
X016759Y016345D02*
X016912Y016345D01*
X016405Y015157D02*
X016438Y015137D01*
X016466Y015111D01*
X016487Y015079D01*
X016500Y015043D01*
X016505Y015005D01*
X016502Y014965D01*
X016490Y014927D01*
X016469Y014892D01*
X016441Y014863D01*
X016408Y014841D01*
X016252Y014841D01*
X016254Y014840D02*
X016221Y014861D01*
X016193Y014890D01*
X016173Y014924D01*
X016160Y014962D01*
X016156Y015001D01*
X016161Y015039D01*
X016174Y015076D01*
X016195Y015108D01*
X016222Y015135D01*
X016255Y015156D01*
X016292Y015168D01*
X016330Y015172D01*
X016368Y015169D01*
X016405Y015157D01*
X016443Y015132D02*
X016219Y015132D01*
X016179Y015084D02*
X016484Y015084D01*
X016501Y015035D02*
X016160Y015035D01*
X016158Y014987D02*
X016504Y014987D01*
X016493Y014938D02*
X016168Y014938D01*
X016194Y014890D02*
X016467Y014890D01*
X016408Y014841D02*
X016370Y014827D01*
X016330Y014821D01*
X016291Y014826D01*
X016254Y014840D01*
X013969Y016389D02*
X013941Y016362D01*
X013908Y016341D01*
X013872Y016329D01*
X013833Y016325D01*
X013795Y016328D01*
X013759Y016340D01*
X013726Y016360D01*
X013698Y016386D01*
X013677Y016418D01*
X013664Y016454D01*
X013658Y016492D01*
X013662Y016532D01*
X013674Y016570D01*
X013695Y016605D01*
X013722Y016634D01*
X013756Y016656D01*
X013794Y016670D01*
X013833Y016676D01*
X013873Y016671D01*
X013910Y016657D01*
X013943Y016636D01*
X013725Y016636D01*
X013684Y016587D02*
X013983Y016587D01*
X013991Y016573D02*
X014004Y016535D01*
X014007Y016496D01*
X014003Y016458D01*
X013990Y016421D01*
X013969Y016389D01*
X013972Y016393D02*
X013694Y016393D01*
X013668Y016442D02*
X013997Y016442D01*
X014007Y016490D02*
X013659Y016490D01*
X013664Y016539D02*
X014003Y016539D01*
X013991Y016573D02*
X013971Y016607D01*
X013943Y016636D01*
X013913Y016345D02*
X013751Y016345D01*
X013833Y012676D02*
X013873Y012671D01*
X013910Y012657D01*
X013943Y012636D01*
X013971Y012607D01*
X013991Y012573D01*
X014004Y012535D01*
X014007Y012496D01*
X014003Y012458D01*
X013990Y012421D01*
X013969Y012389D01*
X013941Y012362D01*
X013908Y012341D01*
X013872Y012329D01*
X013833Y012325D01*
X013795Y012328D01*
X013759Y012340D01*
X013726Y012360D01*
X013698Y012386D01*
X013677Y012418D01*
X013664Y012454D01*
X013658Y012492D01*
X013662Y012532D01*
X013674Y012570D01*
X013695Y012605D01*
X013722Y012634D01*
X013756Y012656D01*
X013794Y012670D01*
X013833Y012676D01*
X013762Y012659D02*
X013906Y012659D01*
X013968Y012610D02*
X013700Y012610D01*
X013671Y012562D02*
X013995Y012562D01*
X014006Y012513D02*
X013660Y012513D01*
X013662Y012465D02*
X014003Y012465D01*
X013986Y012416D02*
X013678Y012416D01*
X013718Y012368D02*
X013947Y012368D01*
X016661Y012495D02*
X016665Y012535D01*
X016677Y012573D01*
X016698Y012608D01*
X016725Y012637D01*
X016759Y012659D01*
X016796Y012673D01*
X016836Y012679D01*
X016876Y012674D01*
X016913Y012660D01*
X016946Y012639D01*
X016974Y012610D01*
X016994Y012576D01*
X017007Y012538D01*
X017010Y012499D01*
X017006Y012461D01*
X016993Y012424D01*
X016972Y012392D01*
X016944Y012365D01*
X016911Y012344D01*
X016875Y012332D01*
X016836Y012328D01*
X016798Y012331D01*
X016762Y012343D01*
X016729Y012363D01*
X016701Y012389D01*
X016680Y012421D01*
X016666Y012457D01*
X016661Y012495D01*
X016663Y012513D02*
X017009Y012513D01*
X017006Y012465D02*
X016665Y012465D01*
X016683Y012416D02*
X016987Y012416D01*
X016947Y012368D02*
X016724Y012368D01*
X016673Y012562D02*
X016999Y012562D01*
X016974Y012610D02*
X016700Y012610D01*
X016758Y012659D02*
X016915Y012659D01*
X018675Y013425D02*
X018662Y013462D01*
X018658Y013500D01*
X018662Y013538D01*
X018674Y013575D01*
X018693Y013607D01*
X018720Y013635D01*
X018752Y013656D01*
X018787Y013670D01*
X018825Y013675D01*
X018865Y013671D01*
X018904Y013659D01*
X018938Y013639D01*
X018967Y013611D01*
X018990Y013577D01*
X019004Y013540D01*
X019009Y013500D01*
X019004Y013461D01*
X018990Y013424D01*
X018969Y013390D01*
X018940Y013363D01*
X018906Y013342D01*
X018869Y013330D01*
X018829Y013326D01*
X018791Y013331D01*
X018755Y013344D01*
X018722Y013365D01*
X018695Y013392D01*
X018675Y013425D01*
X018672Y013435D02*
X018995Y013435D01*
X019007Y013483D02*
X018660Y013483D01*
X018661Y013532D02*
X019005Y013532D01*
X018988Y013580D02*
X018677Y013580D01*
X018713Y013629D02*
X018949Y013629D01*
X018964Y013386D02*
X018701Y013386D01*
X018772Y013338D02*
X018892Y013338D01*
X019294Y014829D02*
X019257Y014843D01*
X019224Y014864D01*
X019196Y014893D01*
X019176Y014927D01*
X019163Y014965D01*
X019159Y015004D01*
X019164Y015042D01*
X019177Y015079D01*
X019198Y015111D01*
X019225Y015138D01*
X019258Y015159D01*
X019295Y015171D01*
X019333Y015175D01*
X019371Y015172D01*
X019408Y015160D01*
X019441Y015140D01*
X019469Y015114D01*
X019490Y015082D01*
X019503Y015046D01*
X019508Y015008D01*
X019505Y014968D01*
X019493Y014930D01*
X019472Y014895D01*
X019444Y014866D01*
X019411Y014844D01*
X019373Y014830D01*
X019333Y014824D01*
X019294Y014829D01*
X019262Y014841D02*
X019404Y014841D01*
X019467Y014890D02*
X019199Y014890D01*
X019172Y014938D02*
X019495Y014938D01*
X019506Y014987D02*
X019161Y014987D01*
X019163Y015035D02*
X019505Y015035D01*
X019488Y015084D02*
X019180Y015084D01*
X019219Y015132D02*
X019449Y015132D01*
X020787Y011670D02*
X020752Y011656D01*
X020720Y011635D01*
X020693Y011607D01*
X020674Y011575D01*
X020662Y011538D01*
X020658Y011500D01*
X020662Y011462D01*
X020675Y011425D01*
X020695Y011392D01*
X020722Y011365D01*
X020755Y011344D01*
X020791Y011331D01*
X020829Y011326D01*
X020869Y011330D01*
X020906Y011342D01*
X020940Y011363D01*
X020969Y011390D01*
X020990Y011424D01*
X021004Y011461D01*
X021009Y011500D01*
X021004Y011540D01*
X020990Y011577D01*
X020967Y011611D01*
X020938Y011639D01*
X020904Y011659D01*
X020865Y011671D01*
X020825Y011675D01*
X020787Y011670D01*
X020727Y011640D02*
X020936Y011640D01*
X020980Y011592D02*
X020684Y011592D01*
X020663Y011543D02*
X021003Y011543D01*
X021009Y011495D02*
X020659Y011495D01*
X020668Y011446D02*
X020999Y011446D01*
X020974Y011398D02*
X020692Y011398D01*
X020746Y011349D02*
X020918Y011349D01*
X018993Y010574D02*
X019007Y010537D01*
X019012Y010497D01*
X019007Y010458D01*
X018993Y010421D01*
X018972Y010387D01*
X018943Y010360D01*
X018909Y010339D01*
X018872Y010327D01*
X018832Y010323D01*
X018794Y010328D01*
X018758Y010341D01*
X018725Y010362D01*
X018698Y010389D01*
X018678Y010422D01*
X018665Y010459D01*
X018661Y010497D01*
X018665Y010535D01*
X018677Y010572D01*
X018696Y010605D01*
X018723Y010632D01*
X018755Y010653D01*
X018790Y010667D01*
X018828Y010672D01*
X018868Y010669D01*
X018907Y010656D01*
X018941Y010636D01*
X018970Y010608D01*
X018993Y010574D01*
X018993Y010573D02*
X018677Y010573D01*
X018664Y010525D02*
X019009Y010525D01*
X019010Y010476D02*
X018664Y010476D01*
X018676Y010428D02*
X018996Y010428D01*
X018963Y010379D02*
X018708Y010379D01*
X018786Y010331D02*
X018883Y010331D01*
X018956Y010622D02*
X018712Y010622D01*
X018814Y010670D02*
X018851Y010670D01*
X020723Y008632D02*
X020755Y008653D01*
X020790Y008667D01*
X020828Y008672D01*
X020868Y008669D01*
X020907Y008656D01*
X020941Y008636D01*
X020970Y008608D01*
X020993Y008574D01*
X021007Y008537D01*
X021012Y008497D01*
X021007Y008458D01*
X020993Y008421D01*
X020972Y008387D01*
X020943Y008360D01*
X020909Y008339D01*
X020872Y008327D01*
X020832Y008323D01*
X020794Y008328D01*
X020758Y008341D01*
X020725Y008362D01*
X020698Y008389D01*
X020678Y008422D01*
X020665Y008459D01*
X020661Y008497D01*
X020665Y008535D01*
X020677Y008572D01*
X020696Y008605D01*
X020723Y008632D01*
X020724Y008633D02*
X020944Y008633D01*
X020986Y008585D02*
X020684Y008585D01*
X020665Y008536D02*
X021007Y008536D01*
X021011Y008488D02*
X020662Y008488D01*
X020672Y008439D02*
X021000Y008439D01*
X020974Y008391D02*
X020697Y008391D01*
X020756Y008342D02*
X020914Y008342D01*
X016010Y008499D02*
X016006Y008461D01*
X015993Y008424D01*
X015972Y008392D01*
X015944Y008365D01*
X015911Y008344D01*
X015875Y008332D01*
X015836Y008328D01*
X015798Y008331D01*
X015762Y008343D01*
X015729Y008363D01*
X015701Y008389D01*
X015680Y008421D01*
X015666Y008457D01*
X015661Y008495D01*
X015665Y008535D01*
X015677Y008573D01*
X015698Y008608D01*
X015725Y008637D01*
X015759Y008659D01*
X015796Y008673D01*
X015836Y008679D01*
X015876Y008674D01*
X015913Y008660D01*
X015946Y008639D01*
X015974Y008610D01*
X015994Y008576D01*
X016007Y008538D01*
X016010Y008499D01*
X016009Y008488D02*
X015662Y008488D01*
X015665Y008536D02*
X016007Y008536D01*
X015989Y008585D02*
X015684Y008585D01*
X015722Y008633D02*
X015951Y008633D01*
X015998Y008439D02*
X015673Y008439D01*
X015700Y008391D02*
X015970Y008391D01*
X015904Y008342D02*
X015765Y008342D01*
X013007Y008496D02*
X013003Y008458D01*
X012990Y008421D01*
X012969Y008389D01*
X012941Y008362D01*
X012908Y008341D01*
X012872Y008329D01*
X012833Y008325D01*
X012795Y008328D01*
X012759Y008340D01*
X012726Y008360D01*
X012698Y008386D01*
X012677Y008418D01*
X012664Y008454D01*
X012658Y008492D01*
X012662Y008532D01*
X012674Y008570D01*
X012695Y008605D01*
X012722Y008634D01*
X012756Y008656D01*
X012794Y008670D01*
X012833Y008676D01*
X012873Y008671D01*
X012910Y008657D01*
X012943Y008636D01*
X012971Y008607D01*
X012991Y008573D01*
X013004Y008535D01*
X013007Y008496D01*
X013006Y008488D02*
X012659Y008488D01*
X012663Y008536D02*
X013003Y008536D01*
X012984Y008585D02*
X012683Y008585D01*
X012721Y008633D02*
X012945Y008633D01*
X012996Y008439D02*
X012669Y008439D01*
X012695Y008391D02*
X012970Y008391D01*
X012909Y008342D02*
X012756Y008342D01*
X013333Y028325D02*
X013295Y028328D01*
X013259Y028340D01*
X013226Y028360D01*
X013198Y028386D01*
X013177Y028418D01*
X013164Y028454D01*
X013158Y028492D01*
X013162Y028532D01*
X013174Y028570D01*
X013195Y028605D01*
X013222Y028634D01*
X013256Y028656D01*
X013294Y028670D01*
X013333Y028676D01*
X013373Y028671D01*
X013410Y028657D01*
X013443Y028636D01*
X013471Y028607D01*
X013491Y028573D01*
X013504Y028535D01*
X013507Y028496D01*
X013503Y028458D01*
X013490Y028421D01*
X013469Y028389D01*
X013441Y028362D01*
X013408Y028341D01*
X013372Y028329D01*
X013333Y028325D01*
X013452Y028373D02*
X013212Y028373D01*
X013176Y028421D02*
X013489Y028421D01*
X013504Y028470D02*
X013161Y028470D01*
X013161Y028518D02*
X013505Y028518D01*
X013493Y028567D02*
X013173Y028567D01*
X013204Y028615D02*
X013463Y028615D01*
X013392Y028664D02*
X013275Y028664D01*
X016161Y028495D02*
X016165Y028535D01*
X016177Y028573D01*
X016198Y028608D01*
X016225Y028637D01*
X016259Y028659D01*
X016296Y028673D01*
X016336Y028679D01*
X016376Y028674D01*
X016413Y028660D01*
X016446Y028639D01*
X016474Y028610D01*
X016494Y028576D01*
X016507Y028538D01*
X016510Y028499D01*
X016506Y028461D01*
X016493Y028424D01*
X016472Y028392D01*
X016444Y028365D01*
X016411Y028344D01*
X016375Y028332D01*
X016336Y028328D01*
X016298Y028331D01*
X016262Y028343D01*
X016229Y028363D01*
X016201Y028389D01*
X016180Y028421D01*
X016491Y028421D01*
X016507Y028470D02*
X016165Y028470D01*
X016166Y028457D02*
X016161Y028495D01*
X016163Y028518D02*
X016508Y028518D01*
X016497Y028567D02*
X016175Y028567D01*
X016205Y028615D02*
X016469Y028615D01*
X016403Y028664D02*
X016271Y028664D01*
X016166Y028457D02*
X016180Y028421D01*
X016219Y028373D02*
X016452Y028373D01*
D13*
X019333Y019780D03*
X019333Y017220D03*
D14*
X019783Y023850D03*
X017283Y026850D03*
X019783Y029850D03*
X022283Y026850D03*
D15*
X022883Y028150D03*
X022883Y029850D03*
X019783Y028150D03*
X020383Y026850D03*
X020383Y025150D03*
X022283Y025150D03*
X022883Y023850D03*
X022883Y022150D03*
X019783Y022150D03*
X017283Y025150D03*
X025383Y025150D03*
X025383Y026850D03*
D16*
X025433Y009500D03*
X024203Y009500D03*
X022933Y009500D03*
X021703Y009500D03*
D17*
X021703Y008500D03*
X022963Y008500D03*
X024203Y008500D03*
X025463Y008500D03*
X025463Y010500D03*
X024203Y010500D03*
X022963Y010500D03*
X021703Y010500D03*
D18*
X018683Y008619D03*
X018183Y009381D03*
X016983Y009381D03*
X020833Y014213D03*
X020833Y015787D03*
D19*
X028333Y009000D03*
D20*
X027333Y009000D03*
X027333Y010000D03*
X028333Y010000D03*
X028333Y011000D03*
X027333Y011000D03*
D21*
X017583Y008619D03*
M02*
