%
M48
M72
T01C0.0315
T02C0.0320
T03C0.0354
T04C0.0400
%
T01
X16983Y9381
X17583Y8619
X18183Y9381
X18683Y8619
X20833Y14213
X20833Y15787
T02
X14333Y10000
X14333Y11000
X14333Y14000
X14333Y15000
X14333Y18000
X14333Y19000
X14333Y22000
X14333Y23000
X14333Y26000
X14333Y27000
X21703Y10500
X21703Y9500
X21703Y8500
X22963Y8500
X22933Y9500
X22963Y10500
X24203Y10500
X24203Y9500
X24203Y8500
X25463Y8500
X25433Y9500
X25463Y10500
T03
X19333Y17220
X19333Y19780
T04
X11333Y28500
X11333Y27500
X11333Y26500
X11333Y25500
X11333Y24500
X11333Y23500
X11333Y22500
X11333Y21500
X11333Y20000
X11333Y19000
X11333Y18000
X11333Y17000
X11333Y16000
X11333Y15000
X11333Y14000
X11333Y13000
X11333Y12000
X11333Y11000
X13833Y12500
X16833Y12500
X18833Y13500
X19333Y15000
X16833Y16500
X16333Y15000
X13833Y16500
X13333Y20500
X16333Y20500
X19783Y22150
X19783Y23850
X20383Y25150
X22283Y25150
X22883Y23850
X24333Y23000
X22883Y22150
X22383Y21000
X23383Y21000
X24383Y21000
X25383Y21000
X26383Y21000
X27383Y21000
X27283Y20000
X26283Y20000
X25283Y20000
X24283Y20000
X23283Y20000
X22283Y20000
X22383Y19000
X23383Y19000
X24383Y19000
X25383Y19000
X26383Y19000
X27383Y19000
X27283Y18000
X26283Y18000
X25283Y18000
X24283Y18000
X23283Y18000
X22283Y18000
X22383Y17000
X23383Y17000
X24383Y17000
X25383Y17000
X26383Y17000
X27383Y17000
X27283Y16000
X26283Y16000
X25283Y16000
X24283Y16000
X23283Y16000
X22283Y16000
X22383Y15000
X23383Y15000
X24383Y15000
X25383Y15000
X26383Y15000
X27383Y15000
X27283Y14000
X26283Y14000
X25283Y14000
X24283Y14000
X23283Y14000
X22283Y14000
X22383Y13000
X23383Y13000
X24383Y13000
X25383Y13000
X26383Y13000
X27383Y13000
X27333Y11000
X28333Y11000
X28333Y10000
X27333Y10000
X27333Y9000
X28333Y9000
X29333Y9000
X29333Y10000
X29333Y11000
X30333Y14500
X30333Y15500
X30333Y16500
X30333Y17500
X30333Y18500
X30333Y19500
X30333Y20500
X30333Y21500
X30333Y23500
X30333Y24500
X30333Y25500
X30333Y26500
X30333Y27500
X30333Y28500
X27833Y28500
X27833Y30000
X24833Y30000
X22883Y29850
X24833Y28500
X22883Y28150
X22283Y26850
X20383Y26850
X19783Y28150
X19783Y29850
X16333Y28500
X17283Y26850
X17283Y25150
X16333Y24500
X13333Y24500
X13333Y28500
X25383Y26850
X27333Y27000
X25383Y25150
X27333Y24000
X27333Y23000
X20833Y11500
X18833Y10500
X20833Y8500
X15833Y8500
X12833Y8500
M30
