G75*
%MOIN*%
%OFA0B0*%
%FSLAX24Y24*%
%IPPOS*%
%LPD*%
%AMOC8*
5,1,8,0,0,1.08239X$1,22.5*
%
%ADD10C,0.0000*%
%ADD11C,0.0030*%
%ADD12C,0.0060*%
%ADD13C,0.0100*%
%ADD14C,0.0010*%
%ADD15C,0.0080*%
%ADD16C,0.0050*%
%ADD17C,0.0020*%
%ADD18C,0.0040*%
D10*
X010333Y007000D02*
X010333Y030996D01*
X031703Y030996D01*
X031703Y007000D01*
X010333Y007000D01*
D11*
X019583Y014228D02*
X019583Y014373D01*
X019632Y014421D01*
X019728Y014421D01*
X019777Y014373D01*
X019777Y014228D01*
X019777Y014324D02*
X019873Y014421D01*
X019873Y014522D02*
X019873Y014716D01*
X019873Y014619D02*
X019583Y014619D01*
X019680Y014522D01*
X019728Y014817D02*
X019728Y015010D01*
X019583Y014962D02*
X019728Y014817D01*
X019873Y014962D02*
X019583Y014962D01*
X019583Y014228D02*
X019873Y014228D01*
X021348Y011985D02*
X021348Y011695D01*
X021348Y011840D02*
X021542Y011840D01*
X021643Y011743D02*
X021691Y011792D01*
X021836Y011792D01*
X021836Y011840D02*
X021836Y011695D01*
X021691Y011695D01*
X021643Y011743D01*
X021542Y011695D02*
X021542Y011985D01*
X021691Y011888D02*
X021788Y011888D01*
X021836Y011840D01*
X021938Y011840D02*
X021938Y011743D01*
X021986Y011695D01*
X022131Y011695D01*
X022232Y011695D02*
X022232Y011985D01*
X022131Y011888D02*
X021986Y011888D01*
X021938Y011840D01*
X022232Y011792D02*
X022377Y011888D01*
X022232Y011792D02*
X022377Y011695D01*
X022478Y011743D02*
X022526Y011695D01*
X022575Y011695D01*
X022623Y011743D01*
X022623Y011985D01*
X022575Y011985D02*
X022671Y011985D01*
X022772Y011888D02*
X022772Y011695D01*
X022772Y011792D02*
X022869Y011888D01*
X022918Y011888D01*
X023313Y011937D02*
X023313Y011743D01*
X023361Y011695D01*
X023458Y011695D01*
X023506Y011743D01*
X023506Y011840D01*
X023409Y011840D01*
X023313Y011937D02*
X023361Y011985D01*
X023458Y011985D01*
X023506Y011937D01*
X023656Y011888D02*
X023752Y011888D01*
X023801Y011840D01*
X023801Y011695D01*
X023656Y011695D01*
X023607Y011743D01*
X023656Y011792D01*
X023801Y011792D01*
X023902Y011888D02*
X023902Y011695D01*
X023999Y011695D02*
X023999Y011840D01*
X024047Y011888D01*
X024095Y011840D01*
X024095Y011695D01*
X024197Y011743D02*
X024197Y011840D01*
X024245Y011888D01*
X024342Y011888D01*
X024390Y011840D01*
X024390Y011792D01*
X024197Y011792D01*
X024197Y011743D02*
X024245Y011695D01*
X024342Y011695D01*
X023999Y011840D02*
X023950Y011888D01*
X023902Y011888D01*
X024786Y011937D02*
X024786Y011743D01*
X024834Y011695D01*
X024931Y011695D01*
X024979Y011743D01*
X025081Y011743D02*
X025129Y011695D01*
X025226Y011695D01*
X025274Y011743D01*
X025274Y011840D01*
X025226Y011888D01*
X025129Y011888D01*
X025081Y011840D01*
X025081Y011743D01*
X024979Y011937D02*
X024931Y011985D01*
X024834Y011985D01*
X024786Y011937D01*
X025375Y011888D02*
X025375Y011695D01*
X025375Y011888D02*
X025520Y011888D01*
X025569Y011840D01*
X025569Y011695D01*
X025718Y011743D02*
X025767Y011695D01*
X025718Y011743D02*
X025718Y011937D01*
X025670Y011888D02*
X025767Y011888D01*
X025866Y011888D02*
X025866Y011695D01*
X025866Y011792D02*
X025963Y011888D01*
X026011Y011888D01*
X026112Y011840D02*
X026112Y011743D01*
X026160Y011695D01*
X026257Y011695D01*
X026305Y011743D01*
X026305Y011840D01*
X026257Y011888D01*
X026160Y011888D01*
X026112Y011840D01*
X026407Y011695D02*
X026503Y011695D01*
X026455Y011695D02*
X026455Y011985D01*
X026407Y011985D01*
X026603Y011985D02*
X026651Y011985D01*
X026651Y011695D01*
X026603Y011695D02*
X026700Y011695D01*
X026799Y011743D02*
X026799Y011840D01*
X026848Y011888D01*
X026945Y011888D01*
X026993Y011840D01*
X026993Y011792D01*
X026799Y011792D01*
X026799Y011743D02*
X026848Y011695D01*
X026945Y011695D01*
X027094Y011695D02*
X027094Y011888D01*
X027094Y011792D02*
X027191Y011888D01*
X027239Y011888D01*
X027634Y011888D02*
X027731Y011985D01*
X027731Y011695D01*
X027634Y011695D02*
X027828Y011695D01*
X027929Y011695D02*
X027977Y011695D01*
X027977Y011743D01*
X027929Y011743D01*
X027929Y011695D01*
X028076Y011743D02*
X028270Y011937D01*
X028270Y011743D01*
X028221Y011695D01*
X028125Y011695D01*
X028076Y011743D01*
X028076Y011937D01*
X028125Y011985D01*
X028221Y011985D01*
X028270Y011937D01*
D12*
X028213Y015330D02*
X028100Y015330D01*
X028156Y015330D02*
X028156Y015670D01*
X028100Y015670D02*
X028213Y015670D01*
X028345Y015614D02*
X028345Y015387D01*
X028402Y015330D01*
X028515Y015330D01*
X028572Y015387D01*
X028572Y015614D01*
X028515Y015670D01*
X028402Y015670D01*
X028345Y015614D01*
X028713Y015670D02*
X028713Y015330D01*
X028713Y015443D02*
X028884Y015443D01*
X028940Y015500D01*
X028940Y015614D01*
X028884Y015670D01*
X028713Y015670D01*
X028827Y015443D02*
X028940Y015330D01*
X029082Y015330D02*
X029309Y015330D01*
X029450Y015330D02*
X029450Y015670D01*
X029677Y015670D01*
X029563Y015500D02*
X029450Y015500D01*
X029309Y015670D02*
X029082Y015670D01*
X029082Y015330D01*
X029082Y015500D02*
X029195Y015500D01*
X029138Y016330D02*
X029082Y016387D01*
X029138Y016330D02*
X029252Y016330D01*
X029309Y016387D01*
X029309Y016443D01*
X029252Y016500D01*
X029138Y016500D01*
X029082Y016557D01*
X029082Y016614D01*
X029138Y016670D01*
X029252Y016670D01*
X029309Y016614D01*
X029450Y016670D02*
X029677Y016670D01*
X029563Y016670D02*
X029563Y016330D01*
X028940Y016330D02*
X028827Y016443D01*
X028884Y016443D02*
X028713Y016443D01*
X028713Y016330D02*
X028713Y016670D01*
X028884Y016670D01*
X028940Y016614D01*
X028940Y016500D01*
X028884Y016443D01*
X028898Y017330D02*
X028954Y017330D01*
X028954Y017387D01*
X028898Y017387D01*
X028898Y017330D01*
X028756Y017387D02*
X028756Y017443D01*
X028699Y017500D01*
X028643Y017500D01*
X028699Y017500D02*
X028756Y017557D01*
X028756Y017614D01*
X028699Y017670D01*
X028586Y017670D01*
X028529Y017614D01*
X028388Y017500D02*
X028161Y017500D01*
X028274Y017387D02*
X028274Y017614D01*
X028529Y017387D02*
X028586Y017330D01*
X028699Y017330D01*
X028756Y017387D01*
X029082Y017387D02*
X029138Y017330D01*
X029252Y017330D01*
X029309Y017387D01*
X029309Y017443D01*
X029252Y017500D01*
X029195Y017500D01*
X029252Y017500D02*
X029309Y017557D01*
X029309Y017614D01*
X029252Y017670D01*
X029138Y017670D01*
X029082Y017614D01*
X029450Y017670D02*
X029450Y017443D01*
X029563Y017330D01*
X029677Y017443D01*
X029677Y017670D01*
X029563Y018330D02*
X029677Y018443D01*
X029677Y018670D01*
X029450Y018670D02*
X029450Y018443D01*
X029563Y018330D01*
X029309Y018387D02*
X029252Y018330D01*
X029138Y018330D01*
X029082Y018387D01*
X029082Y018500D02*
X029195Y018557D01*
X029252Y018557D01*
X029309Y018500D01*
X029309Y018387D01*
X029082Y018500D02*
X029082Y018670D01*
X029309Y018670D01*
X028940Y018500D02*
X028713Y018500D01*
X028827Y018387D02*
X028827Y018614D01*
X028770Y019330D02*
X028884Y019330D01*
X028940Y019387D01*
X028940Y019500D01*
X028827Y019500D01*
X028940Y019614D02*
X028884Y019670D01*
X028770Y019670D01*
X028713Y019614D01*
X028713Y019387D01*
X028770Y019330D01*
X029082Y019330D02*
X029082Y019670D01*
X029309Y019330D01*
X029309Y019670D01*
X029450Y019670D02*
X029620Y019670D01*
X029677Y019614D01*
X029677Y019387D01*
X029620Y019330D01*
X029450Y019330D01*
X029450Y019670D01*
X029450Y020330D02*
X029620Y020330D01*
X029677Y020387D01*
X029677Y020614D01*
X029620Y020670D01*
X029450Y020670D01*
X029450Y020330D01*
X029309Y020330D02*
X029309Y020670D01*
X029082Y020670D02*
X029082Y020330D01*
X028940Y020387D02*
X028940Y020500D01*
X028827Y020500D01*
X028940Y020387D02*
X028884Y020330D01*
X028770Y020330D01*
X028713Y020387D01*
X028713Y020614D01*
X028770Y020670D01*
X028884Y020670D01*
X028940Y020614D01*
X029082Y020670D02*
X029309Y020330D01*
X029318Y021330D02*
X029204Y021330D01*
X029261Y021330D02*
X029261Y021670D01*
X029204Y021670D02*
X029318Y021670D01*
X029450Y021670D02*
X029677Y021330D01*
X029677Y021670D01*
X029450Y021670D02*
X029450Y021330D01*
X029063Y021443D02*
X029063Y021670D01*
X029063Y021443D02*
X028950Y021330D01*
X028836Y021443D01*
X028836Y021670D01*
X029507Y023330D02*
X029450Y023387D01*
X029677Y023614D01*
X029677Y023387D01*
X029620Y023330D01*
X029507Y023330D01*
X029450Y023387D02*
X029450Y023614D01*
X029507Y023670D01*
X029620Y023670D01*
X029677Y023614D01*
X029677Y024330D02*
X029450Y024330D01*
X029563Y024330D02*
X029563Y024670D01*
X029450Y024557D01*
X029158Y024511D02*
X028931Y024511D01*
X028818Y024624D01*
X028931Y024738D01*
X029158Y024738D01*
X029158Y024879D02*
X028931Y024879D01*
X028931Y025049D01*
X028988Y025106D01*
X029158Y025106D01*
X029102Y025247D02*
X029045Y025304D01*
X029045Y025474D01*
X028988Y025474D02*
X029158Y025474D01*
X029158Y025304D01*
X029102Y025247D01*
X028931Y025304D02*
X028931Y025417D01*
X028988Y025474D01*
X028818Y025616D02*
X028818Y025672D01*
X029158Y025672D01*
X029158Y025616D02*
X029158Y025729D01*
X029102Y025861D02*
X029158Y025918D01*
X029158Y026031D01*
X029102Y026088D01*
X028988Y026088D01*
X028931Y026031D01*
X028931Y025918D01*
X028988Y025861D01*
X029102Y025861D01*
X029102Y026230D02*
X029158Y026286D01*
X029158Y026456D01*
X029215Y026456D02*
X028931Y026456D01*
X028931Y026286D01*
X028988Y026230D01*
X029102Y026230D01*
X029272Y026343D02*
X029272Y026400D01*
X029215Y026456D01*
X029450Y026387D02*
X029507Y026330D01*
X029620Y026330D01*
X029677Y026387D01*
X029677Y026443D01*
X029620Y026500D01*
X029563Y026500D01*
X029620Y026500D02*
X029677Y026557D01*
X029677Y026614D01*
X029620Y026670D01*
X029507Y026670D01*
X029450Y026614D01*
X029158Y026966D02*
X029158Y027080D01*
X029158Y027023D02*
X028818Y027023D01*
X028818Y026966D02*
X028818Y027080D01*
X028931Y027212D02*
X028931Y027382D01*
X028988Y027439D01*
X029158Y027439D01*
X029158Y027212D02*
X028931Y027212D01*
X029450Y027500D02*
X029677Y027500D01*
X029620Y027330D02*
X029620Y027670D01*
X029450Y027500D01*
X029507Y028330D02*
X029450Y028387D01*
X029507Y028330D02*
X029620Y028330D01*
X029677Y028387D01*
X029677Y028500D01*
X029620Y028557D01*
X029563Y028557D01*
X029450Y028500D01*
X029450Y028670D01*
X029677Y028670D01*
X029620Y025670D02*
X029507Y025670D01*
X029450Y025614D01*
X029620Y025670D02*
X029677Y025614D01*
X029677Y025557D01*
X029450Y025330D01*
X029677Y025330D01*
X028988Y024738D02*
X028988Y024511D01*
X013333Y026500D02*
X013335Y026563D01*
X013341Y026625D01*
X013351Y026687D01*
X013364Y026749D01*
X013382Y026809D01*
X013403Y026868D01*
X013428Y026926D01*
X013457Y026982D01*
X013489Y027036D01*
X013524Y027088D01*
X013562Y027137D01*
X013604Y027185D01*
X013648Y027229D01*
X013696Y027271D01*
X013745Y027309D01*
X013797Y027344D01*
X013851Y027376D01*
X013907Y027405D01*
X013965Y027430D01*
X014024Y027451D01*
X014084Y027469D01*
X014146Y027482D01*
X014208Y027492D01*
X014270Y027498D01*
X014333Y027500D01*
X014396Y027498D01*
X014458Y027492D01*
X014520Y027482D01*
X014582Y027469D01*
X014642Y027451D01*
X014701Y027430D01*
X014759Y027405D01*
X014815Y027376D01*
X014869Y027344D01*
X014921Y027309D01*
X014970Y027271D01*
X015018Y027229D01*
X015062Y027185D01*
X015104Y027137D01*
X015142Y027088D01*
X015177Y027036D01*
X015209Y026982D01*
X015238Y026926D01*
X015263Y026868D01*
X015284Y026809D01*
X015302Y026749D01*
X015315Y026687D01*
X015325Y026625D01*
X015331Y026563D01*
X015333Y026500D01*
X015331Y026437D01*
X015325Y026375D01*
X015315Y026313D01*
X015302Y026251D01*
X015284Y026191D01*
X015263Y026132D01*
X015238Y026074D01*
X015209Y026018D01*
X015177Y025964D01*
X015142Y025912D01*
X015104Y025863D01*
X015062Y025815D01*
X015018Y025771D01*
X014970Y025729D01*
X014921Y025691D01*
X014869Y025656D01*
X014815Y025624D01*
X014759Y025595D01*
X014701Y025570D01*
X014642Y025549D01*
X014582Y025531D01*
X014520Y025518D01*
X014458Y025508D01*
X014396Y025502D01*
X014333Y025500D01*
X014270Y025502D01*
X014208Y025508D01*
X014146Y025518D01*
X014084Y025531D01*
X014024Y025549D01*
X013965Y025570D01*
X013907Y025595D01*
X013851Y025624D01*
X013797Y025656D01*
X013745Y025691D01*
X013696Y025729D01*
X013648Y025771D01*
X013604Y025815D01*
X013562Y025863D01*
X013524Y025912D01*
X013489Y025964D01*
X013457Y026018D01*
X013428Y026074D01*
X013403Y026132D01*
X013382Y026191D01*
X013364Y026251D01*
X013351Y026313D01*
X013341Y026375D01*
X013335Y026437D01*
X013333Y026500D01*
X012459Y027330D02*
X012232Y027670D01*
X012090Y027670D02*
X011863Y027670D01*
X011977Y027670D02*
X011977Y027330D01*
X012232Y027330D02*
X012459Y027670D01*
X012459Y028330D02*
X012232Y028670D01*
X012090Y028614D02*
X012090Y028500D01*
X012033Y028443D01*
X011863Y028443D01*
X011863Y028330D02*
X011863Y028670D01*
X012033Y028670D01*
X012090Y028614D01*
X011977Y028443D02*
X012090Y028330D01*
X012232Y028330D02*
X012459Y028670D01*
X012033Y026670D02*
X011920Y026670D01*
X011863Y026614D01*
X012033Y026670D02*
X012090Y026614D01*
X012090Y026557D01*
X011863Y026330D01*
X012090Y026330D01*
X012033Y025670D02*
X012090Y025614D01*
X012090Y025557D01*
X012033Y025500D01*
X012090Y025443D01*
X012090Y025387D01*
X012033Y025330D01*
X011920Y025330D01*
X011863Y025387D01*
X011977Y025500D02*
X012033Y025500D01*
X012033Y025670D02*
X011920Y025670D01*
X011863Y025614D01*
X012033Y024670D02*
X011863Y024500D01*
X012090Y024500D01*
X012033Y024330D02*
X012033Y024670D01*
X012090Y023670D02*
X011863Y023670D01*
X011863Y023500D01*
X011977Y023557D01*
X012033Y023557D01*
X012090Y023500D01*
X012090Y023387D01*
X012033Y023330D01*
X011920Y023330D01*
X011863Y023387D01*
X012090Y022670D02*
X011977Y022614D01*
X011863Y022500D01*
X012033Y022500D01*
X012090Y022443D01*
X012090Y022387D01*
X012033Y022330D01*
X011920Y022330D01*
X011863Y022387D01*
X011863Y022500D01*
X011863Y021670D02*
X012090Y021670D01*
X012090Y021614D01*
X011863Y021387D01*
X011863Y021330D01*
X011920Y020170D02*
X012033Y020170D01*
X012090Y020114D01*
X012090Y020057D01*
X012033Y020000D01*
X011920Y020000D01*
X011863Y020057D01*
X011863Y020114D01*
X011920Y020170D01*
X011920Y020000D02*
X011863Y019943D01*
X011863Y019887D01*
X011920Y019830D01*
X012033Y019830D01*
X012090Y019887D01*
X012090Y019943D01*
X012033Y020000D01*
X012033Y019170D02*
X011920Y019170D01*
X011863Y019114D01*
X011863Y019057D01*
X011920Y019000D01*
X012090Y019000D01*
X012090Y018887D02*
X012090Y019114D01*
X012033Y019170D01*
X012090Y018887D02*
X012033Y018830D01*
X011920Y018830D01*
X011863Y018887D01*
X011977Y018170D02*
X011977Y017830D01*
X012090Y017830D02*
X011863Y017830D01*
X011863Y018057D02*
X011977Y018170D01*
X012232Y018114D02*
X012232Y017887D01*
X012459Y018114D01*
X012459Y017887D01*
X012402Y017830D01*
X012288Y017830D01*
X012232Y017887D01*
X012232Y018114D02*
X012288Y018170D01*
X012402Y018170D01*
X012459Y018114D01*
X012345Y017170D02*
X012345Y016830D01*
X012232Y016830D02*
X012459Y016830D01*
X012232Y017057D02*
X012345Y017170D01*
X011977Y017170D02*
X011977Y016830D01*
X012090Y016830D02*
X011863Y016830D01*
X011863Y017057D02*
X011977Y017170D01*
X011977Y016170D02*
X011977Y015830D01*
X012090Y015830D02*
X011863Y015830D01*
X011863Y016057D02*
X011977Y016170D01*
X012232Y016114D02*
X012288Y016170D01*
X012402Y016170D01*
X012459Y016114D01*
X012459Y016057D01*
X012232Y015830D01*
X012459Y015830D01*
X012402Y015170D02*
X012459Y015114D01*
X012459Y015057D01*
X012402Y015000D01*
X012459Y014943D01*
X012459Y014887D01*
X012402Y014830D01*
X012288Y014830D01*
X012232Y014887D01*
X012090Y014830D02*
X011863Y014830D01*
X011977Y014830D02*
X011977Y015170D01*
X011863Y015057D01*
X012232Y015114D02*
X012288Y015170D01*
X012402Y015170D01*
X012402Y015000D02*
X012345Y015000D01*
X012232Y014170D02*
X012459Y013830D01*
X012459Y014170D01*
X012600Y014170D02*
X012600Y013830D01*
X012770Y013830D01*
X012827Y013887D01*
X012827Y014114D01*
X012770Y014170D01*
X012600Y014170D01*
X012232Y014170D02*
X012232Y013830D01*
X012090Y013887D02*
X012090Y014000D01*
X011977Y014000D01*
X012090Y013887D02*
X012033Y013830D01*
X011920Y013830D01*
X011863Y013887D01*
X011863Y014114D01*
X011920Y014170D01*
X012033Y014170D01*
X012090Y014114D01*
X011977Y013170D02*
X012090Y013057D01*
X012090Y012830D01*
X012232Y012830D02*
X012232Y013170D01*
X012402Y013170D01*
X012459Y013114D01*
X012459Y013000D01*
X012402Y012943D01*
X012232Y012943D01*
X012345Y012943D02*
X012459Y012830D01*
X012600Y012830D02*
X012600Y013170D01*
X012827Y013170D01*
X012968Y013170D02*
X012968Y012830D01*
X012827Y012830D02*
X012600Y012830D01*
X012600Y013000D02*
X012713Y013000D01*
X012968Y013000D02*
X013082Y013000D01*
X012968Y013170D02*
X013195Y013170D01*
X012090Y013000D02*
X011863Y013000D01*
X011863Y013057D02*
X011977Y013170D01*
X011863Y013057D02*
X011863Y012830D01*
X011920Y012170D02*
X011863Y012114D01*
X011863Y012057D01*
X011920Y012000D01*
X012033Y012000D01*
X012090Y011943D01*
X012090Y011887D01*
X012033Y011830D01*
X011920Y011830D01*
X011863Y011887D01*
X011920Y012170D02*
X012033Y012170D01*
X012090Y012114D01*
X012232Y012170D02*
X012232Y011830D01*
X012402Y011830D01*
X012459Y011887D01*
X012459Y012114D01*
X012402Y012170D01*
X012232Y012170D01*
X012600Y012057D02*
X012713Y012170D01*
X012827Y012057D01*
X012827Y011830D01*
X012827Y012000D02*
X012600Y012000D01*
X012600Y012057D02*
X012600Y011830D01*
X012600Y011170D02*
X012600Y010830D01*
X012827Y010830D01*
X012459Y010887D02*
X012402Y010830D01*
X012288Y010830D01*
X012232Y010887D01*
X012232Y011114D01*
X012288Y011170D01*
X012402Y011170D01*
X012459Y011114D01*
X012090Y011114D02*
X012033Y011170D01*
X011920Y011170D01*
X011863Y011114D01*
X011863Y011057D01*
X011920Y011000D01*
X012033Y011000D01*
X012090Y010943D01*
X012090Y010887D01*
X012033Y010830D01*
X011920Y010830D01*
X011863Y010887D01*
X013333Y010500D02*
X013335Y010563D01*
X013341Y010625D01*
X013351Y010687D01*
X013364Y010749D01*
X013382Y010809D01*
X013403Y010868D01*
X013428Y010926D01*
X013457Y010982D01*
X013489Y011036D01*
X013524Y011088D01*
X013562Y011137D01*
X013604Y011185D01*
X013648Y011229D01*
X013696Y011271D01*
X013745Y011309D01*
X013797Y011344D01*
X013851Y011376D01*
X013907Y011405D01*
X013965Y011430D01*
X014024Y011451D01*
X014084Y011469D01*
X014146Y011482D01*
X014208Y011492D01*
X014270Y011498D01*
X014333Y011500D01*
X014396Y011498D01*
X014458Y011492D01*
X014520Y011482D01*
X014582Y011469D01*
X014642Y011451D01*
X014701Y011430D01*
X014759Y011405D01*
X014815Y011376D01*
X014869Y011344D01*
X014921Y011309D01*
X014970Y011271D01*
X015018Y011229D01*
X015062Y011185D01*
X015104Y011137D01*
X015142Y011088D01*
X015177Y011036D01*
X015209Y010982D01*
X015238Y010926D01*
X015263Y010868D01*
X015284Y010809D01*
X015302Y010749D01*
X015315Y010687D01*
X015325Y010625D01*
X015331Y010563D01*
X015333Y010500D01*
X015331Y010437D01*
X015325Y010375D01*
X015315Y010313D01*
X015302Y010251D01*
X015284Y010191D01*
X015263Y010132D01*
X015238Y010074D01*
X015209Y010018D01*
X015177Y009964D01*
X015142Y009912D01*
X015104Y009863D01*
X015062Y009815D01*
X015018Y009771D01*
X014970Y009729D01*
X014921Y009691D01*
X014869Y009656D01*
X014815Y009624D01*
X014759Y009595D01*
X014701Y009570D01*
X014642Y009549D01*
X014582Y009531D01*
X014520Y009518D01*
X014458Y009508D01*
X014396Y009502D01*
X014333Y009500D01*
X014270Y009502D01*
X014208Y009508D01*
X014146Y009518D01*
X014084Y009531D01*
X014024Y009549D01*
X013965Y009570D01*
X013907Y009595D01*
X013851Y009624D01*
X013797Y009656D01*
X013745Y009691D01*
X013696Y009729D01*
X013648Y009771D01*
X013604Y009815D01*
X013562Y009863D01*
X013524Y009912D01*
X013489Y009964D01*
X013457Y010018D01*
X013428Y010074D01*
X013403Y010132D01*
X013382Y010191D01*
X013364Y010251D01*
X013351Y010313D01*
X013341Y010375D01*
X013335Y010437D01*
X013333Y010500D01*
X013333Y014500D02*
X013335Y014563D01*
X013341Y014625D01*
X013351Y014687D01*
X013364Y014749D01*
X013382Y014809D01*
X013403Y014868D01*
X013428Y014926D01*
X013457Y014982D01*
X013489Y015036D01*
X013524Y015088D01*
X013562Y015137D01*
X013604Y015185D01*
X013648Y015229D01*
X013696Y015271D01*
X013745Y015309D01*
X013797Y015344D01*
X013851Y015376D01*
X013907Y015405D01*
X013965Y015430D01*
X014024Y015451D01*
X014084Y015469D01*
X014146Y015482D01*
X014208Y015492D01*
X014270Y015498D01*
X014333Y015500D01*
X014396Y015498D01*
X014458Y015492D01*
X014520Y015482D01*
X014582Y015469D01*
X014642Y015451D01*
X014701Y015430D01*
X014759Y015405D01*
X014815Y015376D01*
X014869Y015344D01*
X014921Y015309D01*
X014970Y015271D01*
X015018Y015229D01*
X015062Y015185D01*
X015104Y015137D01*
X015142Y015088D01*
X015177Y015036D01*
X015209Y014982D01*
X015238Y014926D01*
X015263Y014868D01*
X015284Y014809D01*
X015302Y014749D01*
X015315Y014687D01*
X015325Y014625D01*
X015331Y014563D01*
X015333Y014500D01*
X015331Y014437D01*
X015325Y014375D01*
X015315Y014313D01*
X015302Y014251D01*
X015284Y014191D01*
X015263Y014132D01*
X015238Y014074D01*
X015209Y014018D01*
X015177Y013964D01*
X015142Y013912D01*
X015104Y013863D01*
X015062Y013815D01*
X015018Y013771D01*
X014970Y013729D01*
X014921Y013691D01*
X014869Y013656D01*
X014815Y013624D01*
X014759Y013595D01*
X014701Y013570D01*
X014642Y013549D01*
X014582Y013531D01*
X014520Y013518D01*
X014458Y013508D01*
X014396Y013502D01*
X014333Y013500D01*
X014270Y013502D01*
X014208Y013508D01*
X014146Y013518D01*
X014084Y013531D01*
X014024Y013549D01*
X013965Y013570D01*
X013907Y013595D01*
X013851Y013624D01*
X013797Y013656D01*
X013745Y013691D01*
X013696Y013729D01*
X013648Y013771D01*
X013604Y013815D01*
X013562Y013863D01*
X013524Y013912D01*
X013489Y013964D01*
X013457Y014018D01*
X013428Y014074D01*
X013403Y014132D01*
X013382Y014191D01*
X013364Y014251D01*
X013351Y014313D01*
X013341Y014375D01*
X013335Y014437D01*
X013333Y014500D01*
X013333Y018500D02*
X013335Y018563D01*
X013341Y018625D01*
X013351Y018687D01*
X013364Y018749D01*
X013382Y018809D01*
X013403Y018868D01*
X013428Y018926D01*
X013457Y018982D01*
X013489Y019036D01*
X013524Y019088D01*
X013562Y019137D01*
X013604Y019185D01*
X013648Y019229D01*
X013696Y019271D01*
X013745Y019309D01*
X013797Y019344D01*
X013851Y019376D01*
X013907Y019405D01*
X013965Y019430D01*
X014024Y019451D01*
X014084Y019469D01*
X014146Y019482D01*
X014208Y019492D01*
X014270Y019498D01*
X014333Y019500D01*
X014396Y019498D01*
X014458Y019492D01*
X014520Y019482D01*
X014582Y019469D01*
X014642Y019451D01*
X014701Y019430D01*
X014759Y019405D01*
X014815Y019376D01*
X014869Y019344D01*
X014921Y019309D01*
X014970Y019271D01*
X015018Y019229D01*
X015062Y019185D01*
X015104Y019137D01*
X015142Y019088D01*
X015177Y019036D01*
X015209Y018982D01*
X015238Y018926D01*
X015263Y018868D01*
X015284Y018809D01*
X015302Y018749D01*
X015315Y018687D01*
X015325Y018625D01*
X015331Y018563D01*
X015333Y018500D01*
X015331Y018437D01*
X015325Y018375D01*
X015315Y018313D01*
X015302Y018251D01*
X015284Y018191D01*
X015263Y018132D01*
X015238Y018074D01*
X015209Y018018D01*
X015177Y017964D01*
X015142Y017912D01*
X015104Y017863D01*
X015062Y017815D01*
X015018Y017771D01*
X014970Y017729D01*
X014921Y017691D01*
X014869Y017656D01*
X014815Y017624D01*
X014759Y017595D01*
X014701Y017570D01*
X014642Y017549D01*
X014582Y017531D01*
X014520Y017518D01*
X014458Y017508D01*
X014396Y017502D01*
X014333Y017500D01*
X014270Y017502D01*
X014208Y017508D01*
X014146Y017518D01*
X014084Y017531D01*
X014024Y017549D01*
X013965Y017570D01*
X013907Y017595D01*
X013851Y017624D01*
X013797Y017656D01*
X013745Y017691D01*
X013696Y017729D01*
X013648Y017771D01*
X013604Y017815D01*
X013562Y017863D01*
X013524Y017912D01*
X013489Y017964D01*
X013457Y018018D01*
X013428Y018074D01*
X013403Y018132D01*
X013382Y018191D01*
X013364Y018251D01*
X013351Y018313D01*
X013341Y018375D01*
X013335Y018437D01*
X013333Y018500D01*
X013333Y022500D02*
X013335Y022563D01*
X013341Y022625D01*
X013351Y022687D01*
X013364Y022749D01*
X013382Y022809D01*
X013403Y022868D01*
X013428Y022926D01*
X013457Y022982D01*
X013489Y023036D01*
X013524Y023088D01*
X013562Y023137D01*
X013604Y023185D01*
X013648Y023229D01*
X013696Y023271D01*
X013745Y023309D01*
X013797Y023344D01*
X013851Y023376D01*
X013907Y023405D01*
X013965Y023430D01*
X014024Y023451D01*
X014084Y023469D01*
X014146Y023482D01*
X014208Y023492D01*
X014270Y023498D01*
X014333Y023500D01*
X014396Y023498D01*
X014458Y023492D01*
X014520Y023482D01*
X014582Y023469D01*
X014642Y023451D01*
X014701Y023430D01*
X014759Y023405D01*
X014815Y023376D01*
X014869Y023344D01*
X014921Y023309D01*
X014970Y023271D01*
X015018Y023229D01*
X015062Y023185D01*
X015104Y023137D01*
X015142Y023088D01*
X015177Y023036D01*
X015209Y022982D01*
X015238Y022926D01*
X015263Y022868D01*
X015284Y022809D01*
X015302Y022749D01*
X015315Y022687D01*
X015325Y022625D01*
X015331Y022563D01*
X015333Y022500D01*
X015331Y022437D01*
X015325Y022375D01*
X015315Y022313D01*
X015302Y022251D01*
X015284Y022191D01*
X015263Y022132D01*
X015238Y022074D01*
X015209Y022018D01*
X015177Y021964D01*
X015142Y021912D01*
X015104Y021863D01*
X015062Y021815D01*
X015018Y021771D01*
X014970Y021729D01*
X014921Y021691D01*
X014869Y021656D01*
X014815Y021624D01*
X014759Y021595D01*
X014701Y021570D01*
X014642Y021549D01*
X014582Y021531D01*
X014520Y021518D01*
X014458Y021508D01*
X014396Y021502D01*
X014333Y021500D01*
X014270Y021502D01*
X014208Y021508D01*
X014146Y021518D01*
X014084Y021531D01*
X014024Y021549D01*
X013965Y021570D01*
X013907Y021595D01*
X013851Y021624D01*
X013797Y021656D01*
X013745Y021691D01*
X013696Y021729D01*
X013648Y021771D01*
X013604Y021815D01*
X013562Y021863D01*
X013524Y021912D01*
X013489Y021964D01*
X013457Y022018D01*
X013428Y022074D01*
X013403Y022132D01*
X013382Y022191D01*
X013364Y022251D01*
X013351Y022313D01*
X013341Y022375D01*
X013335Y022437D01*
X013333Y022500D01*
D13*
X013833Y021000D02*
X013833Y020500D01*
X013733Y020500D01*
X013833Y020500D02*
X013833Y020000D01*
X015833Y020000D01*
X015833Y020500D01*
X015933Y020500D01*
X015833Y020500D02*
X015833Y021000D01*
X013833Y021000D01*
X013833Y024000D02*
X013833Y024500D01*
X013733Y024500D01*
X013833Y024500D02*
X013833Y025000D01*
X015833Y025000D01*
X015833Y024500D01*
X015933Y024500D01*
X015833Y024500D02*
X015833Y024000D01*
X013833Y024000D01*
X013833Y028000D02*
X013833Y028500D01*
X013733Y028500D01*
X013833Y028500D02*
X013833Y029000D01*
X015833Y029000D01*
X015833Y028500D01*
X015933Y028500D01*
X015833Y028500D02*
X015833Y028000D01*
X013833Y028000D01*
X024833Y023500D02*
X024833Y023000D01*
X024733Y023000D01*
X024833Y023000D02*
X024833Y022500D01*
X026833Y022500D01*
X026833Y023000D01*
X026933Y023000D01*
X026833Y023000D02*
X026833Y023500D01*
X024833Y023500D01*
X026833Y024500D02*
X026833Y026500D01*
X027333Y026500D01*
X027333Y026600D01*
X027333Y026500D02*
X027833Y026500D01*
X027833Y024500D01*
X027333Y024500D01*
X027333Y024400D01*
X027333Y024500D02*
X026833Y024500D01*
X027333Y028000D02*
X025333Y028000D01*
X025333Y028500D01*
X025233Y028500D01*
X025333Y028500D02*
X025333Y029000D01*
X027333Y029000D01*
X027333Y028500D01*
X027433Y028500D01*
X027333Y028500D02*
X027333Y028000D01*
X027333Y029500D02*
X025333Y029500D01*
X025333Y030000D01*
X025233Y030000D01*
X025333Y030000D02*
X025333Y030500D01*
X027333Y030500D01*
X027333Y030000D01*
X027433Y030000D01*
X027333Y030000D02*
X027333Y029500D01*
X016333Y017000D02*
X014333Y017000D01*
X014333Y016500D01*
X014233Y016500D01*
X014333Y016500D02*
X014333Y016000D01*
X016333Y016000D01*
X016333Y016500D01*
X016433Y016500D01*
X016333Y016500D02*
X016333Y017000D01*
X016833Y015500D02*
X018833Y015500D01*
X018833Y015000D01*
X018933Y015000D01*
X018833Y015000D02*
X018833Y014500D01*
X016833Y014500D01*
X016833Y015000D01*
X016733Y015000D01*
X016833Y015000D02*
X016833Y015500D01*
X018833Y013100D02*
X018833Y013000D01*
X019333Y013000D01*
X019333Y011000D01*
X018833Y011000D01*
X018833Y010900D01*
X018833Y011000D02*
X018333Y011000D01*
X018333Y013000D01*
X018833Y013000D01*
X016433Y012500D02*
X016333Y012500D01*
X016333Y012000D01*
X014333Y012000D01*
X014333Y012500D01*
X014233Y012500D01*
X014333Y012500D02*
X014333Y013000D01*
X016333Y013000D01*
X016333Y012500D01*
X020333Y011000D02*
X020833Y011000D01*
X020833Y011100D01*
X020833Y011000D02*
X021333Y011000D01*
X021333Y009000D01*
X020833Y009000D01*
X020833Y008900D01*
X020833Y009000D02*
X020333Y009000D01*
X020333Y011000D01*
X015333Y009000D02*
X015333Y008500D01*
X015433Y008500D01*
X015333Y008500D02*
X015333Y008000D01*
X013333Y008000D01*
X013333Y008500D01*
X013233Y008500D01*
X013333Y008500D02*
X013333Y009000D01*
X015333Y009000D01*
D14*
X013733Y009005D02*
X013633Y009005D01*
X013586Y009005D02*
X013486Y009005D01*
X013438Y009005D02*
X013388Y009055D01*
X013413Y009055D02*
X013338Y009055D01*
X013338Y009005D02*
X013338Y009155D01*
X013413Y009155D01*
X013438Y009130D01*
X013438Y009080D01*
X013413Y009055D01*
X013486Y009105D02*
X013536Y009155D01*
X013536Y009005D01*
X013633Y009105D02*
X013683Y009155D01*
X013683Y009005D01*
X013553Y011532D02*
X013607Y011460D01*
X013606Y011461D02*
X013553Y011418D01*
X013502Y011373D01*
X013454Y011324D01*
X013409Y011273D01*
X013366Y011219D01*
X013327Y011163D01*
X013291Y011105D01*
X013258Y011045D01*
X013229Y010984D01*
X013204Y010920D01*
X013182Y010856D01*
X013163Y010790D01*
X013149Y010723D01*
X013138Y010656D01*
X013131Y010588D01*
X013128Y010520D01*
X013129Y010451D01*
X013134Y010383D01*
X013142Y010315D01*
X013155Y010248D01*
X013171Y010182D01*
X013191Y010117D01*
X013214Y010052D01*
X013241Y009990D01*
X013272Y009929D01*
X013306Y009870D01*
X013343Y009812D01*
X013384Y009757D01*
X013428Y009705D01*
X013474Y009655D01*
X013523Y009608D01*
X013575Y009563D01*
X013629Y009522D01*
X013686Y009483D01*
X013745Y009448D01*
X013805Y009417D01*
X013867Y009389D01*
X013931Y009364D01*
X013996Y009343D01*
X014062Y009326D01*
X014129Y009312D01*
X014197Y009303D01*
X014265Y009297D01*
X014333Y009295D01*
X014401Y009297D01*
X014469Y009303D01*
X014537Y009312D01*
X014604Y009326D01*
X014670Y009343D01*
X014735Y009364D01*
X014799Y009389D01*
X014861Y009417D01*
X014921Y009448D01*
X014980Y009483D01*
X015037Y009522D01*
X015091Y009563D01*
X015143Y009608D01*
X015192Y009655D01*
X015238Y009705D01*
X015282Y009757D01*
X015323Y009812D01*
X015360Y009870D01*
X015394Y009929D01*
X015425Y009990D01*
X015452Y010052D01*
X015475Y010117D01*
X015495Y010182D01*
X015511Y010248D01*
X015524Y010315D01*
X015532Y010383D01*
X015537Y010451D01*
X015538Y010520D01*
X015535Y010588D01*
X015528Y010656D01*
X015517Y010723D01*
X015503Y010790D01*
X015484Y010856D01*
X015462Y010920D01*
X015437Y010984D01*
X015408Y011045D01*
X015375Y011105D01*
X015339Y011163D01*
X015300Y011219D01*
X015257Y011273D01*
X015212Y011324D01*
X015164Y011373D01*
X015113Y011418D01*
X015060Y011461D01*
X015113Y011532D01*
X015114Y011533D01*
X015169Y011489D01*
X015222Y011441D01*
X015273Y011391D01*
X015320Y011338D01*
X015364Y011283D01*
X015406Y011225D01*
X015444Y011165D01*
X015479Y011104D01*
X015510Y011040D01*
X015538Y010975D01*
X015562Y010908D01*
X015583Y010840D01*
X015599Y010771D01*
X015612Y010701D01*
X015621Y010631D01*
X015627Y010560D01*
X015628Y010489D01*
X015625Y010418D01*
X015619Y010347D01*
X015609Y010277D01*
X015595Y010208D01*
X015577Y010139D01*
X015555Y010071D01*
X015530Y010005D01*
X015501Y009940D01*
X015468Y009877D01*
X015432Y009816D01*
X015393Y009757D01*
X015351Y009700D01*
X015306Y009645D01*
X015257Y009593D01*
X015206Y009544D01*
X015153Y009497D01*
X015096Y009454D01*
X015038Y009414D01*
X014977Y009377D01*
X014915Y009343D01*
X014851Y009313D01*
X014785Y009286D01*
X014718Y009263D01*
X014649Y009244D01*
X014580Y009229D01*
X014510Y009217D01*
X014439Y009209D01*
X014368Y009205D01*
X014298Y009205D01*
X014227Y009209D01*
X014156Y009217D01*
X014086Y009229D01*
X014017Y009244D01*
X013948Y009263D01*
X013881Y009286D01*
X013815Y009313D01*
X013751Y009343D01*
X013689Y009377D01*
X013628Y009414D01*
X013570Y009454D01*
X013513Y009497D01*
X013460Y009544D01*
X013409Y009593D01*
X013360Y009645D01*
X013315Y009700D01*
X013273Y009757D01*
X013234Y009816D01*
X013198Y009877D01*
X013165Y009940D01*
X013136Y010005D01*
X013111Y010071D01*
X013089Y010139D01*
X013071Y010208D01*
X013057Y010277D01*
X013047Y010347D01*
X013041Y010418D01*
X013038Y010489D01*
X013039Y010560D01*
X013045Y010631D01*
X013054Y010701D01*
X013067Y010771D01*
X013083Y010840D01*
X013104Y010908D01*
X013128Y010975D01*
X013156Y011040D01*
X013187Y011104D01*
X013222Y011165D01*
X013260Y011225D01*
X013302Y011283D01*
X013346Y011338D01*
X013393Y011391D01*
X013444Y011441D01*
X013497Y011489D01*
X013552Y011533D01*
X013557Y011526D01*
X013502Y011481D01*
X013449Y011434D01*
X013398Y011383D01*
X013351Y011330D01*
X013306Y011274D01*
X013265Y011216D01*
X013227Y011156D01*
X013192Y011094D01*
X013161Y011030D01*
X013134Y010964D01*
X013110Y010897D01*
X013090Y010828D01*
X013073Y010759D01*
X013061Y010689D01*
X013052Y010618D01*
X013048Y010547D01*
X013047Y010476D01*
X013051Y010405D01*
X013058Y010334D01*
X013069Y010263D01*
X013084Y010194D01*
X013103Y010125D01*
X013126Y010057D01*
X013152Y009991D01*
X013182Y009926D01*
X013216Y009864D01*
X013252Y009803D01*
X013293Y009744D01*
X013336Y009687D01*
X013383Y009633D01*
X013432Y009582D01*
X013485Y009534D01*
X013539Y009488D01*
X013597Y009446D01*
X013656Y009407D01*
X013718Y009371D01*
X013781Y009338D01*
X013846Y009310D01*
X013913Y009284D01*
X013981Y009263D01*
X014050Y009245D01*
X014120Y009232D01*
X014191Y009222D01*
X014262Y009216D01*
X014333Y009214D01*
X014404Y009216D01*
X014475Y009222D01*
X014546Y009232D01*
X014616Y009245D01*
X014685Y009263D01*
X014753Y009284D01*
X014820Y009310D01*
X014885Y009338D01*
X014948Y009371D01*
X015010Y009407D01*
X015069Y009446D01*
X015127Y009488D01*
X015181Y009534D01*
X015234Y009582D01*
X015283Y009633D01*
X015330Y009687D01*
X015373Y009744D01*
X015414Y009803D01*
X015450Y009864D01*
X015484Y009926D01*
X015514Y009991D01*
X015540Y010057D01*
X015563Y010125D01*
X015582Y010194D01*
X015597Y010263D01*
X015608Y010334D01*
X015615Y010405D01*
X015619Y010476D01*
X015618Y010547D01*
X015614Y010618D01*
X015605Y010689D01*
X015593Y010759D01*
X015576Y010828D01*
X015556Y010897D01*
X015532Y010964D01*
X015505Y011030D01*
X015474Y011094D01*
X015439Y011156D01*
X015401Y011216D01*
X015360Y011274D01*
X015315Y011330D01*
X015268Y011383D01*
X015217Y011434D01*
X015164Y011481D01*
X015109Y011526D01*
X015103Y011519D01*
X015158Y011474D01*
X015211Y011427D01*
X015261Y011377D01*
X015308Y011324D01*
X015352Y011269D01*
X015394Y011211D01*
X015431Y011152D01*
X015466Y011090D01*
X015497Y011026D01*
X015524Y010961D01*
X015548Y010894D01*
X015568Y010826D01*
X015584Y010757D01*
X015596Y010688D01*
X015605Y010617D01*
X015609Y010547D01*
X015610Y010476D01*
X015606Y010405D01*
X015599Y010335D01*
X015588Y010265D01*
X015573Y010196D01*
X015554Y010128D01*
X015532Y010060D01*
X015506Y009995D01*
X015476Y009930D01*
X015443Y009868D01*
X015406Y009808D01*
X015366Y009749D01*
X015323Y009693D01*
X015277Y009639D01*
X015227Y009589D01*
X015176Y009540D01*
X015121Y009495D01*
X015064Y009453D01*
X015005Y009414D01*
X014944Y009379D01*
X014881Y009346D01*
X014816Y009318D01*
X014750Y009293D01*
X014682Y009272D01*
X014614Y009254D01*
X014544Y009241D01*
X014474Y009231D01*
X014404Y009225D01*
X014333Y009223D01*
X014262Y009225D01*
X014192Y009231D01*
X014122Y009241D01*
X014052Y009254D01*
X013984Y009272D01*
X013916Y009293D01*
X013850Y009318D01*
X013785Y009346D01*
X013722Y009379D01*
X013661Y009414D01*
X013602Y009453D01*
X013545Y009495D01*
X013490Y009540D01*
X013439Y009589D01*
X013389Y009639D01*
X013343Y009693D01*
X013300Y009749D01*
X013260Y009808D01*
X013223Y009868D01*
X013190Y009930D01*
X013160Y009995D01*
X013134Y010060D01*
X013112Y010128D01*
X013093Y010196D01*
X013078Y010265D01*
X013067Y010335D01*
X013060Y010405D01*
X013056Y010476D01*
X013057Y010547D01*
X013061Y010617D01*
X013070Y010688D01*
X013082Y010757D01*
X013098Y010826D01*
X013118Y010894D01*
X013142Y010961D01*
X013169Y011026D01*
X013200Y011090D01*
X013235Y011152D01*
X013272Y011211D01*
X013314Y011269D01*
X013358Y011324D01*
X013405Y011377D01*
X013455Y011427D01*
X013508Y011474D01*
X013563Y011519D01*
X013568Y011511D01*
X013513Y011467D01*
X013460Y011419D01*
X013410Y011369D01*
X013362Y011316D01*
X013318Y011260D01*
X013277Y011202D01*
X013240Y011142D01*
X013205Y011080D01*
X013175Y011016D01*
X013148Y010950D01*
X013124Y010883D01*
X013105Y010815D01*
X013089Y010745D01*
X013077Y010675D01*
X013069Y010605D01*
X013065Y010534D01*
X013066Y010463D01*
X013070Y010392D01*
X013078Y010321D01*
X013090Y010251D01*
X013106Y010182D01*
X013125Y010114D01*
X013149Y010046D01*
X013176Y009981D01*
X013207Y009917D01*
X013241Y009855D01*
X013279Y009795D01*
X013321Y009737D01*
X013365Y009681D01*
X013412Y009628D01*
X013463Y009578D01*
X013516Y009531D01*
X013571Y009486D01*
X013629Y009445D01*
X013689Y009408D01*
X013752Y009373D01*
X013816Y009342D01*
X013881Y009315D01*
X013948Y009292D01*
X014017Y009272D01*
X014086Y009256D01*
X014156Y009244D01*
X014227Y009236D01*
X014297Y009232D01*
X014369Y009232D01*
X014439Y009236D01*
X014510Y009244D01*
X014580Y009256D01*
X014649Y009272D01*
X014718Y009292D01*
X014785Y009315D01*
X014850Y009342D01*
X014914Y009373D01*
X014977Y009408D01*
X015037Y009445D01*
X015095Y009486D01*
X015150Y009531D01*
X015203Y009578D01*
X015254Y009628D01*
X015301Y009681D01*
X015345Y009737D01*
X015387Y009795D01*
X015425Y009855D01*
X015459Y009917D01*
X015490Y009981D01*
X015517Y010046D01*
X015541Y010114D01*
X015560Y010182D01*
X015576Y010251D01*
X015588Y010321D01*
X015596Y010392D01*
X015600Y010463D01*
X015601Y010534D01*
X015597Y010605D01*
X015589Y010675D01*
X015577Y010745D01*
X015561Y010815D01*
X015542Y010883D01*
X015518Y010950D01*
X015491Y011016D01*
X015461Y011080D01*
X015426Y011142D01*
X015389Y011202D01*
X015348Y011260D01*
X015304Y011316D01*
X015256Y011369D01*
X015206Y011419D01*
X015153Y011467D01*
X015098Y011511D01*
X015092Y011504D01*
X015147Y011460D01*
X015200Y011413D01*
X015250Y011363D01*
X015297Y011310D01*
X015341Y011255D01*
X015381Y011197D01*
X015419Y011138D01*
X015453Y011076D01*
X015483Y011012D01*
X015510Y010947D01*
X015533Y010880D01*
X015553Y010812D01*
X015568Y010744D01*
X015580Y010674D01*
X015588Y010604D01*
X015592Y010533D01*
X015591Y010463D01*
X015587Y010392D01*
X015579Y010322D01*
X015567Y010253D01*
X015552Y010184D01*
X015532Y010116D01*
X015509Y010050D01*
X015482Y009985D01*
X015451Y009921D01*
X015417Y009859D01*
X015379Y009800D01*
X015338Y009742D01*
X015294Y009687D01*
X015247Y009634D01*
X015197Y009585D01*
X015145Y009538D01*
X015089Y009494D01*
X015032Y009453D01*
X014972Y009415D01*
X014910Y009381D01*
X014847Y009351D01*
X014782Y009324D01*
X014715Y009300D01*
X014647Y009281D01*
X014578Y009265D01*
X014509Y009253D01*
X014439Y009245D01*
X014368Y009241D01*
X014298Y009241D01*
X014227Y009245D01*
X014157Y009253D01*
X014088Y009265D01*
X014019Y009281D01*
X013951Y009300D01*
X013884Y009324D01*
X013819Y009351D01*
X013756Y009381D01*
X013694Y009415D01*
X013634Y009453D01*
X013577Y009494D01*
X013521Y009538D01*
X013469Y009585D01*
X013419Y009634D01*
X013372Y009687D01*
X013328Y009742D01*
X013287Y009800D01*
X013249Y009859D01*
X013215Y009921D01*
X013184Y009985D01*
X013157Y010050D01*
X013134Y010116D01*
X013114Y010184D01*
X013099Y010253D01*
X013087Y010322D01*
X013079Y010392D01*
X013075Y010463D01*
X013074Y010533D01*
X013078Y010604D01*
X013086Y010674D01*
X013098Y010744D01*
X013113Y010812D01*
X013133Y010880D01*
X013156Y010947D01*
X013183Y011012D01*
X013213Y011076D01*
X013247Y011138D01*
X013285Y011197D01*
X013325Y011255D01*
X013369Y011310D01*
X013416Y011363D01*
X013466Y011413D01*
X013519Y011460D01*
X013574Y011504D01*
X013579Y011497D01*
X013524Y011453D01*
X013472Y011406D01*
X013423Y011357D01*
X013376Y011304D01*
X013333Y011250D01*
X013292Y011192D01*
X013255Y011133D01*
X013221Y011072D01*
X013191Y011008D01*
X013164Y010944D01*
X013141Y010877D01*
X013122Y010810D01*
X013107Y010742D01*
X013095Y010673D01*
X013087Y010603D01*
X013083Y010533D01*
X013084Y010463D01*
X013088Y010393D01*
X013096Y010324D01*
X013107Y010255D01*
X013123Y010186D01*
X013142Y010119D01*
X013166Y010053D01*
X013193Y009988D01*
X013223Y009925D01*
X013257Y009864D01*
X013294Y009805D01*
X013335Y009747D01*
X013379Y009693D01*
X013425Y009641D01*
X013475Y009591D01*
X013527Y009544D01*
X013582Y009501D01*
X013639Y009460D01*
X013698Y009423D01*
X013760Y009389D01*
X013823Y009359D01*
X013888Y009332D01*
X013954Y009309D01*
X014021Y009290D01*
X014089Y009274D01*
X014158Y009262D01*
X014228Y009254D01*
X014298Y009250D01*
X014368Y009250D01*
X014438Y009254D01*
X014508Y009262D01*
X014577Y009274D01*
X014645Y009290D01*
X014712Y009309D01*
X014778Y009332D01*
X014843Y009359D01*
X014906Y009389D01*
X014968Y009423D01*
X015027Y009460D01*
X015084Y009501D01*
X015139Y009544D01*
X015191Y009591D01*
X015241Y009641D01*
X015287Y009693D01*
X015331Y009747D01*
X015372Y009805D01*
X015409Y009864D01*
X015443Y009925D01*
X015473Y009988D01*
X015500Y010053D01*
X015524Y010119D01*
X015543Y010186D01*
X015559Y010255D01*
X015570Y010324D01*
X015578Y010393D01*
X015582Y010463D01*
X015583Y010533D01*
X015579Y010603D01*
X015571Y010673D01*
X015559Y010742D01*
X015544Y010810D01*
X015525Y010877D01*
X015502Y010944D01*
X015475Y011008D01*
X015445Y011072D01*
X015411Y011133D01*
X015374Y011192D01*
X015333Y011250D01*
X015290Y011304D01*
X015243Y011357D01*
X015194Y011406D01*
X015142Y011453D01*
X015087Y011497D01*
X015082Y011490D01*
X015136Y011446D01*
X015188Y011400D01*
X015237Y011351D01*
X015283Y011299D01*
X015326Y011244D01*
X015366Y011187D01*
X015403Y011128D01*
X015437Y011067D01*
X015467Y011005D01*
X015493Y010940D01*
X015516Y010875D01*
X015535Y010808D01*
X015551Y010740D01*
X015562Y010671D01*
X015570Y010602D01*
X015574Y010533D01*
X015573Y010463D01*
X015569Y010394D01*
X015562Y010325D01*
X015550Y010256D01*
X015534Y010189D01*
X015515Y010122D01*
X015492Y010056D01*
X015465Y009992D01*
X015435Y009929D01*
X015401Y009868D01*
X015364Y009810D01*
X015324Y009753D01*
X015281Y009699D01*
X015234Y009647D01*
X015185Y009598D01*
X015133Y009551D01*
X015079Y009508D01*
X015022Y009468D01*
X014963Y009431D01*
X014902Y009397D01*
X014839Y009367D01*
X014775Y009340D01*
X014710Y009317D01*
X014643Y009298D01*
X014575Y009283D01*
X014506Y009271D01*
X014437Y009263D01*
X014368Y009259D01*
X014298Y009259D01*
X014229Y009263D01*
X014160Y009271D01*
X014091Y009283D01*
X014023Y009298D01*
X013956Y009317D01*
X013891Y009340D01*
X013827Y009367D01*
X013764Y009397D01*
X013703Y009431D01*
X013644Y009468D01*
X013587Y009508D01*
X013533Y009551D01*
X013481Y009598D01*
X013432Y009647D01*
X013385Y009699D01*
X013342Y009753D01*
X013302Y009810D01*
X013265Y009868D01*
X013231Y009929D01*
X013201Y009992D01*
X013174Y010056D01*
X013151Y010122D01*
X013132Y010189D01*
X013116Y010256D01*
X013104Y010325D01*
X013097Y010394D01*
X013093Y010463D01*
X013092Y010533D01*
X013096Y010602D01*
X013104Y010671D01*
X013115Y010740D01*
X013131Y010808D01*
X013150Y010875D01*
X013173Y010940D01*
X013199Y011005D01*
X013229Y011067D01*
X013263Y011128D01*
X013300Y011187D01*
X013340Y011244D01*
X013383Y011299D01*
X013429Y011351D01*
X013478Y011400D01*
X013530Y011446D01*
X013584Y011490D01*
X013590Y011483D01*
X013536Y011439D01*
X013485Y011393D01*
X013436Y011344D01*
X013390Y011293D01*
X013347Y011239D01*
X013307Y011182D01*
X013271Y011124D01*
X013237Y011063D01*
X013207Y011001D01*
X013181Y010937D01*
X013159Y010872D01*
X013140Y010806D01*
X013124Y010738D01*
X013113Y010670D01*
X013105Y010602D01*
X013101Y010533D01*
X013102Y010464D01*
X013106Y010395D01*
X013113Y010326D01*
X013125Y010258D01*
X013140Y010191D01*
X013160Y010124D01*
X013183Y010059D01*
X013209Y009996D01*
X013239Y009933D01*
X013272Y009873D01*
X013309Y009815D01*
X013349Y009758D01*
X013392Y009704D01*
X013438Y009653D01*
X013487Y009604D01*
X013539Y009558D01*
X013593Y009515D01*
X013649Y009475D01*
X013708Y009439D01*
X013768Y009405D01*
X013830Y009375D01*
X013894Y009349D01*
X013959Y009326D01*
X014026Y009307D01*
X014093Y009292D01*
X014161Y009280D01*
X014230Y009272D01*
X014298Y009268D01*
X014368Y009268D01*
X014436Y009272D01*
X014505Y009280D01*
X014573Y009292D01*
X014640Y009307D01*
X014707Y009326D01*
X014772Y009349D01*
X014836Y009375D01*
X014898Y009405D01*
X014958Y009439D01*
X015017Y009475D01*
X015073Y009515D01*
X015127Y009558D01*
X015179Y009604D01*
X015228Y009653D01*
X015274Y009704D01*
X015317Y009758D01*
X015357Y009815D01*
X015394Y009873D01*
X015427Y009933D01*
X015457Y009996D01*
X015483Y010059D01*
X015506Y010124D01*
X015526Y010191D01*
X015541Y010258D01*
X015553Y010326D01*
X015560Y010395D01*
X015564Y010464D01*
X015565Y010533D01*
X015561Y010602D01*
X015553Y010670D01*
X015542Y010738D01*
X015526Y010806D01*
X015507Y010872D01*
X015485Y010937D01*
X015459Y011001D01*
X015429Y011063D01*
X015395Y011124D01*
X015359Y011182D01*
X015319Y011239D01*
X015276Y011293D01*
X015230Y011344D01*
X015181Y011393D01*
X015130Y011439D01*
X015076Y011483D01*
X015071Y011475D01*
X015125Y011432D01*
X015176Y011386D01*
X015225Y011336D01*
X015271Y011285D01*
X015314Y011230D01*
X015354Y011173D01*
X015390Y011115D01*
X015424Y011054D01*
X015453Y010991D01*
X015479Y010927D01*
X015501Y010861D01*
X015520Y010794D01*
X015535Y010727D01*
X015546Y010658D01*
X015553Y010589D01*
X015556Y010520D01*
X015555Y010451D01*
X015550Y010381D01*
X015542Y010313D01*
X015529Y010245D01*
X015513Y010177D01*
X015492Y010111D01*
X015469Y010046D01*
X015441Y009982D01*
X015410Y009920D01*
X015375Y009860D01*
X015337Y009802D01*
X015296Y009746D01*
X015252Y009693D01*
X015205Y009642D01*
X015155Y009594D01*
X015102Y009549D01*
X015047Y009507D01*
X014990Y009468D01*
X014930Y009433D01*
X014869Y009401D01*
X014806Y009372D01*
X014741Y009347D01*
X014675Y009326D01*
X014608Y009308D01*
X014540Y009295D01*
X014471Y009285D01*
X014402Y009279D01*
X014333Y009277D01*
X014264Y009279D01*
X014195Y009285D01*
X014126Y009295D01*
X014058Y009308D01*
X013991Y009326D01*
X013925Y009347D01*
X013860Y009372D01*
X013797Y009401D01*
X013736Y009433D01*
X013676Y009468D01*
X013619Y009507D01*
X013564Y009549D01*
X013511Y009594D01*
X013461Y009642D01*
X013414Y009693D01*
X013370Y009746D01*
X013329Y009802D01*
X013291Y009860D01*
X013256Y009920D01*
X013225Y009982D01*
X013197Y010046D01*
X013174Y010111D01*
X013153Y010177D01*
X013137Y010245D01*
X013124Y010313D01*
X013116Y010381D01*
X013111Y010451D01*
X013110Y010520D01*
X013113Y010589D01*
X013120Y010658D01*
X013131Y010727D01*
X013146Y010794D01*
X013165Y010861D01*
X013187Y010927D01*
X013213Y010991D01*
X013242Y011054D01*
X013276Y011115D01*
X013312Y011173D01*
X013352Y011230D01*
X013395Y011285D01*
X013441Y011336D01*
X013490Y011386D01*
X013541Y011432D01*
X013595Y011475D01*
X013601Y011468D01*
X013547Y011425D01*
X013496Y011379D01*
X013447Y011330D01*
X013402Y011279D01*
X013359Y011225D01*
X013320Y011168D01*
X013283Y011110D01*
X013250Y011050D01*
X013221Y010987D01*
X013195Y010924D01*
X013173Y010858D01*
X013155Y010792D01*
X013140Y010725D01*
X013129Y010657D01*
X013122Y010588D01*
X013119Y010520D01*
X013120Y010451D01*
X013125Y010382D01*
X013133Y010314D01*
X013146Y010246D01*
X013162Y010180D01*
X013182Y010114D01*
X013206Y010049D01*
X013233Y009986D01*
X013264Y009925D01*
X013298Y009865D01*
X013336Y009807D01*
X013377Y009752D01*
X013421Y009699D01*
X013468Y009649D01*
X013517Y009601D01*
X013569Y009556D01*
X013624Y009514D01*
X013681Y009476D01*
X013740Y009441D01*
X013801Y009409D01*
X013864Y009380D01*
X013928Y009356D01*
X013994Y009334D01*
X014060Y009317D01*
X014128Y009304D01*
X014196Y009294D01*
X014264Y009288D01*
X014333Y009286D01*
X014402Y009288D01*
X014470Y009294D01*
X014538Y009304D01*
X014606Y009317D01*
X014672Y009334D01*
X014738Y009356D01*
X014802Y009380D01*
X014865Y009409D01*
X014926Y009441D01*
X014985Y009476D01*
X015042Y009514D01*
X015097Y009556D01*
X015149Y009601D01*
X015198Y009649D01*
X015245Y009699D01*
X015289Y009752D01*
X015330Y009807D01*
X015368Y009865D01*
X015402Y009925D01*
X015433Y009986D01*
X015460Y010049D01*
X015484Y010114D01*
X015504Y010180D01*
X015520Y010246D01*
X015533Y010314D01*
X015541Y010382D01*
X015546Y010451D01*
X015547Y010520D01*
X015544Y010588D01*
X015537Y010657D01*
X015526Y010725D01*
X015511Y010792D01*
X015493Y010858D01*
X015471Y010924D01*
X015445Y010987D01*
X015416Y011050D01*
X015383Y011110D01*
X015346Y011168D01*
X015307Y011225D01*
X015264Y011279D01*
X015219Y011330D01*
X015170Y011379D01*
X015119Y011425D01*
X015065Y011468D01*
X014561Y013005D02*
X014586Y013030D01*
X014586Y013055D01*
X014561Y013080D01*
X014486Y013080D01*
X014486Y013030D01*
X014511Y013005D01*
X014561Y013005D01*
X014486Y013080D02*
X014536Y013130D01*
X014586Y013155D01*
X014438Y013130D02*
X014438Y013080D01*
X014413Y013055D01*
X014338Y013055D01*
X014338Y013005D02*
X014338Y013155D01*
X014413Y013155D01*
X014438Y013130D01*
X014388Y013055D02*
X014438Y013005D01*
X013553Y015532D02*
X013607Y015460D01*
X013606Y015461D02*
X013553Y015418D01*
X013502Y015373D01*
X013454Y015324D01*
X013409Y015273D01*
X013366Y015219D01*
X013327Y015163D01*
X013291Y015105D01*
X013258Y015045D01*
X013229Y014984D01*
X013204Y014920D01*
X013182Y014856D01*
X013163Y014790D01*
X013149Y014723D01*
X013138Y014656D01*
X013131Y014588D01*
X013128Y014520D01*
X013129Y014451D01*
X013134Y014383D01*
X013142Y014315D01*
X013155Y014248D01*
X013171Y014182D01*
X013191Y014117D01*
X013214Y014052D01*
X013241Y013990D01*
X013272Y013929D01*
X013306Y013870D01*
X013343Y013812D01*
X013384Y013757D01*
X013428Y013705D01*
X013474Y013655D01*
X013523Y013608D01*
X013575Y013563D01*
X013629Y013522D01*
X013686Y013483D01*
X013745Y013448D01*
X013805Y013417D01*
X013867Y013389D01*
X013931Y013364D01*
X013996Y013343D01*
X014062Y013326D01*
X014129Y013312D01*
X014197Y013303D01*
X014265Y013297D01*
X014333Y013295D01*
X014401Y013297D01*
X014469Y013303D01*
X014537Y013312D01*
X014604Y013326D01*
X014670Y013343D01*
X014735Y013364D01*
X014799Y013389D01*
X014861Y013417D01*
X014921Y013448D01*
X014980Y013483D01*
X015037Y013522D01*
X015091Y013563D01*
X015143Y013608D01*
X015192Y013655D01*
X015238Y013705D01*
X015282Y013757D01*
X015323Y013812D01*
X015360Y013870D01*
X015394Y013929D01*
X015425Y013990D01*
X015452Y014052D01*
X015475Y014117D01*
X015495Y014182D01*
X015511Y014248D01*
X015524Y014315D01*
X015532Y014383D01*
X015537Y014451D01*
X015538Y014520D01*
X015535Y014588D01*
X015528Y014656D01*
X015517Y014723D01*
X015503Y014790D01*
X015484Y014856D01*
X015462Y014920D01*
X015437Y014984D01*
X015408Y015045D01*
X015375Y015105D01*
X015339Y015163D01*
X015300Y015219D01*
X015257Y015273D01*
X015212Y015324D01*
X015164Y015373D01*
X015113Y015418D01*
X015060Y015461D01*
X015113Y015532D01*
X015114Y015533D01*
X015169Y015489D01*
X015222Y015441D01*
X015273Y015391D01*
X015320Y015338D01*
X015364Y015283D01*
X015406Y015225D01*
X015444Y015165D01*
X015479Y015104D01*
X015510Y015040D01*
X015538Y014975D01*
X015562Y014908D01*
X015583Y014840D01*
X015599Y014771D01*
X015612Y014701D01*
X015621Y014631D01*
X015627Y014560D01*
X015628Y014489D01*
X015625Y014418D01*
X015619Y014347D01*
X015609Y014277D01*
X015595Y014208D01*
X015577Y014139D01*
X015555Y014071D01*
X015530Y014005D01*
X015501Y013940D01*
X015468Y013877D01*
X015432Y013816D01*
X015393Y013757D01*
X015351Y013700D01*
X015306Y013645D01*
X015257Y013593D01*
X015206Y013544D01*
X015153Y013497D01*
X015096Y013454D01*
X015038Y013414D01*
X014977Y013377D01*
X014915Y013343D01*
X014851Y013313D01*
X014785Y013286D01*
X014718Y013263D01*
X014649Y013244D01*
X014580Y013229D01*
X014510Y013217D01*
X014439Y013209D01*
X014368Y013205D01*
X014298Y013205D01*
X014227Y013209D01*
X014156Y013217D01*
X014086Y013229D01*
X014017Y013244D01*
X013948Y013263D01*
X013881Y013286D01*
X013815Y013313D01*
X013751Y013343D01*
X013689Y013377D01*
X013628Y013414D01*
X013570Y013454D01*
X013513Y013497D01*
X013460Y013544D01*
X013409Y013593D01*
X013360Y013645D01*
X013315Y013700D01*
X013273Y013757D01*
X013234Y013816D01*
X013198Y013877D01*
X013165Y013940D01*
X013136Y014005D01*
X013111Y014071D01*
X013089Y014139D01*
X013071Y014208D01*
X013057Y014277D01*
X013047Y014347D01*
X013041Y014418D01*
X013038Y014489D01*
X013039Y014560D01*
X013045Y014631D01*
X013054Y014701D01*
X013067Y014771D01*
X013083Y014840D01*
X013104Y014908D01*
X013128Y014975D01*
X013156Y015040D01*
X013187Y015104D01*
X013222Y015165D01*
X013260Y015225D01*
X013302Y015283D01*
X013346Y015338D01*
X013393Y015391D01*
X013444Y015441D01*
X013497Y015489D01*
X013552Y015533D01*
X013557Y015526D01*
X013502Y015481D01*
X013449Y015434D01*
X013398Y015383D01*
X013351Y015330D01*
X013306Y015274D01*
X013265Y015216D01*
X013227Y015156D01*
X013192Y015094D01*
X013161Y015030D01*
X013134Y014964D01*
X013110Y014897D01*
X013090Y014828D01*
X013073Y014759D01*
X013061Y014689D01*
X013052Y014618D01*
X013048Y014547D01*
X013047Y014476D01*
X013051Y014405D01*
X013058Y014334D01*
X013069Y014263D01*
X013084Y014194D01*
X013103Y014125D01*
X013126Y014057D01*
X013152Y013991D01*
X013182Y013926D01*
X013216Y013864D01*
X013252Y013803D01*
X013293Y013744D01*
X013336Y013687D01*
X013383Y013633D01*
X013432Y013582D01*
X013485Y013534D01*
X013539Y013488D01*
X013597Y013446D01*
X013656Y013407D01*
X013718Y013371D01*
X013781Y013338D01*
X013846Y013310D01*
X013913Y013284D01*
X013981Y013263D01*
X014050Y013245D01*
X014120Y013232D01*
X014191Y013222D01*
X014262Y013216D01*
X014333Y013214D01*
X014404Y013216D01*
X014475Y013222D01*
X014546Y013232D01*
X014616Y013245D01*
X014685Y013263D01*
X014753Y013284D01*
X014820Y013310D01*
X014885Y013338D01*
X014948Y013371D01*
X015010Y013407D01*
X015069Y013446D01*
X015127Y013488D01*
X015181Y013534D01*
X015234Y013582D01*
X015283Y013633D01*
X015330Y013687D01*
X015373Y013744D01*
X015414Y013803D01*
X015450Y013864D01*
X015484Y013926D01*
X015514Y013991D01*
X015540Y014057D01*
X015563Y014125D01*
X015582Y014194D01*
X015597Y014263D01*
X015608Y014334D01*
X015615Y014405D01*
X015619Y014476D01*
X015618Y014547D01*
X015614Y014618D01*
X015605Y014689D01*
X015593Y014759D01*
X015576Y014828D01*
X015556Y014897D01*
X015532Y014964D01*
X015505Y015030D01*
X015474Y015094D01*
X015439Y015156D01*
X015401Y015216D01*
X015360Y015274D01*
X015315Y015330D01*
X015268Y015383D01*
X015217Y015434D01*
X015164Y015481D01*
X015109Y015526D01*
X015103Y015519D01*
X015158Y015474D01*
X015211Y015427D01*
X015261Y015377D01*
X015308Y015324D01*
X015352Y015269D01*
X015394Y015211D01*
X015431Y015152D01*
X015466Y015090D01*
X015497Y015026D01*
X015524Y014961D01*
X015548Y014894D01*
X015568Y014826D01*
X015584Y014757D01*
X015596Y014688D01*
X015605Y014617D01*
X015609Y014547D01*
X015610Y014476D01*
X015606Y014405D01*
X015599Y014335D01*
X015588Y014265D01*
X015573Y014196D01*
X015554Y014128D01*
X015532Y014060D01*
X015506Y013995D01*
X015476Y013930D01*
X015443Y013868D01*
X015406Y013808D01*
X015366Y013749D01*
X015323Y013693D01*
X015277Y013639D01*
X015227Y013589D01*
X015176Y013540D01*
X015121Y013495D01*
X015064Y013453D01*
X015005Y013414D01*
X014944Y013379D01*
X014881Y013346D01*
X014816Y013318D01*
X014750Y013293D01*
X014682Y013272D01*
X014614Y013254D01*
X014544Y013241D01*
X014474Y013231D01*
X014404Y013225D01*
X014333Y013223D01*
X014262Y013225D01*
X014192Y013231D01*
X014122Y013241D01*
X014052Y013254D01*
X013984Y013272D01*
X013916Y013293D01*
X013850Y013318D01*
X013785Y013346D01*
X013722Y013379D01*
X013661Y013414D01*
X013602Y013453D01*
X013545Y013495D01*
X013490Y013540D01*
X013439Y013589D01*
X013389Y013639D01*
X013343Y013693D01*
X013300Y013749D01*
X013260Y013808D01*
X013223Y013868D01*
X013190Y013930D01*
X013160Y013995D01*
X013134Y014060D01*
X013112Y014128D01*
X013093Y014196D01*
X013078Y014265D01*
X013067Y014335D01*
X013060Y014405D01*
X013056Y014476D01*
X013057Y014547D01*
X013061Y014617D01*
X013070Y014688D01*
X013082Y014757D01*
X013098Y014826D01*
X013118Y014894D01*
X013142Y014961D01*
X013169Y015026D01*
X013200Y015090D01*
X013235Y015152D01*
X013272Y015211D01*
X013314Y015269D01*
X013358Y015324D01*
X013405Y015377D01*
X013455Y015427D01*
X013508Y015474D01*
X013563Y015519D01*
X013568Y015511D01*
X013513Y015467D01*
X013460Y015419D01*
X013410Y015369D01*
X013362Y015316D01*
X013318Y015260D01*
X013277Y015202D01*
X013240Y015142D01*
X013205Y015080D01*
X013175Y015016D01*
X013148Y014950D01*
X013124Y014883D01*
X013105Y014815D01*
X013089Y014745D01*
X013077Y014675D01*
X013069Y014605D01*
X013065Y014534D01*
X013066Y014463D01*
X013070Y014392D01*
X013078Y014321D01*
X013090Y014251D01*
X013106Y014182D01*
X013125Y014114D01*
X013149Y014046D01*
X013176Y013981D01*
X013207Y013917D01*
X013241Y013855D01*
X013279Y013795D01*
X013321Y013737D01*
X013365Y013681D01*
X013412Y013628D01*
X013463Y013578D01*
X013516Y013531D01*
X013571Y013486D01*
X013629Y013445D01*
X013689Y013408D01*
X013752Y013373D01*
X013816Y013342D01*
X013881Y013315D01*
X013948Y013292D01*
X014017Y013272D01*
X014086Y013256D01*
X014156Y013244D01*
X014227Y013236D01*
X014297Y013232D01*
X014369Y013232D01*
X014439Y013236D01*
X014510Y013244D01*
X014580Y013256D01*
X014649Y013272D01*
X014718Y013292D01*
X014785Y013315D01*
X014850Y013342D01*
X014914Y013373D01*
X014977Y013408D01*
X015037Y013445D01*
X015095Y013486D01*
X015150Y013531D01*
X015203Y013578D01*
X015254Y013628D01*
X015301Y013681D01*
X015345Y013737D01*
X015387Y013795D01*
X015425Y013855D01*
X015459Y013917D01*
X015490Y013981D01*
X015517Y014046D01*
X015541Y014114D01*
X015560Y014182D01*
X015576Y014251D01*
X015588Y014321D01*
X015596Y014392D01*
X015600Y014463D01*
X015601Y014534D01*
X015597Y014605D01*
X015589Y014675D01*
X015577Y014745D01*
X015561Y014815D01*
X015542Y014883D01*
X015518Y014950D01*
X015491Y015016D01*
X015461Y015080D01*
X015426Y015142D01*
X015389Y015202D01*
X015348Y015260D01*
X015304Y015316D01*
X015256Y015369D01*
X015206Y015419D01*
X015153Y015467D01*
X015098Y015511D01*
X015092Y015504D01*
X015147Y015460D01*
X015200Y015413D01*
X015250Y015363D01*
X015297Y015310D01*
X015341Y015255D01*
X015381Y015197D01*
X015419Y015138D01*
X015453Y015076D01*
X015483Y015012D01*
X015510Y014947D01*
X015533Y014880D01*
X015553Y014812D01*
X015568Y014744D01*
X015580Y014674D01*
X015588Y014604D01*
X015592Y014533D01*
X015591Y014463D01*
X015587Y014392D01*
X015579Y014322D01*
X015567Y014253D01*
X015552Y014184D01*
X015532Y014116D01*
X015509Y014050D01*
X015482Y013985D01*
X015451Y013921D01*
X015417Y013859D01*
X015379Y013800D01*
X015338Y013742D01*
X015294Y013687D01*
X015247Y013634D01*
X015197Y013585D01*
X015145Y013538D01*
X015089Y013494D01*
X015032Y013453D01*
X014972Y013415D01*
X014910Y013381D01*
X014847Y013351D01*
X014782Y013324D01*
X014715Y013300D01*
X014647Y013281D01*
X014578Y013265D01*
X014509Y013253D01*
X014439Y013245D01*
X014368Y013241D01*
X014298Y013241D01*
X014227Y013245D01*
X014157Y013253D01*
X014088Y013265D01*
X014019Y013281D01*
X013951Y013300D01*
X013884Y013324D01*
X013819Y013351D01*
X013756Y013381D01*
X013694Y013415D01*
X013634Y013453D01*
X013577Y013494D01*
X013521Y013538D01*
X013469Y013585D01*
X013419Y013634D01*
X013372Y013687D01*
X013328Y013742D01*
X013287Y013800D01*
X013249Y013859D01*
X013215Y013921D01*
X013184Y013985D01*
X013157Y014050D01*
X013134Y014116D01*
X013114Y014184D01*
X013099Y014253D01*
X013087Y014322D01*
X013079Y014392D01*
X013075Y014463D01*
X013074Y014533D01*
X013078Y014604D01*
X013086Y014674D01*
X013098Y014744D01*
X013113Y014812D01*
X013133Y014880D01*
X013156Y014947D01*
X013183Y015012D01*
X013213Y015076D01*
X013247Y015138D01*
X013285Y015197D01*
X013325Y015255D01*
X013369Y015310D01*
X013416Y015363D01*
X013466Y015413D01*
X013519Y015460D01*
X013574Y015504D01*
X013579Y015497D01*
X013524Y015453D01*
X013472Y015406D01*
X013423Y015357D01*
X013376Y015304D01*
X013333Y015250D01*
X013292Y015192D01*
X013255Y015133D01*
X013221Y015072D01*
X013191Y015008D01*
X013164Y014944D01*
X013141Y014877D01*
X013122Y014810D01*
X013107Y014742D01*
X013095Y014673D01*
X013087Y014603D01*
X013083Y014533D01*
X013084Y014463D01*
X013088Y014393D01*
X013096Y014324D01*
X013107Y014255D01*
X013123Y014186D01*
X013142Y014119D01*
X013166Y014053D01*
X013193Y013988D01*
X013223Y013925D01*
X013257Y013864D01*
X013294Y013805D01*
X013335Y013747D01*
X013379Y013693D01*
X013425Y013641D01*
X013475Y013591D01*
X013527Y013544D01*
X013582Y013501D01*
X013639Y013460D01*
X013698Y013423D01*
X013760Y013389D01*
X013823Y013359D01*
X013888Y013332D01*
X013954Y013309D01*
X014021Y013290D01*
X014089Y013274D01*
X014158Y013262D01*
X014228Y013254D01*
X014298Y013250D01*
X014368Y013250D01*
X014438Y013254D01*
X014508Y013262D01*
X014577Y013274D01*
X014645Y013290D01*
X014712Y013309D01*
X014778Y013332D01*
X014843Y013359D01*
X014906Y013389D01*
X014968Y013423D01*
X015027Y013460D01*
X015084Y013501D01*
X015139Y013544D01*
X015191Y013591D01*
X015241Y013641D01*
X015287Y013693D01*
X015331Y013747D01*
X015372Y013805D01*
X015409Y013864D01*
X015443Y013925D01*
X015473Y013988D01*
X015500Y014053D01*
X015524Y014119D01*
X015543Y014186D01*
X015559Y014255D01*
X015570Y014324D01*
X015578Y014393D01*
X015582Y014463D01*
X015583Y014533D01*
X015579Y014603D01*
X015571Y014673D01*
X015559Y014742D01*
X015544Y014810D01*
X015525Y014877D01*
X015502Y014944D01*
X015475Y015008D01*
X015445Y015072D01*
X015411Y015133D01*
X015374Y015192D01*
X015333Y015250D01*
X015290Y015304D01*
X015243Y015357D01*
X015194Y015406D01*
X015142Y015453D01*
X015087Y015497D01*
X015082Y015490D01*
X015136Y015446D01*
X015188Y015400D01*
X015237Y015351D01*
X015283Y015299D01*
X015326Y015244D01*
X015366Y015187D01*
X015403Y015128D01*
X015437Y015067D01*
X015467Y015005D01*
X015493Y014940D01*
X015516Y014875D01*
X015535Y014808D01*
X015551Y014740D01*
X015562Y014671D01*
X015570Y014602D01*
X015574Y014533D01*
X015573Y014463D01*
X015569Y014394D01*
X015562Y014325D01*
X015550Y014256D01*
X015534Y014189D01*
X015515Y014122D01*
X015492Y014056D01*
X015465Y013992D01*
X015435Y013929D01*
X015401Y013868D01*
X015364Y013810D01*
X015324Y013753D01*
X015281Y013699D01*
X015234Y013647D01*
X015185Y013598D01*
X015133Y013551D01*
X015079Y013508D01*
X015022Y013468D01*
X014963Y013431D01*
X014902Y013397D01*
X014839Y013367D01*
X014775Y013340D01*
X014710Y013317D01*
X014643Y013298D01*
X014575Y013283D01*
X014506Y013271D01*
X014437Y013263D01*
X014368Y013259D01*
X014298Y013259D01*
X014229Y013263D01*
X014160Y013271D01*
X014091Y013283D01*
X014023Y013298D01*
X013956Y013317D01*
X013891Y013340D01*
X013827Y013367D01*
X013764Y013397D01*
X013703Y013431D01*
X013644Y013468D01*
X013587Y013508D01*
X013533Y013551D01*
X013481Y013598D01*
X013432Y013647D01*
X013385Y013699D01*
X013342Y013753D01*
X013302Y013810D01*
X013265Y013868D01*
X013231Y013929D01*
X013201Y013992D01*
X013174Y014056D01*
X013151Y014122D01*
X013132Y014189D01*
X013116Y014256D01*
X013104Y014325D01*
X013097Y014394D01*
X013093Y014463D01*
X013092Y014533D01*
X013096Y014602D01*
X013104Y014671D01*
X013115Y014740D01*
X013131Y014808D01*
X013150Y014875D01*
X013173Y014940D01*
X013199Y015005D01*
X013229Y015067D01*
X013263Y015128D01*
X013300Y015187D01*
X013340Y015244D01*
X013383Y015299D01*
X013429Y015351D01*
X013478Y015400D01*
X013530Y015446D01*
X013584Y015490D01*
X013590Y015483D01*
X013536Y015439D01*
X013485Y015393D01*
X013436Y015344D01*
X013390Y015293D01*
X013347Y015239D01*
X013307Y015182D01*
X013271Y015124D01*
X013237Y015063D01*
X013207Y015001D01*
X013181Y014937D01*
X013159Y014872D01*
X013140Y014806D01*
X013124Y014738D01*
X013113Y014670D01*
X013105Y014602D01*
X013101Y014533D01*
X013102Y014464D01*
X013106Y014395D01*
X013113Y014326D01*
X013125Y014258D01*
X013140Y014191D01*
X013160Y014124D01*
X013183Y014059D01*
X013209Y013996D01*
X013239Y013933D01*
X013272Y013873D01*
X013309Y013815D01*
X013349Y013758D01*
X013392Y013704D01*
X013438Y013653D01*
X013487Y013604D01*
X013539Y013558D01*
X013593Y013515D01*
X013649Y013475D01*
X013708Y013439D01*
X013768Y013405D01*
X013830Y013375D01*
X013894Y013349D01*
X013959Y013326D01*
X014026Y013307D01*
X014093Y013292D01*
X014161Y013280D01*
X014230Y013272D01*
X014298Y013268D01*
X014368Y013268D01*
X014436Y013272D01*
X014505Y013280D01*
X014573Y013292D01*
X014640Y013307D01*
X014707Y013326D01*
X014772Y013349D01*
X014836Y013375D01*
X014898Y013405D01*
X014958Y013439D01*
X015017Y013475D01*
X015073Y013515D01*
X015127Y013558D01*
X015179Y013604D01*
X015228Y013653D01*
X015274Y013704D01*
X015317Y013758D01*
X015357Y013815D01*
X015394Y013873D01*
X015427Y013933D01*
X015457Y013996D01*
X015483Y014059D01*
X015506Y014124D01*
X015526Y014191D01*
X015541Y014258D01*
X015553Y014326D01*
X015560Y014395D01*
X015564Y014464D01*
X015565Y014533D01*
X015561Y014602D01*
X015553Y014670D01*
X015542Y014738D01*
X015526Y014806D01*
X015507Y014872D01*
X015485Y014937D01*
X015459Y015001D01*
X015429Y015063D01*
X015395Y015124D01*
X015359Y015182D01*
X015319Y015239D01*
X015276Y015293D01*
X015230Y015344D01*
X015181Y015393D01*
X015130Y015439D01*
X015076Y015483D01*
X015071Y015475D01*
X015125Y015432D01*
X015176Y015386D01*
X015225Y015336D01*
X015271Y015285D01*
X015314Y015230D01*
X015354Y015173D01*
X015390Y015115D01*
X015424Y015054D01*
X015453Y014991D01*
X015479Y014927D01*
X015501Y014861D01*
X015520Y014794D01*
X015535Y014727D01*
X015546Y014658D01*
X015553Y014589D01*
X015556Y014520D01*
X015555Y014451D01*
X015550Y014381D01*
X015542Y014313D01*
X015529Y014245D01*
X015513Y014177D01*
X015492Y014111D01*
X015469Y014046D01*
X015441Y013982D01*
X015410Y013920D01*
X015375Y013860D01*
X015337Y013802D01*
X015296Y013746D01*
X015252Y013693D01*
X015205Y013642D01*
X015155Y013594D01*
X015102Y013549D01*
X015047Y013507D01*
X014990Y013468D01*
X014930Y013433D01*
X014869Y013401D01*
X014806Y013372D01*
X014741Y013347D01*
X014675Y013326D01*
X014608Y013308D01*
X014540Y013295D01*
X014471Y013285D01*
X014402Y013279D01*
X014333Y013277D01*
X014264Y013279D01*
X014195Y013285D01*
X014126Y013295D01*
X014058Y013308D01*
X013991Y013326D01*
X013925Y013347D01*
X013860Y013372D01*
X013797Y013401D01*
X013736Y013433D01*
X013676Y013468D01*
X013619Y013507D01*
X013564Y013549D01*
X013511Y013594D01*
X013461Y013642D01*
X013414Y013693D01*
X013370Y013746D01*
X013329Y013802D01*
X013291Y013860D01*
X013256Y013920D01*
X013225Y013982D01*
X013197Y014046D01*
X013174Y014111D01*
X013153Y014177D01*
X013137Y014245D01*
X013124Y014313D01*
X013116Y014381D01*
X013111Y014451D01*
X013110Y014520D01*
X013113Y014589D01*
X013120Y014658D01*
X013131Y014727D01*
X013146Y014794D01*
X013165Y014861D01*
X013187Y014927D01*
X013213Y014991D01*
X013242Y015054D01*
X013276Y015115D01*
X013312Y015173D01*
X013352Y015230D01*
X013395Y015285D01*
X013441Y015336D01*
X013490Y015386D01*
X013541Y015432D01*
X013595Y015475D01*
X013601Y015468D01*
X013547Y015425D01*
X013496Y015379D01*
X013447Y015330D01*
X013402Y015279D01*
X013359Y015225D01*
X013320Y015168D01*
X013283Y015110D01*
X013250Y015050D01*
X013221Y014987D01*
X013195Y014924D01*
X013173Y014858D01*
X013155Y014792D01*
X013140Y014725D01*
X013129Y014657D01*
X013122Y014588D01*
X013119Y014520D01*
X013120Y014451D01*
X013125Y014382D01*
X013133Y014314D01*
X013146Y014246D01*
X013162Y014180D01*
X013182Y014114D01*
X013206Y014049D01*
X013233Y013986D01*
X013264Y013925D01*
X013298Y013865D01*
X013336Y013807D01*
X013377Y013752D01*
X013421Y013699D01*
X013468Y013649D01*
X013517Y013601D01*
X013569Y013556D01*
X013624Y013514D01*
X013681Y013476D01*
X013740Y013441D01*
X013801Y013409D01*
X013864Y013380D01*
X013928Y013356D01*
X013994Y013334D01*
X014060Y013317D01*
X014128Y013304D01*
X014196Y013294D01*
X014264Y013288D01*
X014333Y013286D01*
X014402Y013288D01*
X014470Y013294D01*
X014538Y013304D01*
X014606Y013317D01*
X014672Y013334D01*
X014738Y013356D01*
X014802Y013380D01*
X014865Y013409D01*
X014926Y013441D01*
X014985Y013476D01*
X015042Y013514D01*
X015097Y013556D01*
X015149Y013601D01*
X015198Y013649D01*
X015245Y013699D01*
X015289Y013752D01*
X015330Y013807D01*
X015368Y013865D01*
X015402Y013925D01*
X015433Y013986D01*
X015460Y014049D01*
X015484Y014114D01*
X015504Y014180D01*
X015520Y014246D01*
X015533Y014314D01*
X015541Y014382D01*
X015546Y014451D01*
X015547Y014520D01*
X015544Y014588D01*
X015537Y014657D01*
X015526Y014725D01*
X015511Y014792D01*
X015493Y014858D01*
X015471Y014924D01*
X015445Y014987D01*
X015416Y015050D01*
X015383Y015110D01*
X015346Y015168D01*
X015307Y015225D01*
X015264Y015279D01*
X015219Y015330D01*
X015170Y015379D01*
X015119Y015425D01*
X015065Y015468D01*
X014486Y017005D02*
X014486Y017030D01*
X014586Y017130D01*
X014586Y017155D01*
X014486Y017155D01*
X014438Y017130D02*
X014438Y017080D01*
X014413Y017055D01*
X014338Y017055D01*
X014338Y017005D02*
X014338Y017155D01*
X014413Y017155D01*
X014438Y017130D01*
X014388Y017055D02*
X014438Y017005D01*
X013553Y019532D02*
X013607Y019460D01*
X013606Y019461D02*
X013553Y019418D01*
X013502Y019373D01*
X013454Y019324D01*
X013409Y019273D01*
X013366Y019219D01*
X013327Y019163D01*
X013291Y019105D01*
X013258Y019045D01*
X013229Y018984D01*
X013204Y018920D01*
X013182Y018856D01*
X013163Y018790D01*
X013149Y018723D01*
X013138Y018656D01*
X013131Y018588D01*
X013128Y018520D01*
X013129Y018451D01*
X013134Y018383D01*
X013142Y018315D01*
X013155Y018248D01*
X013171Y018182D01*
X013191Y018117D01*
X013214Y018052D01*
X013241Y017990D01*
X013272Y017929D01*
X013306Y017870D01*
X013343Y017812D01*
X013384Y017757D01*
X013428Y017705D01*
X013474Y017655D01*
X013523Y017608D01*
X013575Y017563D01*
X013629Y017522D01*
X013686Y017483D01*
X013745Y017448D01*
X013805Y017417D01*
X013867Y017389D01*
X013931Y017364D01*
X013996Y017343D01*
X014062Y017326D01*
X014129Y017312D01*
X014197Y017303D01*
X014265Y017297D01*
X014333Y017295D01*
X014401Y017297D01*
X014469Y017303D01*
X014537Y017312D01*
X014604Y017326D01*
X014670Y017343D01*
X014735Y017364D01*
X014799Y017389D01*
X014861Y017417D01*
X014921Y017448D01*
X014980Y017483D01*
X015037Y017522D01*
X015091Y017563D01*
X015143Y017608D01*
X015192Y017655D01*
X015238Y017705D01*
X015282Y017757D01*
X015323Y017812D01*
X015360Y017870D01*
X015394Y017929D01*
X015425Y017990D01*
X015452Y018052D01*
X015475Y018117D01*
X015495Y018182D01*
X015511Y018248D01*
X015524Y018315D01*
X015532Y018383D01*
X015537Y018451D01*
X015538Y018520D01*
X015535Y018588D01*
X015528Y018656D01*
X015517Y018723D01*
X015503Y018790D01*
X015484Y018856D01*
X015462Y018920D01*
X015437Y018984D01*
X015408Y019045D01*
X015375Y019105D01*
X015339Y019163D01*
X015300Y019219D01*
X015257Y019273D01*
X015212Y019324D01*
X015164Y019373D01*
X015113Y019418D01*
X015060Y019461D01*
X015113Y019532D01*
X015114Y019533D01*
X015169Y019489D01*
X015222Y019441D01*
X015273Y019391D01*
X015320Y019338D01*
X015364Y019283D01*
X015406Y019225D01*
X015444Y019165D01*
X015479Y019104D01*
X015510Y019040D01*
X015538Y018975D01*
X015562Y018908D01*
X015583Y018840D01*
X015599Y018771D01*
X015612Y018701D01*
X015621Y018631D01*
X015627Y018560D01*
X015628Y018489D01*
X015625Y018418D01*
X015619Y018347D01*
X015609Y018277D01*
X015595Y018208D01*
X015577Y018139D01*
X015555Y018071D01*
X015530Y018005D01*
X015501Y017940D01*
X015468Y017877D01*
X015432Y017816D01*
X015393Y017757D01*
X015351Y017700D01*
X015306Y017645D01*
X015257Y017593D01*
X015206Y017544D01*
X015153Y017497D01*
X015096Y017454D01*
X015038Y017414D01*
X014977Y017377D01*
X014915Y017343D01*
X014851Y017313D01*
X014785Y017286D01*
X014718Y017263D01*
X014649Y017244D01*
X014580Y017229D01*
X014510Y017217D01*
X014439Y017209D01*
X014368Y017205D01*
X014298Y017205D01*
X014227Y017209D01*
X014156Y017217D01*
X014086Y017229D01*
X014017Y017244D01*
X013948Y017263D01*
X013881Y017286D01*
X013815Y017313D01*
X013751Y017343D01*
X013689Y017377D01*
X013628Y017414D01*
X013570Y017454D01*
X013513Y017497D01*
X013460Y017544D01*
X013409Y017593D01*
X013360Y017645D01*
X013315Y017700D01*
X013273Y017757D01*
X013234Y017816D01*
X013198Y017877D01*
X013165Y017940D01*
X013136Y018005D01*
X013111Y018071D01*
X013089Y018139D01*
X013071Y018208D01*
X013057Y018277D01*
X013047Y018347D01*
X013041Y018418D01*
X013038Y018489D01*
X013039Y018560D01*
X013045Y018631D01*
X013054Y018701D01*
X013067Y018771D01*
X013083Y018840D01*
X013104Y018908D01*
X013128Y018975D01*
X013156Y019040D01*
X013187Y019104D01*
X013222Y019165D01*
X013260Y019225D01*
X013302Y019283D01*
X013346Y019338D01*
X013393Y019391D01*
X013444Y019441D01*
X013497Y019489D01*
X013552Y019533D01*
X013557Y019526D01*
X013502Y019481D01*
X013449Y019434D01*
X013398Y019383D01*
X013351Y019330D01*
X013306Y019274D01*
X013265Y019216D01*
X013227Y019156D01*
X013192Y019094D01*
X013161Y019030D01*
X013134Y018964D01*
X013110Y018897D01*
X013090Y018828D01*
X013073Y018759D01*
X013061Y018689D01*
X013052Y018618D01*
X013048Y018547D01*
X013047Y018476D01*
X013051Y018405D01*
X013058Y018334D01*
X013069Y018263D01*
X013084Y018194D01*
X013103Y018125D01*
X013126Y018057D01*
X013152Y017991D01*
X013182Y017926D01*
X013216Y017864D01*
X013252Y017803D01*
X013293Y017744D01*
X013336Y017687D01*
X013383Y017633D01*
X013432Y017582D01*
X013485Y017534D01*
X013539Y017488D01*
X013597Y017446D01*
X013656Y017407D01*
X013718Y017371D01*
X013781Y017338D01*
X013846Y017310D01*
X013913Y017284D01*
X013981Y017263D01*
X014050Y017245D01*
X014120Y017232D01*
X014191Y017222D01*
X014262Y017216D01*
X014333Y017214D01*
X014404Y017216D01*
X014475Y017222D01*
X014546Y017232D01*
X014616Y017245D01*
X014685Y017263D01*
X014753Y017284D01*
X014820Y017310D01*
X014885Y017338D01*
X014948Y017371D01*
X015010Y017407D01*
X015069Y017446D01*
X015127Y017488D01*
X015181Y017534D01*
X015234Y017582D01*
X015283Y017633D01*
X015330Y017687D01*
X015373Y017744D01*
X015414Y017803D01*
X015450Y017864D01*
X015484Y017926D01*
X015514Y017991D01*
X015540Y018057D01*
X015563Y018125D01*
X015582Y018194D01*
X015597Y018263D01*
X015608Y018334D01*
X015615Y018405D01*
X015619Y018476D01*
X015618Y018547D01*
X015614Y018618D01*
X015605Y018689D01*
X015593Y018759D01*
X015576Y018828D01*
X015556Y018897D01*
X015532Y018964D01*
X015505Y019030D01*
X015474Y019094D01*
X015439Y019156D01*
X015401Y019216D01*
X015360Y019274D01*
X015315Y019330D01*
X015268Y019383D01*
X015217Y019434D01*
X015164Y019481D01*
X015109Y019526D01*
X015103Y019519D01*
X015158Y019474D01*
X015211Y019427D01*
X015261Y019377D01*
X015308Y019324D01*
X015352Y019269D01*
X015394Y019211D01*
X015431Y019152D01*
X015466Y019090D01*
X015497Y019026D01*
X015524Y018961D01*
X015548Y018894D01*
X015568Y018826D01*
X015584Y018757D01*
X015596Y018688D01*
X015605Y018617D01*
X015609Y018547D01*
X015610Y018476D01*
X015606Y018405D01*
X015599Y018335D01*
X015588Y018265D01*
X015573Y018196D01*
X015554Y018128D01*
X015532Y018060D01*
X015506Y017995D01*
X015476Y017930D01*
X015443Y017868D01*
X015406Y017808D01*
X015366Y017749D01*
X015323Y017693D01*
X015277Y017639D01*
X015227Y017589D01*
X015176Y017540D01*
X015121Y017495D01*
X015064Y017453D01*
X015005Y017414D01*
X014944Y017379D01*
X014881Y017346D01*
X014816Y017318D01*
X014750Y017293D01*
X014682Y017272D01*
X014614Y017254D01*
X014544Y017241D01*
X014474Y017231D01*
X014404Y017225D01*
X014333Y017223D01*
X014262Y017225D01*
X014192Y017231D01*
X014122Y017241D01*
X014052Y017254D01*
X013984Y017272D01*
X013916Y017293D01*
X013850Y017318D01*
X013785Y017346D01*
X013722Y017379D01*
X013661Y017414D01*
X013602Y017453D01*
X013545Y017495D01*
X013490Y017540D01*
X013439Y017589D01*
X013389Y017639D01*
X013343Y017693D01*
X013300Y017749D01*
X013260Y017808D01*
X013223Y017868D01*
X013190Y017930D01*
X013160Y017995D01*
X013134Y018060D01*
X013112Y018128D01*
X013093Y018196D01*
X013078Y018265D01*
X013067Y018335D01*
X013060Y018405D01*
X013056Y018476D01*
X013057Y018547D01*
X013061Y018617D01*
X013070Y018688D01*
X013082Y018757D01*
X013098Y018826D01*
X013118Y018894D01*
X013142Y018961D01*
X013169Y019026D01*
X013200Y019090D01*
X013235Y019152D01*
X013272Y019211D01*
X013314Y019269D01*
X013358Y019324D01*
X013405Y019377D01*
X013455Y019427D01*
X013508Y019474D01*
X013563Y019519D01*
X013568Y019511D01*
X013513Y019467D01*
X013460Y019419D01*
X013410Y019369D01*
X013362Y019316D01*
X013318Y019260D01*
X013277Y019202D01*
X013240Y019142D01*
X013205Y019080D01*
X013175Y019016D01*
X013148Y018950D01*
X013124Y018883D01*
X013105Y018815D01*
X013089Y018745D01*
X013077Y018675D01*
X013069Y018605D01*
X013065Y018534D01*
X013066Y018463D01*
X013070Y018392D01*
X013078Y018321D01*
X013090Y018251D01*
X013106Y018182D01*
X013125Y018114D01*
X013149Y018046D01*
X013176Y017981D01*
X013207Y017917D01*
X013241Y017855D01*
X013279Y017795D01*
X013321Y017737D01*
X013365Y017681D01*
X013412Y017628D01*
X013463Y017578D01*
X013516Y017531D01*
X013571Y017486D01*
X013629Y017445D01*
X013689Y017408D01*
X013752Y017373D01*
X013816Y017342D01*
X013881Y017315D01*
X013948Y017292D01*
X014017Y017272D01*
X014086Y017256D01*
X014156Y017244D01*
X014227Y017236D01*
X014297Y017232D01*
X014369Y017232D01*
X014439Y017236D01*
X014510Y017244D01*
X014580Y017256D01*
X014649Y017272D01*
X014718Y017292D01*
X014785Y017315D01*
X014850Y017342D01*
X014914Y017373D01*
X014977Y017408D01*
X015037Y017445D01*
X015095Y017486D01*
X015150Y017531D01*
X015203Y017578D01*
X015254Y017628D01*
X015301Y017681D01*
X015345Y017737D01*
X015387Y017795D01*
X015425Y017855D01*
X015459Y017917D01*
X015490Y017981D01*
X015517Y018046D01*
X015541Y018114D01*
X015560Y018182D01*
X015576Y018251D01*
X015588Y018321D01*
X015596Y018392D01*
X015600Y018463D01*
X015601Y018534D01*
X015597Y018605D01*
X015589Y018675D01*
X015577Y018745D01*
X015561Y018815D01*
X015542Y018883D01*
X015518Y018950D01*
X015491Y019016D01*
X015461Y019080D01*
X015426Y019142D01*
X015389Y019202D01*
X015348Y019260D01*
X015304Y019316D01*
X015256Y019369D01*
X015206Y019419D01*
X015153Y019467D01*
X015098Y019511D01*
X015092Y019504D01*
X015147Y019460D01*
X015200Y019413D01*
X015250Y019363D01*
X015297Y019310D01*
X015341Y019255D01*
X015381Y019197D01*
X015419Y019138D01*
X015453Y019076D01*
X015483Y019012D01*
X015510Y018947D01*
X015533Y018880D01*
X015553Y018812D01*
X015568Y018744D01*
X015580Y018674D01*
X015588Y018604D01*
X015592Y018533D01*
X015591Y018463D01*
X015587Y018392D01*
X015579Y018322D01*
X015567Y018253D01*
X015552Y018184D01*
X015532Y018116D01*
X015509Y018050D01*
X015482Y017985D01*
X015451Y017921D01*
X015417Y017859D01*
X015379Y017800D01*
X015338Y017742D01*
X015294Y017687D01*
X015247Y017634D01*
X015197Y017585D01*
X015145Y017538D01*
X015089Y017494D01*
X015032Y017453D01*
X014972Y017415D01*
X014910Y017381D01*
X014847Y017351D01*
X014782Y017324D01*
X014715Y017300D01*
X014647Y017281D01*
X014578Y017265D01*
X014509Y017253D01*
X014439Y017245D01*
X014368Y017241D01*
X014298Y017241D01*
X014227Y017245D01*
X014157Y017253D01*
X014088Y017265D01*
X014019Y017281D01*
X013951Y017300D01*
X013884Y017324D01*
X013819Y017351D01*
X013756Y017381D01*
X013694Y017415D01*
X013634Y017453D01*
X013577Y017494D01*
X013521Y017538D01*
X013469Y017585D01*
X013419Y017634D01*
X013372Y017687D01*
X013328Y017742D01*
X013287Y017800D01*
X013249Y017859D01*
X013215Y017921D01*
X013184Y017985D01*
X013157Y018050D01*
X013134Y018116D01*
X013114Y018184D01*
X013099Y018253D01*
X013087Y018322D01*
X013079Y018392D01*
X013075Y018463D01*
X013074Y018533D01*
X013078Y018604D01*
X013086Y018674D01*
X013098Y018744D01*
X013113Y018812D01*
X013133Y018880D01*
X013156Y018947D01*
X013183Y019012D01*
X013213Y019076D01*
X013247Y019138D01*
X013285Y019197D01*
X013325Y019255D01*
X013369Y019310D01*
X013416Y019363D01*
X013466Y019413D01*
X013519Y019460D01*
X013574Y019504D01*
X013579Y019497D01*
X013524Y019453D01*
X013472Y019406D01*
X013423Y019357D01*
X013376Y019304D01*
X013333Y019250D01*
X013292Y019192D01*
X013255Y019133D01*
X013221Y019072D01*
X013191Y019008D01*
X013164Y018944D01*
X013141Y018877D01*
X013122Y018810D01*
X013107Y018742D01*
X013095Y018673D01*
X013087Y018603D01*
X013083Y018533D01*
X013084Y018463D01*
X013088Y018393D01*
X013096Y018324D01*
X013107Y018255D01*
X013123Y018186D01*
X013142Y018119D01*
X013166Y018053D01*
X013193Y017988D01*
X013223Y017925D01*
X013257Y017864D01*
X013294Y017805D01*
X013335Y017747D01*
X013379Y017693D01*
X013425Y017641D01*
X013475Y017591D01*
X013527Y017544D01*
X013582Y017501D01*
X013639Y017460D01*
X013698Y017423D01*
X013760Y017389D01*
X013823Y017359D01*
X013888Y017332D01*
X013954Y017309D01*
X014021Y017290D01*
X014089Y017274D01*
X014158Y017262D01*
X014228Y017254D01*
X014298Y017250D01*
X014368Y017250D01*
X014438Y017254D01*
X014508Y017262D01*
X014577Y017274D01*
X014645Y017290D01*
X014712Y017309D01*
X014778Y017332D01*
X014843Y017359D01*
X014906Y017389D01*
X014968Y017423D01*
X015027Y017460D01*
X015084Y017501D01*
X015139Y017544D01*
X015191Y017591D01*
X015241Y017641D01*
X015287Y017693D01*
X015331Y017747D01*
X015372Y017805D01*
X015409Y017864D01*
X015443Y017925D01*
X015473Y017988D01*
X015500Y018053D01*
X015524Y018119D01*
X015543Y018186D01*
X015559Y018255D01*
X015570Y018324D01*
X015578Y018393D01*
X015582Y018463D01*
X015583Y018533D01*
X015579Y018603D01*
X015571Y018673D01*
X015559Y018742D01*
X015544Y018810D01*
X015525Y018877D01*
X015502Y018944D01*
X015475Y019008D01*
X015445Y019072D01*
X015411Y019133D01*
X015374Y019192D01*
X015333Y019250D01*
X015290Y019304D01*
X015243Y019357D01*
X015194Y019406D01*
X015142Y019453D01*
X015087Y019497D01*
X015082Y019490D01*
X015136Y019446D01*
X015188Y019400D01*
X015237Y019351D01*
X015283Y019299D01*
X015326Y019244D01*
X015366Y019187D01*
X015403Y019128D01*
X015437Y019067D01*
X015467Y019005D01*
X015493Y018940D01*
X015516Y018875D01*
X015535Y018808D01*
X015551Y018740D01*
X015562Y018671D01*
X015570Y018602D01*
X015574Y018533D01*
X015573Y018463D01*
X015569Y018394D01*
X015562Y018325D01*
X015550Y018256D01*
X015534Y018189D01*
X015515Y018122D01*
X015492Y018056D01*
X015465Y017992D01*
X015435Y017929D01*
X015401Y017868D01*
X015364Y017810D01*
X015324Y017753D01*
X015281Y017699D01*
X015234Y017647D01*
X015185Y017598D01*
X015133Y017551D01*
X015079Y017508D01*
X015022Y017468D01*
X014963Y017431D01*
X014902Y017397D01*
X014839Y017367D01*
X014775Y017340D01*
X014710Y017317D01*
X014643Y017298D01*
X014575Y017283D01*
X014506Y017271D01*
X014437Y017263D01*
X014368Y017259D01*
X014298Y017259D01*
X014229Y017263D01*
X014160Y017271D01*
X014091Y017283D01*
X014023Y017298D01*
X013956Y017317D01*
X013891Y017340D01*
X013827Y017367D01*
X013764Y017397D01*
X013703Y017431D01*
X013644Y017468D01*
X013587Y017508D01*
X013533Y017551D01*
X013481Y017598D01*
X013432Y017647D01*
X013385Y017699D01*
X013342Y017753D01*
X013302Y017810D01*
X013265Y017868D01*
X013231Y017929D01*
X013201Y017992D01*
X013174Y018056D01*
X013151Y018122D01*
X013132Y018189D01*
X013116Y018256D01*
X013104Y018325D01*
X013097Y018394D01*
X013093Y018463D01*
X013092Y018533D01*
X013096Y018602D01*
X013104Y018671D01*
X013115Y018740D01*
X013131Y018808D01*
X013150Y018875D01*
X013173Y018940D01*
X013199Y019005D01*
X013229Y019067D01*
X013263Y019128D01*
X013300Y019187D01*
X013340Y019244D01*
X013383Y019299D01*
X013429Y019351D01*
X013478Y019400D01*
X013530Y019446D01*
X013584Y019490D01*
X013590Y019483D01*
X013536Y019439D01*
X013485Y019393D01*
X013436Y019344D01*
X013390Y019293D01*
X013347Y019239D01*
X013307Y019182D01*
X013271Y019124D01*
X013237Y019063D01*
X013207Y019001D01*
X013181Y018937D01*
X013159Y018872D01*
X013140Y018806D01*
X013124Y018738D01*
X013113Y018670D01*
X013105Y018602D01*
X013101Y018533D01*
X013102Y018464D01*
X013106Y018395D01*
X013113Y018326D01*
X013125Y018258D01*
X013140Y018191D01*
X013160Y018124D01*
X013183Y018059D01*
X013209Y017996D01*
X013239Y017933D01*
X013272Y017873D01*
X013309Y017815D01*
X013349Y017758D01*
X013392Y017704D01*
X013438Y017653D01*
X013487Y017604D01*
X013539Y017558D01*
X013593Y017515D01*
X013649Y017475D01*
X013708Y017439D01*
X013768Y017405D01*
X013830Y017375D01*
X013894Y017349D01*
X013959Y017326D01*
X014026Y017307D01*
X014093Y017292D01*
X014161Y017280D01*
X014230Y017272D01*
X014298Y017268D01*
X014368Y017268D01*
X014436Y017272D01*
X014505Y017280D01*
X014573Y017292D01*
X014640Y017307D01*
X014707Y017326D01*
X014772Y017349D01*
X014836Y017375D01*
X014898Y017405D01*
X014958Y017439D01*
X015017Y017475D01*
X015073Y017515D01*
X015127Y017558D01*
X015179Y017604D01*
X015228Y017653D01*
X015274Y017704D01*
X015317Y017758D01*
X015357Y017815D01*
X015394Y017873D01*
X015427Y017933D01*
X015457Y017996D01*
X015483Y018059D01*
X015506Y018124D01*
X015526Y018191D01*
X015541Y018258D01*
X015553Y018326D01*
X015560Y018395D01*
X015564Y018464D01*
X015565Y018533D01*
X015561Y018602D01*
X015553Y018670D01*
X015542Y018738D01*
X015526Y018806D01*
X015507Y018872D01*
X015485Y018937D01*
X015459Y019001D01*
X015429Y019063D01*
X015395Y019124D01*
X015359Y019182D01*
X015319Y019239D01*
X015276Y019293D01*
X015230Y019344D01*
X015181Y019393D01*
X015130Y019439D01*
X015076Y019483D01*
X015071Y019475D01*
X015125Y019432D01*
X015176Y019386D01*
X015225Y019336D01*
X015271Y019285D01*
X015314Y019230D01*
X015354Y019173D01*
X015390Y019115D01*
X015424Y019054D01*
X015453Y018991D01*
X015479Y018927D01*
X015501Y018861D01*
X015520Y018794D01*
X015535Y018727D01*
X015546Y018658D01*
X015553Y018589D01*
X015556Y018520D01*
X015555Y018451D01*
X015550Y018381D01*
X015542Y018313D01*
X015529Y018245D01*
X015513Y018177D01*
X015492Y018111D01*
X015469Y018046D01*
X015441Y017982D01*
X015410Y017920D01*
X015375Y017860D01*
X015337Y017802D01*
X015296Y017746D01*
X015252Y017693D01*
X015205Y017642D01*
X015155Y017594D01*
X015102Y017549D01*
X015047Y017507D01*
X014990Y017468D01*
X014930Y017433D01*
X014869Y017401D01*
X014806Y017372D01*
X014741Y017347D01*
X014675Y017326D01*
X014608Y017308D01*
X014540Y017295D01*
X014471Y017285D01*
X014402Y017279D01*
X014333Y017277D01*
X014264Y017279D01*
X014195Y017285D01*
X014126Y017295D01*
X014058Y017308D01*
X013991Y017326D01*
X013925Y017347D01*
X013860Y017372D01*
X013797Y017401D01*
X013736Y017433D01*
X013676Y017468D01*
X013619Y017507D01*
X013564Y017549D01*
X013511Y017594D01*
X013461Y017642D01*
X013414Y017693D01*
X013370Y017746D01*
X013329Y017802D01*
X013291Y017860D01*
X013256Y017920D01*
X013225Y017982D01*
X013197Y018046D01*
X013174Y018111D01*
X013153Y018177D01*
X013137Y018245D01*
X013124Y018313D01*
X013116Y018381D01*
X013111Y018451D01*
X013110Y018520D01*
X013113Y018589D01*
X013120Y018658D01*
X013131Y018727D01*
X013146Y018794D01*
X013165Y018861D01*
X013187Y018927D01*
X013213Y018991D01*
X013242Y019054D01*
X013276Y019115D01*
X013312Y019173D01*
X013352Y019230D01*
X013395Y019285D01*
X013441Y019336D01*
X013490Y019386D01*
X013541Y019432D01*
X013595Y019475D01*
X013601Y019468D01*
X013547Y019425D01*
X013496Y019379D01*
X013447Y019330D01*
X013402Y019279D01*
X013359Y019225D01*
X013320Y019168D01*
X013283Y019110D01*
X013250Y019050D01*
X013221Y018987D01*
X013195Y018924D01*
X013173Y018858D01*
X013155Y018792D01*
X013140Y018725D01*
X013129Y018657D01*
X013122Y018588D01*
X013119Y018520D01*
X013120Y018451D01*
X013125Y018382D01*
X013133Y018314D01*
X013146Y018246D01*
X013162Y018180D01*
X013182Y018114D01*
X013206Y018049D01*
X013233Y017986D01*
X013264Y017925D01*
X013298Y017865D01*
X013336Y017807D01*
X013377Y017752D01*
X013421Y017699D01*
X013468Y017649D01*
X013517Y017601D01*
X013569Y017556D01*
X013624Y017514D01*
X013681Y017476D01*
X013740Y017441D01*
X013801Y017409D01*
X013864Y017380D01*
X013928Y017356D01*
X013994Y017334D01*
X014060Y017317D01*
X014128Y017304D01*
X014196Y017294D01*
X014264Y017288D01*
X014333Y017286D01*
X014402Y017288D01*
X014470Y017294D01*
X014538Y017304D01*
X014606Y017317D01*
X014672Y017334D01*
X014738Y017356D01*
X014802Y017380D01*
X014865Y017409D01*
X014926Y017441D01*
X014985Y017476D01*
X015042Y017514D01*
X015097Y017556D01*
X015149Y017601D01*
X015198Y017649D01*
X015245Y017699D01*
X015289Y017752D01*
X015330Y017807D01*
X015368Y017865D01*
X015402Y017925D01*
X015433Y017986D01*
X015460Y018049D01*
X015484Y018114D01*
X015504Y018180D01*
X015520Y018246D01*
X015533Y018314D01*
X015541Y018382D01*
X015546Y018451D01*
X015547Y018520D01*
X015544Y018588D01*
X015537Y018657D01*
X015526Y018725D01*
X015511Y018792D01*
X015493Y018858D01*
X015471Y018924D01*
X015445Y018987D01*
X015416Y019050D01*
X015383Y019110D01*
X015346Y019168D01*
X015307Y019225D01*
X015264Y019279D01*
X015219Y019330D01*
X015170Y019379D01*
X015119Y019425D01*
X015065Y019468D01*
X014061Y021005D02*
X014011Y021005D01*
X013986Y021030D01*
X013986Y021055D01*
X014011Y021080D01*
X014061Y021080D01*
X014086Y021055D01*
X014086Y021030D01*
X014061Y021005D01*
X014061Y021080D02*
X014086Y021105D01*
X014086Y021130D01*
X014061Y021155D01*
X014011Y021155D01*
X013986Y021130D01*
X013986Y021105D01*
X014011Y021080D01*
X013938Y021080D02*
X013913Y021055D01*
X013838Y021055D01*
X013838Y021005D02*
X013838Y021155D01*
X013913Y021155D01*
X013938Y021130D01*
X013938Y021080D01*
X013888Y021055D02*
X013938Y021005D01*
X013553Y023532D02*
X013607Y023460D01*
X013606Y023461D02*
X013553Y023418D01*
X013502Y023373D01*
X013454Y023324D01*
X013409Y023273D01*
X013366Y023219D01*
X013327Y023163D01*
X013291Y023105D01*
X013258Y023045D01*
X013229Y022984D01*
X013204Y022920D01*
X013182Y022856D01*
X013163Y022790D01*
X013149Y022723D01*
X013138Y022656D01*
X013131Y022588D01*
X013128Y022520D01*
X013129Y022451D01*
X013134Y022383D01*
X013142Y022315D01*
X013155Y022248D01*
X013171Y022182D01*
X013191Y022117D01*
X013214Y022052D01*
X013241Y021990D01*
X013272Y021929D01*
X013306Y021870D01*
X013343Y021812D01*
X013384Y021757D01*
X013428Y021705D01*
X013474Y021655D01*
X013523Y021608D01*
X013575Y021563D01*
X013629Y021522D01*
X013686Y021483D01*
X013745Y021448D01*
X013805Y021417D01*
X013867Y021389D01*
X013931Y021364D01*
X013996Y021343D01*
X014062Y021326D01*
X014129Y021312D01*
X014197Y021303D01*
X014265Y021297D01*
X014333Y021295D01*
X014401Y021297D01*
X014469Y021303D01*
X014537Y021312D01*
X014604Y021326D01*
X014670Y021343D01*
X014735Y021364D01*
X014799Y021389D01*
X014861Y021417D01*
X014921Y021448D01*
X014980Y021483D01*
X015037Y021522D01*
X015091Y021563D01*
X015143Y021608D01*
X015192Y021655D01*
X015238Y021705D01*
X015282Y021757D01*
X015323Y021812D01*
X015360Y021870D01*
X015394Y021929D01*
X015425Y021990D01*
X015452Y022052D01*
X015475Y022117D01*
X015495Y022182D01*
X015511Y022248D01*
X015524Y022315D01*
X015532Y022383D01*
X015537Y022451D01*
X015538Y022520D01*
X015535Y022588D01*
X015528Y022656D01*
X015517Y022723D01*
X015503Y022790D01*
X015484Y022856D01*
X015462Y022920D01*
X015437Y022984D01*
X015408Y023045D01*
X015375Y023105D01*
X015339Y023163D01*
X015300Y023219D01*
X015257Y023273D01*
X015212Y023324D01*
X015164Y023373D01*
X015113Y023418D01*
X015060Y023461D01*
X015113Y023532D01*
X015114Y023533D01*
X015169Y023489D01*
X015222Y023441D01*
X015273Y023391D01*
X015320Y023338D01*
X015364Y023283D01*
X015406Y023225D01*
X015444Y023165D01*
X015479Y023104D01*
X015510Y023040D01*
X015538Y022975D01*
X015562Y022908D01*
X015583Y022840D01*
X015599Y022771D01*
X015612Y022701D01*
X015621Y022631D01*
X015627Y022560D01*
X015628Y022489D01*
X015625Y022418D01*
X015619Y022347D01*
X015609Y022277D01*
X015595Y022208D01*
X015577Y022139D01*
X015555Y022071D01*
X015530Y022005D01*
X015501Y021940D01*
X015468Y021877D01*
X015432Y021816D01*
X015393Y021757D01*
X015351Y021700D01*
X015306Y021645D01*
X015257Y021593D01*
X015206Y021544D01*
X015153Y021497D01*
X015096Y021454D01*
X015038Y021414D01*
X014977Y021377D01*
X014915Y021343D01*
X014851Y021313D01*
X014785Y021286D01*
X014718Y021263D01*
X014649Y021244D01*
X014580Y021229D01*
X014510Y021217D01*
X014439Y021209D01*
X014368Y021205D01*
X014298Y021205D01*
X014227Y021209D01*
X014156Y021217D01*
X014086Y021229D01*
X014017Y021244D01*
X013948Y021263D01*
X013881Y021286D01*
X013815Y021313D01*
X013751Y021343D01*
X013689Y021377D01*
X013628Y021414D01*
X013570Y021454D01*
X013513Y021497D01*
X013460Y021544D01*
X013409Y021593D01*
X013360Y021645D01*
X013315Y021700D01*
X013273Y021757D01*
X013234Y021816D01*
X013198Y021877D01*
X013165Y021940D01*
X013136Y022005D01*
X013111Y022071D01*
X013089Y022139D01*
X013071Y022208D01*
X013057Y022277D01*
X013047Y022347D01*
X013041Y022418D01*
X013038Y022489D01*
X013039Y022560D01*
X013045Y022631D01*
X013054Y022701D01*
X013067Y022771D01*
X013083Y022840D01*
X013104Y022908D01*
X013128Y022975D01*
X013156Y023040D01*
X013187Y023104D01*
X013222Y023165D01*
X013260Y023225D01*
X013302Y023283D01*
X013346Y023338D01*
X013393Y023391D01*
X013444Y023441D01*
X013497Y023489D01*
X013552Y023533D01*
X013557Y023526D01*
X013502Y023481D01*
X013449Y023434D01*
X013398Y023383D01*
X013351Y023330D01*
X013306Y023274D01*
X013265Y023216D01*
X013227Y023156D01*
X013192Y023094D01*
X013161Y023030D01*
X013134Y022964D01*
X013110Y022897D01*
X013090Y022828D01*
X013073Y022759D01*
X013061Y022689D01*
X013052Y022618D01*
X013048Y022547D01*
X013047Y022476D01*
X013051Y022405D01*
X013058Y022334D01*
X013069Y022263D01*
X013084Y022194D01*
X013103Y022125D01*
X013126Y022057D01*
X013152Y021991D01*
X013182Y021926D01*
X013216Y021864D01*
X013252Y021803D01*
X013293Y021744D01*
X013336Y021687D01*
X013383Y021633D01*
X013432Y021582D01*
X013485Y021534D01*
X013539Y021488D01*
X013597Y021446D01*
X013656Y021407D01*
X013718Y021371D01*
X013781Y021338D01*
X013846Y021310D01*
X013913Y021284D01*
X013981Y021263D01*
X014050Y021245D01*
X014120Y021232D01*
X014191Y021222D01*
X014262Y021216D01*
X014333Y021214D01*
X014404Y021216D01*
X014475Y021222D01*
X014546Y021232D01*
X014616Y021245D01*
X014685Y021263D01*
X014753Y021284D01*
X014820Y021310D01*
X014885Y021338D01*
X014948Y021371D01*
X015010Y021407D01*
X015069Y021446D01*
X015127Y021488D01*
X015181Y021534D01*
X015234Y021582D01*
X015283Y021633D01*
X015330Y021687D01*
X015373Y021744D01*
X015414Y021803D01*
X015450Y021864D01*
X015484Y021926D01*
X015514Y021991D01*
X015540Y022057D01*
X015563Y022125D01*
X015582Y022194D01*
X015597Y022263D01*
X015608Y022334D01*
X015615Y022405D01*
X015619Y022476D01*
X015618Y022547D01*
X015614Y022618D01*
X015605Y022689D01*
X015593Y022759D01*
X015576Y022828D01*
X015556Y022897D01*
X015532Y022964D01*
X015505Y023030D01*
X015474Y023094D01*
X015439Y023156D01*
X015401Y023216D01*
X015360Y023274D01*
X015315Y023330D01*
X015268Y023383D01*
X015217Y023434D01*
X015164Y023481D01*
X015109Y023526D01*
X015103Y023519D01*
X015158Y023474D01*
X015211Y023427D01*
X015261Y023377D01*
X015308Y023324D01*
X015352Y023269D01*
X015394Y023211D01*
X015431Y023152D01*
X015466Y023090D01*
X015497Y023026D01*
X015524Y022961D01*
X015548Y022894D01*
X015568Y022826D01*
X015584Y022757D01*
X015596Y022688D01*
X015605Y022617D01*
X015609Y022547D01*
X015610Y022476D01*
X015606Y022405D01*
X015599Y022335D01*
X015588Y022265D01*
X015573Y022196D01*
X015554Y022128D01*
X015532Y022060D01*
X015506Y021995D01*
X015476Y021930D01*
X015443Y021868D01*
X015406Y021808D01*
X015366Y021749D01*
X015323Y021693D01*
X015277Y021639D01*
X015227Y021589D01*
X015176Y021540D01*
X015121Y021495D01*
X015064Y021453D01*
X015005Y021414D01*
X014944Y021379D01*
X014881Y021346D01*
X014816Y021318D01*
X014750Y021293D01*
X014682Y021272D01*
X014614Y021254D01*
X014544Y021241D01*
X014474Y021231D01*
X014404Y021225D01*
X014333Y021223D01*
X014262Y021225D01*
X014192Y021231D01*
X014122Y021241D01*
X014052Y021254D01*
X013984Y021272D01*
X013916Y021293D01*
X013850Y021318D01*
X013785Y021346D01*
X013722Y021379D01*
X013661Y021414D01*
X013602Y021453D01*
X013545Y021495D01*
X013490Y021540D01*
X013439Y021589D01*
X013389Y021639D01*
X013343Y021693D01*
X013300Y021749D01*
X013260Y021808D01*
X013223Y021868D01*
X013190Y021930D01*
X013160Y021995D01*
X013134Y022060D01*
X013112Y022128D01*
X013093Y022196D01*
X013078Y022265D01*
X013067Y022335D01*
X013060Y022405D01*
X013056Y022476D01*
X013057Y022547D01*
X013061Y022617D01*
X013070Y022688D01*
X013082Y022757D01*
X013098Y022826D01*
X013118Y022894D01*
X013142Y022961D01*
X013169Y023026D01*
X013200Y023090D01*
X013235Y023152D01*
X013272Y023211D01*
X013314Y023269D01*
X013358Y023324D01*
X013405Y023377D01*
X013455Y023427D01*
X013508Y023474D01*
X013563Y023519D01*
X013568Y023511D01*
X013513Y023467D01*
X013460Y023419D01*
X013410Y023369D01*
X013362Y023316D01*
X013318Y023260D01*
X013277Y023202D01*
X013240Y023142D01*
X013205Y023080D01*
X013175Y023016D01*
X013148Y022950D01*
X013124Y022883D01*
X013105Y022815D01*
X013089Y022745D01*
X013077Y022675D01*
X013069Y022605D01*
X013065Y022534D01*
X013066Y022463D01*
X013070Y022392D01*
X013078Y022321D01*
X013090Y022251D01*
X013106Y022182D01*
X013125Y022114D01*
X013149Y022046D01*
X013176Y021981D01*
X013207Y021917D01*
X013241Y021855D01*
X013279Y021795D01*
X013321Y021737D01*
X013365Y021681D01*
X013412Y021628D01*
X013463Y021578D01*
X013516Y021531D01*
X013571Y021486D01*
X013629Y021445D01*
X013689Y021408D01*
X013752Y021373D01*
X013816Y021342D01*
X013881Y021315D01*
X013948Y021292D01*
X014017Y021272D01*
X014086Y021256D01*
X014156Y021244D01*
X014227Y021236D01*
X014297Y021232D01*
X014369Y021232D01*
X014439Y021236D01*
X014510Y021244D01*
X014580Y021256D01*
X014649Y021272D01*
X014718Y021292D01*
X014785Y021315D01*
X014850Y021342D01*
X014914Y021373D01*
X014977Y021408D01*
X015037Y021445D01*
X015095Y021486D01*
X015150Y021531D01*
X015203Y021578D01*
X015254Y021628D01*
X015301Y021681D01*
X015345Y021737D01*
X015387Y021795D01*
X015425Y021855D01*
X015459Y021917D01*
X015490Y021981D01*
X015517Y022046D01*
X015541Y022114D01*
X015560Y022182D01*
X015576Y022251D01*
X015588Y022321D01*
X015596Y022392D01*
X015600Y022463D01*
X015601Y022534D01*
X015597Y022605D01*
X015589Y022675D01*
X015577Y022745D01*
X015561Y022815D01*
X015542Y022883D01*
X015518Y022950D01*
X015491Y023016D01*
X015461Y023080D01*
X015426Y023142D01*
X015389Y023202D01*
X015348Y023260D01*
X015304Y023316D01*
X015256Y023369D01*
X015206Y023419D01*
X015153Y023467D01*
X015098Y023511D01*
X015092Y023504D01*
X015147Y023460D01*
X015200Y023413D01*
X015250Y023363D01*
X015297Y023310D01*
X015341Y023255D01*
X015381Y023197D01*
X015419Y023138D01*
X015453Y023076D01*
X015483Y023012D01*
X015510Y022947D01*
X015533Y022880D01*
X015553Y022812D01*
X015568Y022744D01*
X015580Y022674D01*
X015588Y022604D01*
X015592Y022533D01*
X015591Y022463D01*
X015587Y022392D01*
X015579Y022322D01*
X015567Y022253D01*
X015552Y022184D01*
X015532Y022116D01*
X015509Y022050D01*
X015482Y021985D01*
X015451Y021921D01*
X015417Y021859D01*
X015379Y021800D01*
X015338Y021742D01*
X015294Y021687D01*
X015247Y021634D01*
X015197Y021585D01*
X015145Y021538D01*
X015089Y021494D01*
X015032Y021453D01*
X014972Y021415D01*
X014910Y021381D01*
X014847Y021351D01*
X014782Y021324D01*
X014715Y021300D01*
X014647Y021281D01*
X014578Y021265D01*
X014509Y021253D01*
X014439Y021245D01*
X014368Y021241D01*
X014298Y021241D01*
X014227Y021245D01*
X014157Y021253D01*
X014088Y021265D01*
X014019Y021281D01*
X013951Y021300D01*
X013884Y021324D01*
X013819Y021351D01*
X013756Y021381D01*
X013694Y021415D01*
X013634Y021453D01*
X013577Y021494D01*
X013521Y021538D01*
X013469Y021585D01*
X013419Y021634D01*
X013372Y021687D01*
X013328Y021742D01*
X013287Y021800D01*
X013249Y021859D01*
X013215Y021921D01*
X013184Y021985D01*
X013157Y022050D01*
X013134Y022116D01*
X013114Y022184D01*
X013099Y022253D01*
X013087Y022322D01*
X013079Y022392D01*
X013075Y022463D01*
X013074Y022533D01*
X013078Y022604D01*
X013086Y022674D01*
X013098Y022744D01*
X013113Y022812D01*
X013133Y022880D01*
X013156Y022947D01*
X013183Y023012D01*
X013213Y023076D01*
X013247Y023138D01*
X013285Y023197D01*
X013325Y023255D01*
X013369Y023310D01*
X013416Y023363D01*
X013466Y023413D01*
X013519Y023460D01*
X013574Y023504D01*
X013579Y023497D01*
X013524Y023453D01*
X013472Y023406D01*
X013423Y023357D01*
X013376Y023304D01*
X013333Y023250D01*
X013292Y023192D01*
X013255Y023133D01*
X013221Y023072D01*
X013191Y023008D01*
X013164Y022944D01*
X013141Y022877D01*
X013122Y022810D01*
X013107Y022742D01*
X013095Y022673D01*
X013087Y022603D01*
X013083Y022533D01*
X013084Y022463D01*
X013088Y022393D01*
X013096Y022324D01*
X013107Y022255D01*
X013123Y022186D01*
X013142Y022119D01*
X013166Y022053D01*
X013193Y021988D01*
X013223Y021925D01*
X013257Y021864D01*
X013294Y021805D01*
X013335Y021747D01*
X013379Y021693D01*
X013425Y021641D01*
X013475Y021591D01*
X013527Y021544D01*
X013582Y021501D01*
X013639Y021460D01*
X013698Y021423D01*
X013760Y021389D01*
X013823Y021359D01*
X013888Y021332D01*
X013954Y021309D01*
X014021Y021290D01*
X014089Y021274D01*
X014158Y021262D01*
X014228Y021254D01*
X014298Y021250D01*
X014368Y021250D01*
X014438Y021254D01*
X014508Y021262D01*
X014577Y021274D01*
X014645Y021290D01*
X014712Y021309D01*
X014778Y021332D01*
X014843Y021359D01*
X014906Y021389D01*
X014968Y021423D01*
X015027Y021460D01*
X015084Y021501D01*
X015139Y021544D01*
X015191Y021591D01*
X015241Y021641D01*
X015287Y021693D01*
X015331Y021747D01*
X015372Y021805D01*
X015409Y021864D01*
X015443Y021925D01*
X015473Y021988D01*
X015500Y022053D01*
X015524Y022119D01*
X015543Y022186D01*
X015559Y022255D01*
X015570Y022324D01*
X015578Y022393D01*
X015582Y022463D01*
X015583Y022533D01*
X015579Y022603D01*
X015571Y022673D01*
X015559Y022742D01*
X015544Y022810D01*
X015525Y022877D01*
X015502Y022944D01*
X015475Y023008D01*
X015445Y023072D01*
X015411Y023133D01*
X015374Y023192D01*
X015333Y023250D01*
X015290Y023304D01*
X015243Y023357D01*
X015194Y023406D01*
X015142Y023453D01*
X015087Y023497D01*
X015082Y023490D01*
X015136Y023446D01*
X015188Y023400D01*
X015237Y023351D01*
X015283Y023299D01*
X015326Y023244D01*
X015366Y023187D01*
X015403Y023128D01*
X015437Y023067D01*
X015467Y023005D01*
X015493Y022940D01*
X015516Y022875D01*
X015535Y022808D01*
X015551Y022740D01*
X015562Y022671D01*
X015570Y022602D01*
X015574Y022533D01*
X015573Y022463D01*
X015569Y022394D01*
X015562Y022325D01*
X015550Y022256D01*
X015534Y022189D01*
X015515Y022122D01*
X015492Y022056D01*
X015465Y021992D01*
X015435Y021929D01*
X015401Y021868D01*
X015364Y021810D01*
X015324Y021753D01*
X015281Y021699D01*
X015234Y021647D01*
X015185Y021598D01*
X015133Y021551D01*
X015079Y021508D01*
X015022Y021468D01*
X014963Y021431D01*
X014902Y021397D01*
X014839Y021367D01*
X014775Y021340D01*
X014710Y021317D01*
X014643Y021298D01*
X014575Y021283D01*
X014506Y021271D01*
X014437Y021263D01*
X014368Y021259D01*
X014298Y021259D01*
X014229Y021263D01*
X014160Y021271D01*
X014091Y021283D01*
X014023Y021298D01*
X013956Y021317D01*
X013891Y021340D01*
X013827Y021367D01*
X013764Y021397D01*
X013703Y021431D01*
X013644Y021468D01*
X013587Y021508D01*
X013533Y021551D01*
X013481Y021598D01*
X013432Y021647D01*
X013385Y021699D01*
X013342Y021753D01*
X013302Y021810D01*
X013265Y021868D01*
X013231Y021929D01*
X013201Y021992D01*
X013174Y022056D01*
X013151Y022122D01*
X013132Y022189D01*
X013116Y022256D01*
X013104Y022325D01*
X013097Y022394D01*
X013093Y022463D01*
X013092Y022533D01*
X013096Y022602D01*
X013104Y022671D01*
X013115Y022740D01*
X013131Y022808D01*
X013150Y022875D01*
X013173Y022940D01*
X013199Y023005D01*
X013229Y023067D01*
X013263Y023128D01*
X013300Y023187D01*
X013340Y023244D01*
X013383Y023299D01*
X013429Y023351D01*
X013478Y023400D01*
X013530Y023446D01*
X013584Y023490D01*
X013590Y023483D01*
X013536Y023439D01*
X013485Y023393D01*
X013436Y023344D01*
X013390Y023293D01*
X013347Y023239D01*
X013307Y023182D01*
X013271Y023124D01*
X013237Y023063D01*
X013207Y023001D01*
X013181Y022937D01*
X013159Y022872D01*
X013140Y022806D01*
X013124Y022738D01*
X013113Y022670D01*
X013105Y022602D01*
X013101Y022533D01*
X013102Y022464D01*
X013106Y022395D01*
X013113Y022326D01*
X013125Y022258D01*
X013140Y022191D01*
X013160Y022124D01*
X013183Y022059D01*
X013209Y021996D01*
X013239Y021933D01*
X013272Y021873D01*
X013309Y021815D01*
X013349Y021758D01*
X013392Y021704D01*
X013438Y021653D01*
X013487Y021604D01*
X013539Y021558D01*
X013593Y021515D01*
X013649Y021475D01*
X013708Y021439D01*
X013768Y021405D01*
X013830Y021375D01*
X013894Y021349D01*
X013959Y021326D01*
X014026Y021307D01*
X014093Y021292D01*
X014161Y021280D01*
X014230Y021272D01*
X014298Y021268D01*
X014368Y021268D01*
X014436Y021272D01*
X014505Y021280D01*
X014573Y021292D01*
X014640Y021307D01*
X014707Y021326D01*
X014772Y021349D01*
X014836Y021375D01*
X014898Y021405D01*
X014958Y021439D01*
X015017Y021475D01*
X015073Y021515D01*
X015127Y021558D01*
X015179Y021604D01*
X015228Y021653D01*
X015274Y021704D01*
X015317Y021758D01*
X015357Y021815D01*
X015394Y021873D01*
X015427Y021933D01*
X015457Y021996D01*
X015483Y022059D01*
X015506Y022124D01*
X015526Y022191D01*
X015541Y022258D01*
X015553Y022326D01*
X015560Y022395D01*
X015564Y022464D01*
X015565Y022533D01*
X015561Y022602D01*
X015553Y022670D01*
X015542Y022738D01*
X015526Y022806D01*
X015507Y022872D01*
X015485Y022937D01*
X015459Y023001D01*
X015429Y023063D01*
X015395Y023124D01*
X015359Y023182D01*
X015319Y023239D01*
X015276Y023293D01*
X015230Y023344D01*
X015181Y023393D01*
X015130Y023439D01*
X015076Y023483D01*
X015071Y023475D01*
X015125Y023432D01*
X015176Y023386D01*
X015225Y023336D01*
X015271Y023285D01*
X015314Y023230D01*
X015354Y023173D01*
X015390Y023115D01*
X015424Y023054D01*
X015453Y022991D01*
X015479Y022927D01*
X015501Y022861D01*
X015520Y022794D01*
X015535Y022727D01*
X015546Y022658D01*
X015553Y022589D01*
X015556Y022520D01*
X015555Y022451D01*
X015550Y022381D01*
X015542Y022313D01*
X015529Y022245D01*
X015513Y022177D01*
X015492Y022111D01*
X015469Y022046D01*
X015441Y021982D01*
X015410Y021920D01*
X015375Y021860D01*
X015337Y021802D01*
X015296Y021746D01*
X015252Y021693D01*
X015205Y021642D01*
X015155Y021594D01*
X015102Y021549D01*
X015047Y021507D01*
X014990Y021468D01*
X014930Y021433D01*
X014869Y021401D01*
X014806Y021372D01*
X014741Y021347D01*
X014675Y021326D01*
X014608Y021308D01*
X014540Y021295D01*
X014471Y021285D01*
X014402Y021279D01*
X014333Y021277D01*
X014264Y021279D01*
X014195Y021285D01*
X014126Y021295D01*
X014058Y021308D01*
X013991Y021326D01*
X013925Y021347D01*
X013860Y021372D01*
X013797Y021401D01*
X013736Y021433D01*
X013676Y021468D01*
X013619Y021507D01*
X013564Y021549D01*
X013511Y021594D01*
X013461Y021642D01*
X013414Y021693D01*
X013370Y021746D01*
X013329Y021802D01*
X013291Y021860D01*
X013256Y021920D01*
X013225Y021982D01*
X013197Y022046D01*
X013174Y022111D01*
X013153Y022177D01*
X013137Y022245D01*
X013124Y022313D01*
X013116Y022381D01*
X013111Y022451D01*
X013110Y022520D01*
X013113Y022589D01*
X013120Y022658D01*
X013131Y022727D01*
X013146Y022794D01*
X013165Y022861D01*
X013187Y022927D01*
X013213Y022991D01*
X013242Y023054D01*
X013276Y023115D01*
X013312Y023173D01*
X013352Y023230D01*
X013395Y023285D01*
X013441Y023336D01*
X013490Y023386D01*
X013541Y023432D01*
X013595Y023475D01*
X013601Y023468D01*
X013547Y023425D01*
X013496Y023379D01*
X013447Y023330D01*
X013402Y023279D01*
X013359Y023225D01*
X013320Y023168D01*
X013283Y023110D01*
X013250Y023050D01*
X013221Y022987D01*
X013195Y022924D01*
X013173Y022858D01*
X013155Y022792D01*
X013140Y022725D01*
X013129Y022657D01*
X013122Y022588D01*
X013119Y022520D01*
X013120Y022451D01*
X013125Y022382D01*
X013133Y022314D01*
X013146Y022246D01*
X013162Y022180D01*
X013182Y022114D01*
X013206Y022049D01*
X013233Y021986D01*
X013264Y021925D01*
X013298Y021865D01*
X013336Y021807D01*
X013377Y021752D01*
X013421Y021699D01*
X013468Y021649D01*
X013517Y021601D01*
X013569Y021556D01*
X013624Y021514D01*
X013681Y021476D01*
X013740Y021441D01*
X013801Y021409D01*
X013864Y021380D01*
X013928Y021356D01*
X013994Y021334D01*
X014060Y021317D01*
X014128Y021304D01*
X014196Y021294D01*
X014264Y021288D01*
X014333Y021286D01*
X014402Y021288D01*
X014470Y021294D01*
X014538Y021304D01*
X014606Y021317D01*
X014672Y021334D01*
X014738Y021356D01*
X014802Y021380D01*
X014865Y021409D01*
X014926Y021441D01*
X014985Y021476D01*
X015042Y021514D01*
X015097Y021556D01*
X015149Y021601D01*
X015198Y021649D01*
X015245Y021699D01*
X015289Y021752D01*
X015330Y021807D01*
X015368Y021865D01*
X015402Y021925D01*
X015433Y021986D01*
X015460Y022049D01*
X015484Y022114D01*
X015504Y022180D01*
X015520Y022246D01*
X015533Y022314D01*
X015541Y022382D01*
X015546Y022451D01*
X015547Y022520D01*
X015544Y022588D01*
X015537Y022657D01*
X015526Y022725D01*
X015511Y022792D01*
X015493Y022858D01*
X015471Y022924D01*
X015445Y022987D01*
X015416Y023050D01*
X015383Y023110D01*
X015346Y023168D01*
X015307Y023225D01*
X015264Y023279D01*
X015219Y023330D01*
X015170Y023379D01*
X015119Y023425D01*
X015065Y023468D01*
X014061Y025005D02*
X014086Y025030D01*
X014086Y025130D01*
X014061Y025155D01*
X014011Y025155D01*
X013986Y025130D01*
X013986Y025105D01*
X014011Y025080D01*
X014086Y025080D01*
X014061Y025005D02*
X014011Y025005D01*
X013986Y025030D01*
X013938Y025005D02*
X013888Y025055D01*
X013913Y025055D02*
X013838Y025055D01*
X013838Y025005D02*
X013838Y025155D01*
X013913Y025155D01*
X013938Y025130D01*
X013938Y025080D01*
X013913Y025055D01*
X013553Y027532D02*
X013607Y027460D01*
X013606Y027461D02*
X013553Y027418D01*
X013502Y027373D01*
X013454Y027324D01*
X013409Y027273D01*
X013366Y027219D01*
X013327Y027163D01*
X013291Y027105D01*
X013258Y027045D01*
X013229Y026984D01*
X013204Y026920D01*
X013182Y026856D01*
X013163Y026790D01*
X013149Y026723D01*
X013138Y026656D01*
X013131Y026588D01*
X013128Y026520D01*
X013129Y026451D01*
X013134Y026383D01*
X013142Y026315D01*
X013155Y026248D01*
X013171Y026182D01*
X013191Y026117D01*
X013214Y026052D01*
X013241Y025990D01*
X013272Y025929D01*
X013306Y025870D01*
X013343Y025812D01*
X013384Y025757D01*
X013428Y025705D01*
X013474Y025655D01*
X013523Y025608D01*
X013575Y025563D01*
X013629Y025522D01*
X013686Y025483D01*
X013745Y025448D01*
X013805Y025417D01*
X013867Y025389D01*
X013931Y025364D01*
X013996Y025343D01*
X014062Y025326D01*
X014129Y025312D01*
X014197Y025303D01*
X014265Y025297D01*
X014333Y025295D01*
X014401Y025297D01*
X014469Y025303D01*
X014537Y025312D01*
X014604Y025326D01*
X014670Y025343D01*
X014735Y025364D01*
X014799Y025389D01*
X014861Y025417D01*
X014921Y025448D01*
X014980Y025483D01*
X015037Y025522D01*
X015091Y025563D01*
X015143Y025608D01*
X015192Y025655D01*
X015238Y025705D01*
X015282Y025757D01*
X015323Y025812D01*
X015360Y025870D01*
X015394Y025929D01*
X015425Y025990D01*
X015452Y026052D01*
X015475Y026117D01*
X015495Y026182D01*
X015511Y026248D01*
X015524Y026315D01*
X015532Y026383D01*
X015537Y026451D01*
X015538Y026520D01*
X015535Y026588D01*
X015528Y026656D01*
X015517Y026723D01*
X015503Y026790D01*
X015484Y026856D01*
X015462Y026920D01*
X015437Y026984D01*
X015408Y027045D01*
X015375Y027105D01*
X015339Y027163D01*
X015300Y027219D01*
X015257Y027273D01*
X015212Y027324D01*
X015164Y027373D01*
X015113Y027418D01*
X015060Y027461D01*
X015113Y027532D01*
X015114Y027533D01*
X015169Y027489D01*
X015222Y027441D01*
X015273Y027391D01*
X015320Y027338D01*
X015364Y027283D01*
X015406Y027225D01*
X015444Y027165D01*
X015479Y027104D01*
X015510Y027040D01*
X015538Y026975D01*
X015562Y026908D01*
X015583Y026840D01*
X015599Y026771D01*
X015612Y026701D01*
X015621Y026631D01*
X015627Y026560D01*
X015628Y026489D01*
X015625Y026418D01*
X015619Y026347D01*
X015609Y026277D01*
X015595Y026208D01*
X015577Y026139D01*
X015555Y026071D01*
X015530Y026005D01*
X015501Y025940D01*
X015468Y025877D01*
X015432Y025816D01*
X015393Y025757D01*
X015351Y025700D01*
X015306Y025645D01*
X015257Y025593D01*
X015206Y025544D01*
X015153Y025497D01*
X015096Y025454D01*
X015038Y025414D01*
X014977Y025377D01*
X014915Y025343D01*
X014851Y025313D01*
X014785Y025286D01*
X014718Y025263D01*
X014649Y025244D01*
X014580Y025229D01*
X014510Y025217D01*
X014439Y025209D01*
X014368Y025205D01*
X014298Y025205D01*
X014227Y025209D01*
X014156Y025217D01*
X014086Y025229D01*
X014017Y025244D01*
X013948Y025263D01*
X013881Y025286D01*
X013815Y025313D01*
X013751Y025343D01*
X013689Y025377D01*
X013628Y025414D01*
X013570Y025454D01*
X013513Y025497D01*
X013460Y025544D01*
X013409Y025593D01*
X013360Y025645D01*
X013315Y025700D01*
X013273Y025757D01*
X013234Y025816D01*
X013198Y025877D01*
X013165Y025940D01*
X013136Y026005D01*
X013111Y026071D01*
X013089Y026139D01*
X013071Y026208D01*
X013057Y026277D01*
X013047Y026347D01*
X013041Y026418D01*
X013038Y026489D01*
X013039Y026560D01*
X013045Y026631D01*
X013054Y026701D01*
X013067Y026771D01*
X013083Y026840D01*
X013104Y026908D01*
X013128Y026975D01*
X013156Y027040D01*
X013187Y027104D01*
X013222Y027165D01*
X013260Y027225D01*
X013302Y027283D01*
X013346Y027338D01*
X013393Y027391D01*
X013444Y027441D01*
X013497Y027489D01*
X013552Y027533D01*
X013557Y027526D01*
X013502Y027481D01*
X013449Y027434D01*
X013398Y027383D01*
X013351Y027330D01*
X013306Y027274D01*
X013265Y027216D01*
X013227Y027156D01*
X013192Y027094D01*
X013161Y027030D01*
X013134Y026964D01*
X013110Y026897D01*
X013090Y026828D01*
X013073Y026759D01*
X013061Y026689D01*
X013052Y026618D01*
X013048Y026547D01*
X013047Y026476D01*
X013051Y026405D01*
X013058Y026334D01*
X013069Y026263D01*
X013084Y026194D01*
X013103Y026125D01*
X013126Y026057D01*
X013152Y025991D01*
X013182Y025926D01*
X013216Y025864D01*
X013252Y025803D01*
X013293Y025744D01*
X013336Y025687D01*
X013383Y025633D01*
X013432Y025582D01*
X013485Y025534D01*
X013539Y025488D01*
X013597Y025446D01*
X013656Y025407D01*
X013718Y025371D01*
X013781Y025338D01*
X013846Y025310D01*
X013913Y025284D01*
X013981Y025263D01*
X014050Y025245D01*
X014120Y025232D01*
X014191Y025222D01*
X014262Y025216D01*
X014333Y025214D01*
X014404Y025216D01*
X014475Y025222D01*
X014546Y025232D01*
X014616Y025245D01*
X014685Y025263D01*
X014753Y025284D01*
X014820Y025310D01*
X014885Y025338D01*
X014948Y025371D01*
X015010Y025407D01*
X015069Y025446D01*
X015127Y025488D01*
X015181Y025534D01*
X015234Y025582D01*
X015283Y025633D01*
X015330Y025687D01*
X015373Y025744D01*
X015414Y025803D01*
X015450Y025864D01*
X015484Y025926D01*
X015514Y025991D01*
X015540Y026057D01*
X015563Y026125D01*
X015582Y026194D01*
X015597Y026263D01*
X015608Y026334D01*
X015615Y026405D01*
X015619Y026476D01*
X015618Y026547D01*
X015614Y026618D01*
X015605Y026689D01*
X015593Y026759D01*
X015576Y026828D01*
X015556Y026897D01*
X015532Y026964D01*
X015505Y027030D01*
X015474Y027094D01*
X015439Y027156D01*
X015401Y027216D01*
X015360Y027274D01*
X015315Y027330D01*
X015268Y027383D01*
X015217Y027434D01*
X015164Y027481D01*
X015109Y027526D01*
X015103Y027519D01*
X015158Y027474D01*
X015211Y027427D01*
X015261Y027377D01*
X015308Y027324D01*
X015352Y027269D01*
X015394Y027211D01*
X015431Y027152D01*
X015466Y027090D01*
X015497Y027026D01*
X015524Y026961D01*
X015548Y026894D01*
X015568Y026826D01*
X015584Y026757D01*
X015596Y026688D01*
X015605Y026617D01*
X015609Y026547D01*
X015610Y026476D01*
X015606Y026405D01*
X015599Y026335D01*
X015588Y026265D01*
X015573Y026196D01*
X015554Y026128D01*
X015532Y026060D01*
X015506Y025995D01*
X015476Y025930D01*
X015443Y025868D01*
X015406Y025808D01*
X015366Y025749D01*
X015323Y025693D01*
X015277Y025639D01*
X015227Y025589D01*
X015176Y025540D01*
X015121Y025495D01*
X015064Y025453D01*
X015005Y025414D01*
X014944Y025379D01*
X014881Y025346D01*
X014816Y025318D01*
X014750Y025293D01*
X014682Y025272D01*
X014614Y025254D01*
X014544Y025241D01*
X014474Y025231D01*
X014404Y025225D01*
X014333Y025223D01*
X014262Y025225D01*
X014192Y025231D01*
X014122Y025241D01*
X014052Y025254D01*
X013984Y025272D01*
X013916Y025293D01*
X013850Y025318D01*
X013785Y025346D01*
X013722Y025379D01*
X013661Y025414D01*
X013602Y025453D01*
X013545Y025495D01*
X013490Y025540D01*
X013439Y025589D01*
X013389Y025639D01*
X013343Y025693D01*
X013300Y025749D01*
X013260Y025808D01*
X013223Y025868D01*
X013190Y025930D01*
X013160Y025995D01*
X013134Y026060D01*
X013112Y026128D01*
X013093Y026196D01*
X013078Y026265D01*
X013067Y026335D01*
X013060Y026405D01*
X013056Y026476D01*
X013057Y026547D01*
X013061Y026617D01*
X013070Y026688D01*
X013082Y026757D01*
X013098Y026826D01*
X013118Y026894D01*
X013142Y026961D01*
X013169Y027026D01*
X013200Y027090D01*
X013235Y027152D01*
X013272Y027211D01*
X013314Y027269D01*
X013358Y027324D01*
X013405Y027377D01*
X013455Y027427D01*
X013508Y027474D01*
X013563Y027519D01*
X013568Y027511D01*
X013513Y027467D01*
X013460Y027419D01*
X013410Y027369D01*
X013362Y027316D01*
X013318Y027260D01*
X013277Y027202D01*
X013240Y027142D01*
X013205Y027080D01*
X013175Y027016D01*
X013148Y026950D01*
X013124Y026883D01*
X013105Y026815D01*
X013089Y026745D01*
X013077Y026675D01*
X013069Y026605D01*
X013065Y026534D01*
X013066Y026463D01*
X013070Y026392D01*
X013078Y026321D01*
X013090Y026251D01*
X013106Y026182D01*
X013125Y026114D01*
X013149Y026046D01*
X013176Y025981D01*
X013207Y025917D01*
X013241Y025855D01*
X013279Y025795D01*
X013321Y025737D01*
X013365Y025681D01*
X013412Y025628D01*
X013463Y025578D01*
X013516Y025531D01*
X013571Y025486D01*
X013629Y025445D01*
X013689Y025408D01*
X013752Y025373D01*
X013816Y025342D01*
X013881Y025315D01*
X013948Y025292D01*
X014017Y025272D01*
X014086Y025256D01*
X014156Y025244D01*
X014227Y025236D01*
X014297Y025232D01*
X014369Y025232D01*
X014439Y025236D01*
X014510Y025244D01*
X014580Y025256D01*
X014649Y025272D01*
X014718Y025292D01*
X014785Y025315D01*
X014850Y025342D01*
X014914Y025373D01*
X014977Y025408D01*
X015037Y025445D01*
X015095Y025486D01*
X015150Y025531D01*
X015203Y025578D01*
X015254Y025628D01*
X015301Y025681D01*
X015345Y025737D01*
X015387Y025795D01*
X015425Y025855D01*
X015459Y025917D01*
X015490Y025981D01*
X015517Y026046D01*
X015541Y026114D01*
X015560Y026182D01*
X015576Y026251D01*
X015588Y026321D01*
X015596Y026392D01*
X015600Y026463D01*
X015601Y026534D01*
X015597Y026605D01*
X015589Y026675D01*
X015577Y026745D01*
X015561Y026815D01*
X015542Y026883D01*
X015518Y026950D01*
X015491Y027016D01*
X015461Y027080D01*
X015426Y027142D01*
X015389Y027202D01*
X015348Y027260D01*
X015304Y027316D01*
X015256Y027369D01*
X015206Y027419D01*
X015153Y027467D01*
X015098Y027511D01*
X015092Y027504D01*
X015147Y027460D01*
X015200Y027413D01*
X015250Y027363D01*
X015297Y027310D01*
X015341Y027255D01*
X015381Y027197D01*
X015419Y027138D01*
X015453Y027076D01*
X015483Y027012D01*
X015510Y026947D01*
X015533Y026880D01*
X015553Y026812D01*
X015568Y026744D01*
X015580Y026674D01*
X015588Y026604D01*
X015592Y026533D01*
X015591Y026463D01*
X015587Y026392D01*
X015579Y026322D01*
X015567Y026253D01*
X015552Y026184D01*
X015532Y026116D01*
X015509Y026050D01*
X015482Y025985D01*
X015451Y025921D01*
X015417Y025859D01*
X015379Y025800D01*
X015338Y025742D01*
X015294Y025687D01*
X015247Y025634D01*
X015197Y025585D01*
X015145Y025538D01*
X015089Y025494D01*
X015032Y025453D01*
X014972Y025415D01*
X014910Y025381D01*
X014847Y025351D01*
X014782Y025324D01*
X014715Y025300D01*
X014647Y025281D01*
X014578Y025265D01*
X014509Y025253D01*
X014439Y025245D01*
X014368Y025241D01*
X014298Y025241D01*
X014227Y025245D01*
X014157Y025253D01*
X014088Y025265D01*
X014019Y025281D01*
X013951Y025300D01*
X013884Y025324D01*
X013819Y025351D01*
X013756Y025381D01*
X013694Y025415D01*
X013634Y025453D01*
X013577Y025494D01*
X013521Y025538D01*
X013469Y025585D01*
X013419Y025634D01*
X013372Y025687D01*
X013328Y025742D01*
X013287Y025800D01*
X013249Y025859D01*
X013215Y025921D01*
X013184Y025985D01*
X013157Y026050D01*
X013134Y026116D01*
X013114Y026184D01*
X013099Y026253D01*
X013087Y026322D01*
X013079Y026392D01*
X013075Y026463D01*
X013074Y026533D01*
X013078Y026604D01*
X013086Y026674D01*
X013098Y026744D01*
X013113Y026812D01*
X013133Y026880D01*
X013156Y026947D01*
X013183Y027012D01*
X013213Y027076D01*
X013247Y027138D01*
X013285Y027197D01*
X013325Y027255D01*
X013369Y027310D01*
X013416Y027363D01*
X013466Y027413D01*
X013519Y027460D01*
X013574Y027504D01*
X013579Y027497D01*
X013524Y027453D01*
X013472Y027406D01*
X013423Y027357D01*
X013376Y027304D01*
X013333Y027250D01*
X013292Y027192D01*
X013255Y027133D01*
X013221Y027072D01*
X013191Y027008D01*
X013164Y026944D01*
X013141Y026877D01*
X013122Y026810D01*
X013107Y026742D01*
X013095Y026673D01*
X013087Y026603D01*
X013083Y026533D01*
X013084Y026463D01*
X013088Y026393D01*
X013096Y026324D01*
X013107Y026255D01*
X013123Y026186D01*
X013142Y026119D01*
X013166Y026053D01*
X013193Y025988D01*
X013223Y025925D01*
X013257Y025864D01*
X013294Y025805D01*
X013335Y025747D01*
X013379Y025693D01*
X013425Y025641D01*
X013475Y025591D01*
X013527Y025544D01*
X013582Y025501D01*
X013639Y025460D01*
X013698Y025423D01*
X013760Y025389D01*
X013823Y025359D01*
X013888Y025332D01*
X013954Y025309D01*
X014021Y025290D01*
X014089Y025274D01*
X014158Y025262D01*
X014228Y025254D01*
X014298Y025250D01*
X014368Y025250D01*
X014438Y025254D01*
X014508Y025262D01*
X014577Y025274D01*
X014645Y025290D01*
X014712Y025309D01*
X014778Y025332D01*
X014843Y025359D01*
X014906Y025389D01*
X014968Y025423D01*
X015027Y025460D01*
X015084Y025501D01*
X015139Y025544D01*
X015191Y025591D01*
X015241Y025641D01*
X015287Y025693D01*
X015331Y025747D01*
X015372Y025805D01*
X015409Y025864D01*
X015443Y025925D01*
X015473Y025988D01*
X015500Y026053D01*
X015524Y026119D01*
X015543Y026186D01*
X015559Y026255D01*
X015570Y026324D01*
X015578Y026393D01*
X015582Y026463D01*
X015583Y026533D01*
X015579Y026603D01*
X015571Y026673D01*
X015559Y026742D01*
X015544Y026810D01*
X015525Y026877D01*
X015502Y026944D01*
X015475Y027008D01*
X015445Y027072D01*
X015411Y027133D01*
X015374Y027192D01*
X015333Y027250D01*
X015290Y027304D01*
X015243Y027357D01*
X015194Y027406D01*
X015142Y027453D01*
X015087Y027497D01*
X015082Y027490D01*
X015136Y027446D01*
X015188Y027400D01*
X015237Y027351D01*
X015283Y027299D01*
X015326Y027244D01*
X015366Y027187D01*
X015403Y027128D01*
X015437Y027067D01*
X015467Y027005D01*
X015493Y026940D01*
X015516Y026875D01*
X015535Y026808D01*
X015551Y026740D01*
X015562Y026671D01*
X015570Y026602D01*
X015574Y026533D01*
X015573Y026463D01*
X015569Y026394D01*
X015562Y026325D01*
X015550Y026256D01*
X015534Y026189D01*
X015515Y026122D01*
X015492Y026056D01*
X015465Y025992D01*
X015435Y025929D01*
X015401Y025868D01*
X015364Y025810D01*
X015324Y025753D01*
X015281Y025699D01*
X015234Y025647D01*
X015185Y025598D01*
X015133Y025551D01*
X015079Y025508D01*
X015022Y025468D01*
X014963Y025431D01*
X014902Y025397D01*
X014839Y025367D01*
X014775Y025340D01*
X014710Y025317D01*
X014643Y025298D01*
X014575Y025283D01*
X014506Y025271D01*
X014437Y025263D01*
X014368Y025259D01*
X014298Y025259D01*
X014229Y025263D01*
X014160Y025271D01*
X014091Y025283D01*
X014023Y025298D01*
X013956Y025317D01*
X013891Y025340D01*
X013827Y025367D01*
X013764Y025397D01*
X013703Y025431D01*
X013644Y025468D01*
X013587Y025508D01*
X013533Y025551D01*
X013481Y025598D01*
X013432Y025647D01*
X013385Y025699D01*
X013342Y025753D01*
X013302Y025810D01*
X013265Y025868D01*
X013231Y025929D01*
X013201Y025992D01*
X013174Y026056D01*
X013151Y026122D01*
X013132Y026189D01*
X013116Y026256D01*
X013104Y026325D01*
X013097Y026394D01*
X013093Y026463D01*
X013092Y026533D01*
X013096Y026602D01*
X013104Y026671D01*
X013115Y026740D01*
X013131Y026808D01*
X013150Y026875D01*
X013173Y026940D01*
X013199Y027005D01*
X013229Y027067D01*
X013263Y027128D01*
X013300Y027187D01*
X013340Y027244D01*
X013383Y027299D01*
X013429Y027351D01*
X013478Y027400D01*
X013530Y027446D01*
X013584Y027490D01*
X013590Y027483D01*
X013536Y027439D01*
X013485Y027393D01*
X013436Y027344D01*
X013390Y027293D01*
X013347Y027239D01*
X013307Y027182D01*
X013271Y027124D01*
X013237Y027063D01*
X013207Y027001D01*
X013181Y026937D01*
X013159Y026872D01*
X013140Y026806D01*
X013124Y026738D01*
X013113Y026670D01*
X013105Y026602D01*
X013101Y026533D01*
X013102Y026464D01*
X013106Y026395D01*
X013113Y026326D01*
X013125Y026258D01*
X013140Y026191D01*
X013160Y026124D01*
X013183Y026059D01*
X013209Y025996D01*
X013239Y025933D01*
X013272Y025873D01*
X013309Y025815D01*
X013349Y025758D01*
X013392Y025704D01*
X013438Y025653D01*
X013487Y025604D01*
X013539Y025558D01*
X013593Y025515D01*
X013649Y025475D01*
X013708Y025439D01*
X013768Y025405D01*
X013830Y025375D01*
X013894Y025349D01*
X013959Y025326D01*
X014026Y025307D01*
X014093Y025292D01*
X014161Y025280D01*
X014230Y025272D01*
X014298Y025268D01*
X014368Y025268D01*
X014436Y025272D01*
X014505Y025280D01*
X014573Y025292D01*
X014640Y025307D01*
X014707Y025326D01*
X014772Y025349D01*
X014836Y025375D01*
X014898Y025405D01*
X014958Y025439D01*
X015017Y025475D01*
X015073Y025515D01*
X015127Y025558D01*
X015179Y025604D01*
X015228Y025653D01*
X015274Y025704D01*
X015317Y025758D01*
X015357Y025815D01*
X015394Y025873D01*
X015427Y025933D01*
X015457Y025996D01*
X015483Y026059D01*
X015506Y026124D01*
X015526Y026191D01*
X015541Y026258D01*
X015553Y026326D01*
X015560Y026395D01*
X015564Y026464D01*
X015565Y026533D01*
X015561Y026602D01*
X015553Y026670D01*
X015542Y026738D01*
X015526Y026806D01*
X015507Y026872D01*
X015485Y026937D01*
X015459Y027001D01*
X015429Y027063D01*
X015395Y027124D01*
X015359Y027182D01*
X015319Y027239D01*
X015276Y027293D01*
X015230Y027344D01*
X015181Y027393D01*
X015130Y027439D01*
X015076Y027483D01*
X015071Y027475D01*
X015125Y027432D01*
X015176Y027386D01*
X015225Y027336D01*
X015271Y027285D01*
X015314Y027230D01*
X015354Y027173D01*
X015390Y027115D01*
X015424Y027054D01*
X015453Y026991D01*
X015479Y026927D01*
X015501Y026861D01*
X015520Y026794D01*
X015535Y026727D01*
X015546Y026658D01*
X015553Y026589D01*
X015556Y026520D01*
X015555Y026451D01*
X015550Y026381D01*
X015542Y026313D01*
X015529Y026245D01*
X015513Y026177D01*
X015492Y026111D01*
X015469Y026046D01*
X015441Y025982D01*
X015410Y025920D01*
X015375Y025860D01*
X015337Y025802D01*
X015296Y025746D01*
X015252Y025693D01*
X015205Y025642D01*
X015155Y025594D01*
X015102Y025549D01*
X015047Y025507D01*
X014990Y025468D01*
X014930Y025433D01*
X014869Y025401D01*
X014806Y025372D01*
X014741Y025347D01*
X014675Y025326D01*
X014608Y025308D01*
X014540Y025295D01*
X014471Y025285D01*
X014402Y025279D01*
X014333Y025277D01*
X014264Y025279D01*
X014195Y025285D01*
X014126Y025295D01*
X014058Y025308D01*
X013991Y025326D01*
X013925Y025347D01*
X013860Y025372D01*
X013797Y025401D01*
X013736Y025433D01*
X013676Y025468D01*
X013619Y025507D01*
X013564Y025549D01*
X013511Y025594D01*
X013461Y025642D01*
X013414Y025693D01*
X013370Y025746D01*
X013329Y025802D01*
X013291Y025860D01*
X013256Y025920D01*
X013225Y025982D01*
X013197Y026046D01*
X013174Y026111D01*
X013153Y026177D01*
X013137Y026245D01*
X013124Y026313D01*
X013116Y026381D01*
X013111Y026451D01*
X013110Y026520D01*
X013113Y026589D01*
X013120Y026658D01*
X013131Y026727D01*
X013146Y026794D01*
X013165Y026861D01*
X013187Y026927D01*
X013213Y026991D01*
X013242Y027054D01*
X013276Y027115D01*
X013312Y027173D01*
X013352Y027230D01*
X013395Y027285D01*
X013441Y027336D01*
X013490Y027386D01*
X013541Y027432D01*
X013595Y027475D01*
X013601Y027468D01*
X013547Y027425D01*
X013496Y027379D01*
X013447Y027330D01*
X013402Y027279D01*
X013359Y027225D01*
X013320Y027168D01*
X013283Y027110D01*
X013250Y027050D01*
X013221Y026987D01*
X013195Y026924D01*
X013173Y026858D01*
X013155Y026792D01*
X013140Y026725D01*
X013129Y026657D01*
X013122Y026588D01*
X013119Y026520D01*
X013120Y026451D01*
X013125Y026382D01*
X013133Y026314D01*
X013146Y026246D01*
X013162Y026180D01*
X013182Y026114D01*
X013206Y026049D01*
X013233Y025986D01*
X013264Y025925D01*
X013298Y025865D01*
X013336Y025807D01*
X013377Y025752D01*
X013421Y025699D01*
X013468Y025649D01*
X013517Y025601D01*
X013569Y025556D01*
X013624Y025514D01*
X013681Y025476D01*
X013740Y025441D01*
X013801Y025409D01*
X013864Y025380D01*
X013928Y025356D01*
X013994Y025334D01*
X014060Y025317D01*
X014128Y025304D01*
X014196Y025294D01*
X014264Y025288D01*
X014333Y025286D01*
X014402Y025288D01*
X014470Y025294D01*
X014538Y025304D01*
X014606Y025317D01*
X014672Y025334D01*
X014738Y025356D01*
X014802Y025380D01*
X014865Y025409D01*
X014926Y025441D01*
X014985Y025476D01*
X015042Y025514D01*
X015097Y025556D01*
X015149Y025601D01*
X015198Y025649D01*
X015245Y025699D01*
X015289Y025752D01*
X015330Y025807D01*
X015368Y025865D01*
X015402Y025925D01*
X015433Y025986D01*
X015460Y026049D01*
X015484Y026114D01*
X015504Y026180D01*
X015520Y026246D01*
X015533Y026314D01*
X015541Y026382D01*
X015546Y026451D01*
X015547Y026520D01*
X015544Y026588D01*
X015537Y026657D01*
X015526Y026725D01*
X015511Y026792D01*
X015493Y026858D01*
X015471Y026924D01*
X015445Y026987D01*
X015416Y027050D01*
X015383Y027110D01*
X015346Y027168D01*
X015307Y027225D01*
X015264Y027279D01*
X015219Y027330D01*
X015170Y027379D01*
X015119Y027425D01*
X015065Y027468D01*
X014208Y029005D02*
X014158Y029005D01*
X014133Y029030D01*
X014233Y029130D01*
X014233Y029030D01*
X014208Y029005D01*
X014133Y029030D02*
X014133Y029130D01*
X014158Y029155D01*
X014208Y029155D01*
X014233Y029130D01*
X014086Y029005D02*
X013986Y029005D01*
X013938Y029005D02*
X013888Y029055D01*
X013913Y029055D02*
X013838Y029055D01*
X013838Y029005D02*
X013838Y029155D01*
X013913Y029155D01*
X013938Y029130D01*
X013938Y029080D01*
X013913Y029055D01*
X013986Y029105D02*
X014036Y029155D01*
X014036Y029005D01*
X024838Y023655D02*
X024838Y023505D01*
X024838Y023555D02*
X024913Y023555D01*
X024938Y023580D01*
X024938Y023630D01*
X024913Y023655D01*
X024838Y023655D01*
X024888Y023555D02*
X024938Y023505D01*
X024986Y023580D02*
X025086Y023580D01*
X025061Y023505D02*
X025061Y023655D01*
X024986Y023580D01*
X027838Y026210D02*
X027838Y026285D01*
X027863Y026310D01*
X027913Y026310D01*
X027938Y026285D01*
X027938Y026210D01*
X027988Y026210D02*
X027838Y026210D01*
X027938Y026260D02*
X027988Y026310D01*
X027963Y026358D02*
X027988Y026383D01*
X027988Y026433D01*
X027963Y026458D01*
X027938Y026458D01*
X027913Y026433D01*
X027913Y026408D01*
X027913Y026433D02*
X027888Y026458D01*
X027863Y026458D01*
X027838Y026433D01*
X027838Y026383D01*
X027863Y026358D01*
X025586Y029005D02*
X025486Y029005D01*
X025438Y029005D02*
X025388Y029055D01*
X025413Y029055D02*
X025338Y029055D01*
X025338Y029005D02*
X025338Y029155D01*
X025413Y029155D01*
X025438Y029130D01*
X025438Y029080D01*
X025413Y029055D01*
X025486Y029105D02*
X025536Y029155D01*
X025536Y029005D01*
X025586Y030505D02*
X025486Y030505D01*
X025586Y030605D01*
X025586Y030630D01*
X025561Y030655D01*
X025511Y030655D01*
X025486Y030630D01*
X025438Y030630D02*
X025438Y030580D01*
X025413Y030555D01*
X025338Y030555D01*
X025338Y030505D02*
X025338Y030655D01*
X025413Y030655D01*
X025438Y030630D01*
X025388Y030555D02*
X025438Y030505D01*
X018791Y014495D02*
X018691Y014495D01*
X018691Y014420D01*
X018741Y014445D01*
X018766Y014445D01*
X018791Y014420D01*
X018791Y014370D01*
X018766Y014345D01*
X018716Y014345D01*
X018691Y014370D01*
X018644Y014345D02*
X018594Y014395D01*
X018619Y014395D02*
X018544Y014395D01*
X018544Y014345D02*
X018544Y014495D01*
X018619Y014495D01*
X018644Y014470D01*
X018644Y014420D01*
X018619Y014395D01*
X019363Y012958D02*
X019338Y012933D01*
X019338Y012883D01*
X019363Y012858D01*
X019363Y012958D02*
X019388Y012958D01*
X019488Y012858D01*
X019488Y012958D01*
X019488Y012810D02*
X019488Y012710D01*
X019488Y012663D02*
X019438Y012613D01*
X019438Y012638D02*
X019438Y012563D01*
X019488Y012563D02*
X019338Y012563D01*
X019338Y012638D01*
X019363Y012663D01*
X019413Y012663D01*
X019438Y012638D01*
X019388Y012710D02*
X019338Y012760D01*
X019488Y012760D01*
X021338Y010933D02*
X021363Y010958D01*
X021388Y010958D01*
X021413Y010933D01*
X021438Y010958D01*
X021463Y010958D01*
X021488Y010933D01*
X021488Y010883D01*
X021463Y010858D01*
X021488Y010810D02*
X021488Y010710D01*
X021488Y010663D02*
X021438Y010613D01*
X021438Y010638D02*
X021438Y010563D01*
X021488Y010563D02*
X021338Y010563D01*
X021338Y010638D01*
X021363Y010663D01*
X021413Y010663D01*
X021438Y010638D01*
X021388Y010710D02*
X021338Y010760D01*
X021488Y010760D01*
X021363Y010858D02*
X021338Y010883D01*
X021338Y010933D01*
X021413Y010933D02*
X021413Y010908D01*
D15*
X020993Y010710D02*
X020783Y010710D01*
X020713Y010640D01*
X020783Y010570D01*
X020993Y010570D01*
X020993Y010430D02*
X020713Y010430D01*
X020713Y010500D01*
X020783Y010570D01*
X020783Y010249D02*
X020993Y010249D01*
X020783Y010249D02*
X020713Y010179D01*
X020713Y010039D01*
X020783Y009969D01*
X020573Y009969D02*
X020993Y009969D01*
X020923Y009789D02*
X020643Y009789D01*
X020573Y009719D01*
X020573Y009579D01*
X020643Y009509D01*
X020923Y009509D01*
X020993Y009579D01*
X020993Y009719D01*
X020923Y009789D01*
X020923Y008868D02*
X020993Y008798D01*
X020993Y008658D01*
X020923Y008588D01*
X020643Y008868D01*
X020923Y008868D01*
X020643Y008868D02*
X020573Y008798D01*
X020573Y008658D01*
X020643Y008588D01*
X020923Y008588D01*
X020923Y008408D02*
X020993Y008338D01*
X020993Y008198D01*
X020923Y008128D01*
X020923Y007947D02*
X020993Y007877D01*
X020993Y007737D01*
X020923Y007667D01*
X020783Y007807D02*
X020783Y007877D01*
X020853Y007947D01*
X020923Y007947D01*
X020783Y007877D02*
X020713Y007947D01*
X020643Y007947D01*
X020573Y007877D01*
X020573Y007737D01*
X020643Y007667D01*
X020643Y008128D02*
X020573Y008198D01*
X020573Y008338D01*
X020643Y008408D01*
X020713Y008408D01*
X020783Y008338D01*
X020853Y008408D01*
X020923Y008408D01*
X020783Y008338D02*
X020783Y008268D01*
X018993Y009737D02*
X018923Y009667D01*
X018993Y009737D02*
X018993Y009877D01*
X018923Y009947D01*
X018853Y009947D01*
X018783Y009877D01*
X018783Y009807D01*
X018783Y009877D02*
X018713Y009947D01*
X018643Y009947D01*
X018573Y009877D01*
X018573Y009737D01*
X018643Y009667D01*
X018643Y010128D02*
X018573Y010198D01*
X018573Y010338D01*
X018643Y010408D01*
X018713Y010408D01*
X018783Y010338D01*
X018853Y010408D01*
X018923Y010408D01*
X018993Y010338D01*
X018993Y010198D01*
X018923Y010128D01*
X018783Y010268D02*
X018783Y010338D01*
X018643Y010588D02*
X018573Y010658D01*
X018573Y010798D01*
X018643Y010868D01*
X018923Y010588D01*
X018993Y010658D01*
X018993Y010798D01*
X018923Y010868D01*
X018643Y010868D01*
X018643Y010588D02*
X018923Y010588D01*
X018923Y011509D02*
X018643Y011509D01*
X018573Y011579D01*
X018573Y011719D01*
X018643Y011789D01*
X018923Y011789D01*
X018993Y011719D01*
X018993Y011579D01*
X018923Y011509D01*
X018993Y011969D02*
X018573Y011969D01*
X018713Y012039D02*
X018713Y012179D01*
X018783Y012249D01*
X018993Y012249D01*
X018993Y012430D02*
X018713Y012430D01*
X018713Y012500D01*
X018783Y012570D01*
X018713Y012640D01*
X018783Y012710D01*
X018993Y012710D01*
X018993Y012570D02*
X018783Y012570D01*
X018713Y012039D02*
X018783Y011969D01*
X017566Y012240D02*
X017566Y012450D01*
X017496Y012520D01*
X017426Y012450D01*
X017426Y012240D01*
X017286Y012240D02*
X017286Y012520D01*
X017356Y012520D01*
X017426Y012450D01*
X017106Y012450D02*
X017106Y012240D01*
X017106Y012450D02*
X017035Y012520D01*
X016895Y012520D01*
X016825Y012450D01*
X016825Y012660D02*
X016825Y012240D01*
X016645Y012310D02*
X016645Y012590D01*
X016575Y012660D01*
X016435Y012660D01*
X016365Y012590D01*
X016365Y012310D01*
X016435Y012240D01*
X016575Y012240D01*
X016645Y012310D01*
X015724Y012310D02*
X015654Y012240D01*
X015514Y012240D01*
X015444Y012310D01*
X015724Y012590D01*
X015724Y012310D01*
X015444Y012310D02*
X015444Y012590D01*
X015514Y012660D01*
X015654Y012660D01*
X015724Y012590D01*
X015264Y012590D02*
X015264Y012520D01*
X015194Y012450D01*
X015264Y012380D01*
X015264Y012310D01*
X015194Y012240D01*
X015054Y012240D01*
X014984Y012310D01*
X014804Y012310D02*
X014734Y012240D01*
X014593Y012240D01*
X014523Y012310D01*
X014663Y012450D02*
X014734Y012450D01*
X014804Y012380D01*
X014804Y012310D01*
X014734Y012450D02*
X014804Y012520D01*
X014804Y012590D01*
X014734Y012660D01*
X014593Y012660D01*
X014523Y012590D01*
X014984Y012590D02*
X015054Y012660D01*
X015194Y012660D01*
X015264Y012590D01*
X015194Y012450D02*
X015124Y012450D01*
X015083Y011500D02*
X013583Y011500D01*
X013593Y008660D02*
X013734Y008660D01*
X013804Y008590D01*
X013804Y008520D01*
X013734Y008450D01*
X013804Y008380D01*
X013804Y008310D01*
X013734Y008240D01*
X013593Y008240D01*
X013523Y008310D01*
X013663Y008450D02*
X013734Y008450D01*
X013593Y008660D02*
X013523Y008590D01*
X013984Y008590D02*
X014054Y008660D01*
X014194Y008660D01*
X014264Y008590D01*
X014264Y008520D01*
X014194Y008450D01*
X014264Y008380D01*
X014264Y008310D01*
X014194Y008240D01*
X014054Y008240D01*
X013984Y008310D01*
X014124Y008450D02*
X014194Y008450D01*
X014444Y008310D02*
X014444Y008590D01*
X014514Y008660D01*
X014654Y008660D01*
X014724Y008590D01*
X014444Y008310D01*
X014514Y008240D01*
X014654Y008240D01*
X014724Y008310D01*
X014724Y008590D01*
X015365Y008590D02*
X015365Y008310D01*
X015435Y008240D01*
X015575Y008240D01*
X015645Y008310D01*
X015645Y008590D01*
X015575Y008660D01*
X015435Y008660D01*
X015365Y008590D01*
X015825Y008660D02*
X015825Y008240D01*
X015825Y008450D02*
X015895Y008520D01*
X016035Y008520D01*
X016106Y008450D01*
X016106Y008240D01*
X016286Y008240D02*
X016286Y008520D01*
X016356Y008520D01*
X016426Y008450D01*
X016496Y008520D01*
X016566Y008450D01*
X016566Y008240D01*
X016426Y008240D02*
X016426Y008450D01*
X021833Y012750D02*
X022083Y012500D01*
X022583Y012500D01*
X022833Y012750D01*
X022833Y013250D01*
X022583Y013500D01*
X022833Y013750D01*
X022833Y014250D01*
X022583Y014500D01*
X022833Y014750D01*
X022833Y015250D01*
X022583Y015500D01*
X022833Y015750D01*
X022833Y016250D01*
X022583Y016500D01*
X022833Y016750D01*
X022833Y017250D01*
X022583Y017500D01*
X022833Y017750D01*
X022833Y018250D01*
X022583Y018500D01*
X022833Y018750D01*
X022833Y019250D01*
X022583Y019500D01*
X022833Y019750D01*
X022833Y020250D01*
X022583Y020500D01*
X022833Y020750D01*
X022833Y021250D01*
X022583Y021500D01*
X022083Y021500D01*
X021833Y021250D01*
X021833Y020750D01*
X022083Y020500D01*
X021833Y020250D01*
X021833Y019750D01*
X022083Y019500D01*
X021833Y019250D01*
X021833Y018750D01*
X022083Y018500D01*
X021833Y018250D01*
X021833Y017750D01*
X022083Y017500D01*
X021833Y017250D01*
X021833Y016750D01*
X022083Y016500D01*
X021833Y016250D01*
X021833Y015750D01*
X022083Y015500D01*
X021833Y015250D01*
X021833Y014750D01*
X022083Y014500D01*
X021833Y014250D01*
X021833Y013750D01*
X022083Y013500D01*
X021833Y013250D01*
X021833Y012750D01*
X022833Y012750D02*
X023083Y012500D01*
X023583Y012500D01*
X023833Y012750D01*
X023833Y013250D01*
X023583Y013500D01*
X023833Y013750D01*
X023833Y014250D01*
X023583Y014500D01*
X023833Y014750D01*
X023833Y015250D01*
X023583Y015500D01*
X023833Y015750D01*
X023833Y016250D01*
X023583Y016500D01*
X023833Y016750D01*
X023833Y017250D01*
X023583Y017500D01*
X023833Y017750D01*
X023833Y018250D01*
X023583Y018500D01*
X023833Y018750D01*
X023833Y019250D01*
X023583Y019500D01*
X023833Y019750D01*
X023833Y020250D01*
X023583Y020500D01*
X023833Y020750D01*
X023833Y021250D01*
X023583Y021500D01*
X023083Y021500D01*
X022833Y021250D01*
X022833Y020750D01*
X023083Y020500D01*
X022833Y020250D01*
X022833Y019750D01*
X023083Y019500D01*
X022833Y019250D01*
X022833Y018750D01*
X023083Y018500D01*
X022833Y018250D01*
X022833Y017750D01*
X023083Y017500D01*
X022833Y017250D01*
X022833Y016750D01*
X023083Y016500D01*
X022833Y016250D01*
X022833Y015750D01*
X023083Y015500D01*
X022833Y015250D01*
X022833Y014750D01*
X023083Y014500D01*
X022833Y014250D01*
X022833Y013750D01*
X023083Y013500D01*
X022833Y013250D01*
X022833Y012750D01*
X023833Y012750D02*
X023833Y013250D01*
X024083Y013500D01*
X023833Y013750D01*
X023833Y014250D01*
X024083Y014500D01*
X023833Y014750D01*
X023833Y015250D01*
X024083Y015500D01*
X023833Y015750D01*
X023833Y016250D01*
X024083Y016500D01*
X023833Y016750D01*
X023833Y017250D01*
X024083Y017500D01*
X023833Y017750D01*
X023833Y018250D01*
X024083Y018500D01*
X023833Y018750D01*
X023833Y019250D01*
X024083Y019500D01*
X023833Y019750D01*
X023833Y020250D01*
X024083Y020500D01*
X023833Y020750D01*
X023833Y021250D01*
X024083Y021500D01*
X024583Y021500D01*
X024833Y021250D01*
X024833Y020750D01*
X024583Y020500D01*
X024833Y020250D01*
X024833Y019750D01*
X024583Y019500D01*
X024833Y019250D01*
X024833Y018750D01*
X024583Y018500D01*
X024833Y018250D01*
X024833Y017750D01*
X024583Y017500D01*
X024833Y017250D01*
X024833Y016750D01*
X024583Y016500D01*
X024833Y016250D01*
X024833Y015750D01*
X024583Y015500D01*
X024833Y015250D01*
X024833Y014750D01*
X024583Y014500D01*
X024833Y014250D01*
X024833Y013750D01*
X024583Y013500D01*
X024833Y013250D01*
X024833Y012750D01*
X024583Y012500D01*
X024083Y012500D01*
X023833Y012750D01*
X024833Y012750D02*
X024833Y013250D01*
X025083Y013500D01*
X024833Y013750D01*
X024833Y014250D01*
X025083Y014500D01*
X024833Y014750D01*
X024833Y015250D01*
X025083Y015500D01*
X024833Y015750D01*
X024833Y016250D01*
X025083Y016500D01*
X024833Y016750D01*
X024833Y017250D01*
X025083Y017500D01*
X024833Y017750D01*
X024833Y018250D01*
X025083Y018500D01*
X024833Y018750D01*
X024833Y019250D01*
X025083Y019500D01*
X024833Y019750D01*
X024833Y020250D01*
X025083Y020500D01*
X024833Y020750D01*
X024833Y021250D01*
X025083Y021500D01*
X025583Y021500D01*
X025833Y021250D01*
X025833Y020750D01*
X025583Y020500D01*
X025833Y020250D01*
X025833Y019750D01*
X025583Y019500D01*
X025833Y019250D01*
X025833Y018750D01*
X025583Y018500D01*
X025833Y018250D01*
X025833Y017750D01*
X025583Y017500D01*
X025833Y017250D01*
X025833Y016750D01*
X025583Y016500D01*
X025833Y016250D01*
X025833Y015750D01*
X025583Y015500D01*
X025833Y015250D01*
X025833Y014750D01*
X025583Y014500D01*
X025833Y014250D01*
X025833Y013750D01*
X025583Y013500D01*
X025833Y013250D01*
X025833Y012750D01*
X025583Y012500D01*
X025083Y012500D01*
X024833Y012750D01*
X025833Y012750D02*
X026083Y012500D01*
X026583Y012500D01*
X026833Y012750D01*
X026833Y013250D01*
X026583Y013500D01*
X026833Y013750D01*
X026833Y014250D01*
X026583Y014500D01*
X026833Y014750D01*
X026833Y015250D01*
X026583Y015500D01*
X026833Y015750D01*
X026833Y016250D01*
X026583Y016500D01*
X026833Y016750D01*
X026833Y017250D01*
X026583Y017500D01*
X026833Y017750D01*
X026833Y018250D01*
X026583Y018500D01*
X026833Y018750D01*
X026833Y019250D01*
X026583Y019500D01*
X026833Y019750D01*
X026833Y020250D01*
X026583Y020500D01*
X026833Y020750D01*
X026833Y021250D01*
X026583Y021500D01*
X026083Y021500D01*
X025833Y021250D01*
X025833Y020750D01*
X026083Y020500D01*
X025833Y020250D01*
X025833Y019750D01*
X026083Y019500D01*
X025833Y019250D01*
X025833Y018750D01*
X026083Y018500D01*
X025833Y018250D01*
X025833Y017750D01*
X026083Y017500D01*
X025833Y017250D01*
X025833Y016750D01*
X026083Y016500D01*
X025833Y016250D01*
X025833Y015750D01*
X026083Y015500D01*
X025833Y015250D01*
X025833Y014750D01*
X026083Y014500D01*
X025833Y014250D01*
X025833Y013750D01*
X026083Y013500D01*
X025833Y013250D01*
X025833Y012750D01*
X026833Y012750D02*
X027083Y012500D01*
X027583Y012500D01*
X027833Y012750D01*
X027833Y013250D01*
X027583Y013500D01*
X027833Y013750D01*
X027833Y014250D01*
X027583Y014500D01*
X027833Y014750D01*
X027833Y015250D01*
X027583Y015500D01*
X027833Y015750D01*
X027833Y016250D01*
X027583Y016500D01*
X027833Y016750D01*
X027833Y017250D01*
X027583Y017500D01*
X027833Y017750D01*
X027833Y018250D01*
X027583Y018500D01*
X027833Y018750D01*
X027833Y019250D01*
X027583Y019500D01*
X027833Y019750D01*
X027833Y020250D01*
X027583Y020500D01*
X027833Y020750D01*
X027833Y021250D01*
X027583Y021500D01*
X027083Y021500D01*
X026833Y021250D01*
X026833Y020750D01*
X027083Y020500D01*
X026833Y020250D01*
X026833Y019750D01*
X027083Y019500D01*
X026833Y019250D01*
X026833Y018750D01*
X027083Y018500D01*
X026833Y018250D01*
X026833Y017750D01*
X027083Y017500D01*
X026833Y017250D01*
X026833Y016750D01*
X027083Y016500D01*
X026833Y016250D01*
X026833Y015750D01*
X027083Y015500D01*
X026833Y015250D01*
X026833Y014750D01*
X027083Y014500D01*
X026833Y014250D01*
X026833Y013750D01*
X027083Y013500D01*
X026833Y013250D01*
X026833Y012750D01*
X021621Y014606D02*
X021621Y015394D01*
X021616Y015438D01*
X021607Y015482D01*
X021596Y015526D01*
X021580Y015568D01*
X021562Y015609D01*
X021540Y015648D01*
X021516Y015685D01*
X021488Y015721D01*
X021458Y015754D01*
X021425Y015784D01*
X021390Y015812D01*
X021353Y015837D01*
X021314Y015859D01*
X021273Y015878D01*
X021231Y015893D01*
X021188Y015905D01*
X020479Y015905D02*
X020436Y015893D01*
X020394Y015878D01*
X020353Y015859D01*
X020314Y015837D01*
X020277Y015812D01*
X020242Y015784D01*
X020209Y015754D01*
X020179Y015721D01*
X020151Y015685D01*
X020127Y015648D01*
X020105Y015609D01*
X020087Y015568D01*
X020071Y015526D01*
X020060Y015482D01*
X020051Y015438D01*
X020046Y015394D01*
X020046Y014606D01*
X020051Y014562D01*
X020060Y014518D01*
X020071Y014474D01*
X020087Y014432D01*
X020105Y014391D01*
X020127Y014352D01*
X020151Y014315D01*
X020179Y014279D01*
X020209Y014246D01*
X020242Y014216D01*
X020277Y014188D01*
X020314Y014163D01*
X020353Y014141D01*
X020394Y014122D01*
X020436Y014107D01*
X020479Y014095D01*
X021188Y014095D02*
X021231Y014107D01*
X021273Y014122D01*
X021314Y014141D01*
X021353Y014163D01*
X021390Y014188D01*
X021425Y014216D01*
X021458Y014246D01*
X021488Y014279D01*
X021516Y014315D01*
X021540Y014352D01*
X021562Y014391D01*
X021580Y014432D01*
X021596Y014474D01*
X021607Y014518D01*
X021616Y014562D01*
X021621Y014606D01*
X018543Y014840D02*
X018543Y015050D01*
X018473Y015120D01*
X018403Y015050D01*
X018403Y014840D01*
X018263Y014840D02*
X018263Y015120D01*
X018333Y015120D01*
X018403Y015050D01*
X018083Y015050D02*
X018083Y014840D01*
X018083Y015050D02*
X018013Y015120D01*
X017873Y015120D01*
X017803Y015050D01*
X017803Y015260D02*
X017803Y014840D01*
X017622Y014910D02*
X017622Y015190D01*
X017552Y015260D01*
X017412Y015260D01*
X017342Y015190D01*
X017342Y014910D01*
X017412Y014840D01*
X017552Y014840D01*
X017622Y014910D01*
X016702Y014840D02*
X016491Y015050D01*
X016421Y014980D02*
X016702Y015260D01*
X016421Y015260D02*
X016421Y014840D01*
X016241Y014910D02*
X016241Y015190D01*
X015961Y014910D01*
X016031Y014840D01*
X016171Y014840D01*
X016241Y014910D01*
X015961Y014910D02*
X015961Y015190D01*
X016031Y015260D01*
X016171Y015260D01*
X016241Y015190D01*
X015781Y014840D02*
X015501Y014840D01*
X015641Y014840D02*
X015641Y015260D01*
X015501Y015120D01*
X015083Y015500D02*
X013583Y015500D01*
X014523Y016310D02*
X014593Y016240D01*
X014734Y016240D01*
X014804Y016310D01*
X014804Y016380D01*
X014734Y016450D01*
X014663Y016450D01*
X014734Y016450D02*
X014804Y016520D01*
X014804Y016590D01*
X014734Y016660D01*
X014593Y016660D01*
X014523Y016590D01*
X014984Y016590D02*
X015054Y016660D01*
X015194Y016660D01*
X015264Y016590D01*
X015264Y016520D01*
X015194Y016450D01*
X015264Y016380D01*
X015264Y016310D01*
X015194Y016240D01*
X015054Y016240D01*
X014984Y016310D01*
X015124Y016450D02*
X015194Y016450D01*
X015444Y016310D02*
X015724Y016590D01*
X015724Y016310D01*
X015654Y016240D01*
X015514Y016240D01*
X015444Y016310D01*
X015444Y016590D01*
X015514Y016660D01*
X015654Y016660D01*
X015724Y016590D01*
X016365Y016590D02*
X016365Y016310D01*
X016435Y016240D01*
X016575Y016240D01*
X016645Y016310D01*
X016645Y016590D01*
X016575Y016660D01*
X016435Y016660D01*
X016365Y016590D01*
X016825Y016660D02*
X016825Y016240D01*
X016825Y016450D02*
X016895Y016520D01*
X017035Y016520D01*
X017106Y016450D01*
X017106Y016240D01*
X017286Y016240D02*
X017286Y016520D01*
X017356Y016520D01*
X017426Y016450D01*
X017496Y016520D01*
X017566Y016450D01*
X017566Y016240D01*
X017426Y016240D02*
X017426Y016450D01*
X017010Y018500D02*
X017012Y018596D01*
X017018Y018692D01*
X017028Y018787D01*
X017042Y018882D01*
X017059Y018977D01*
X017081Y019070D01*
X017107Y019163D01*
X017136Y019254D01*
X017169Y019344D01*
X017206Y019433D01*
X017246Y019520D01*
X017290Y019606D01*
X017337Y019689D01*
X017388Y019771D01*
X017442Y019850D01*
X017500Y019927D01*
X017560Y020001D01*
X017624Y020073D01*
X017690Y020143D01*
X017760Y020209D01*
X017832Y020273D01*
X017906Y020333D01*
X017983Y020391D01*
X018062Y020445D01*
X018144Y020496D01*
X018227Y020543D01*
X018313Y020587D01*
X018400Y020627D01*
X018489Y020664D01*
X018579Y020697D01*
X018670Y020726D01*
X018763Y020752D01*
X018856Y020774D01*
X018951Y020791D01*
X019046Y020805D01*
X019141Y020815D01*
X019237Y020821D01*
X019333Y020823D01*
X019429Y020821D01*
X019525Y020815D01*
X019620Y020805D01*
X019715Y020791D01*
X019810Y020774D01*
X019903Y020752D01*
X019996Y020726D01*
X020087Y020697D01*
X020177Y020664D01*
X020266Y020627D01*
X020353Y020587D01*
X020439Y020543D01*
X020522Y020496D01*
X020604Y020445D01*
X020683Y020391D01*
X020760Y020333D01*
X020834Y020273D01*
X020906Y020209D01*
X020976Y020143D01*
X021042Y020073D01*
X021106Y020001D01*
X021166Y019927D01*
X021224Y019850D01*
X021278Y019771D01*
X021329Y019689D01*
X021376Y019606D01*
X021420Y019520D01*
X021460Y019433D01*
X021497Y019344D01*
X021530Y019254D01*
X021559Y019163D01*
X021585Y019070D01*
X021607Y018977D01*
X021624Y018882D01*
X021638Y018787D01*
X021648Y018692D01*
X021654Y018596D01*
X021656Y018500D01*
X021654Y018404D01*
X021648Y018308D01*
X021638Y018213D01*
X021624Y018118D01*
X021607Y018023D01*
X021585Y017930D01*
X021559Y017837D01*
X021530Y017746D01*
X021497Y017656D01*
X021460Y017567D01*
X021420Y017480D01*
X021376Y017394D01*
X021329Y017311D01*
X021278Y017229D01*
X021224Y017150D01*
X021166Y017073D01*
X021106Y016999D01*
X021042Y016927D01*
X020976Y016857D01*
X020906Y016791D01*
X020834Y016727D01*
X020760Y016667D01*
X020683Y016609D01*
X020604Y016555D01*
X020522Y016504D01*
X020439Y016457D01*
X020353Y016413D01*
X020266Y016373D01*
X020177Y016336D01*
X020087Y016303D01*
X019996Y016274D01*
X019903Y016248D01*
X019810Y016226D01*
X019715Y016209D01*
X019620Y016195D01*
X019525Y016185D01*
X019429Y016179D01*
X019333Y016177D01*
X019237Y016179D01*
X019141Y016185D01*
X019046Y016195D01*
X018951Y016209D01*
X018856Y016226D01*
X018763Y016248D01*
X018670Y016274D01*
X018579Y016303D01*
X018489Y016336D01*
X018400Y016373D01*
X018313Y016413D01*
X018227Y016457D01*
X018144Y016504D01*
X018062Y016555D01*
X017983Y016609D01*
X017906Y016667D01*
X017832Y016727D01*
X017760Y016791D01*
X017690Y016857D01*
X017624Y016927D01*
X017560Y016999D01*
X017500Y017073D01*
X017442Y017150D01*
X017388Y017229D01*
X017337Y017311D01*
X017290Y017394D01*
X017246Y017480D01*
X017206Y017567D01*
X017169Y017656D01*
X017136Y017746D01*
X017107Y017837D01*
X017081Y017930D01*
X017059Y018023D01*
X017042Y018118D01*
X017028Y018213D01*
X017018Y018308D01*
X017012Y018404D01*
X017010Y018500D01*
X015083Y019500D02*
X013583Y019500D01*
X014093Y020240D02*
X014023Y020310D01*
X014093Y020240D02*
X014234Y020240D01*
X014304Y020310D01*
X014304Y020380D01*
X014234Y020450D01*
X014163Y020450D01*
X014234Y020450D02*
X014304Y020520D01*
X014304Y020590D01*
X014234Y020660D01*
X014093Y020660D01*
X014023Y020590D01*
X014484Y020590D02*
X014554Y020660D01*
X014694Y020660D01*
X014764Y020590D01*
X014764Y020520D01*
X014694Y020450D01*
X014764Y020380D01*
X014764Y020310D01*
X014694Y020240D01*
X014554Y020240D01*
X014484Y020310D01*
X014624Y020450D02*
X014694Y020450D01*
X014944Y020310D02*
X015224Y020590D01*
X015224Y020310D01*
X015154Y020240D01*
X015014Y020240D01*
X014944Y020310D01*
X014944Y020590D01*
X015014Y020660D01*
X015154Y020660D01*
X015224Y020590D01*
X015865Y020590D02*
X015865Y020310D01*
X015935Y020240D01*
X016075Y020240D01*
X016145Y020310D01*
X016145Y020590D01*
X016075Y020660D01*
X015935Y020660D01*
X015865Y020590D01*
X016325Y020660D02*
X016325Y020240D01*
X016325Y020450D02*
X016395Y020520D01*
X016535Y020520D01*
X016606Y020450D01*
X016606Y020240D01*
X016786Y020240D02*
X016786Y020520D01*
X016856Y020520D01*
X016926Y020450D01*
X016996Y020520D01*
X017066Y020450D01*
X017066Y020240D01*
X016926Y020240D02*
X016926Y020450D01*
X015083Y023500D02*
X013583Y023500D01*
X014093Y024240D02*
X014023Y024310D01*
X014093Y024240D02*
X014234Y024240D01*
X014304Y024310D01*
X014304Y024380D01*
X014234Y024450D01*
X014163Y024450D01*
X014234Y024450D02*
X014304Y024520D01*
X014304Y024590D01*
X014234Y024660D01*
X014093Y024660D01*
X014023Y024590D01*
X014484Y024590D02*
X014554Y024660D01*
X014694Y024660D01*
X014764Y024590D01*
X014764Y024520D01*
X014694Y024450D01*
X014764Y024380D01*
X014764Y024310D01*
X014694Y024240D01*
X014554Y024240D01*
X014484Y024310D01*
X014624Y024450D02*
X014694Y024450D01*
X014944Y024310D02*
X015224Y024590D01*
X015224Y024310D01*
X015154Y024240D01*
X015014Y024240D01*
X014944Y024310D01*
X014944Y024590D01*
X015014Y024660D01*
X015154Y024660D01*
X015224Y024590D01*
X015865Y024590D02*
X015865Y024310D01*
X015935Y024240D01*
X016075Y024240D01*
X016145Y024310D01*
X016145Y024590D01*
X016075Y024660D01*
X015935Y024660D01*
X015865Y024590D01*
X016325Y024660D02*
X016325Y024240D01*
X016325Y024450D02*
X016395Y024520D01*
X016535Y024520D01*
X016606Y024450D01*
X016606Y024240D01*
X016786Y024240D02*
X016786Y024520D01*
X016856Y024520D01*
X016926Y024450D01*
X016996Y024520D01*
X017066Y024450D01*
X017066Y024240D01*
X016926Y024240D02*
X016926Y024450D01*
X015083Y027500D02*
X013583Y027500D01*
X014093Y028240D02*
X014023Y028310D01*
X014093Y028240D02*
X014234Y028240D01*
X014304Y028310D01*
X014304Y028380D01*
X014234Y028450D01*
X014163Y028450D01*
X014234Y028450D02*
X014304Y028520D01*
X014304Y028590D01*
X014234Y028660D01*
X014093Y028660D01*
X014023Y028590D01*
X014484Y028590D02*
X014554Y028660D01*
X014694Y028660D01*
X014764Y028590D01*
X014764Y028520D01*
X014694Y028450D01*
X014764Y028380D01*
X014764Y028310D01*
X014694Y028240D01*
X014554Y028240D01*
X014484Y028310D01*
X014624Y028450D02*
X014694Y028450D01*
X014944Y028310D02*
X015224Y028590D01*
X015224Y028310D01*
X015154Y028240D01*
X015014Y028240D01*
X014944Y028310D01*
X014944Y028590D01*
X015014Y028660D01*
X015154Y028660D01*
X015224Y028590D01*
X015865Y028590D02*
X015865Y028310D01*
X015935Y028240D01*
X016075Y028240D01*
X016145Y028310D01*
X016145Y028590D01*
X016075Y028660D01*
X015935Y028660D01*
X015865Y028590D01*
X016325Y028660D02*
X016325Y028240D01*
X016325Y028450D02*
X016395Y028520D01*
X016535Y028520D01*
X016606Y028450D01*
X016606Y028240D01*
X016786Y028240D02*
X016786Y028520D01*
X016856Y028520D01*
X016926Y028450D01*
X016996Y028520D01*
X017066Y028450D01*
X017066Y028240D01*
X016926Y028240D02*
X016926Y028450D01*
X025023Y023020D02*
X025163Y023160D01*
X025163Y022740D01*
X025023Y022740D02*
X025304Y022740D01*
X025484Y022810D02*
X025764Y023090D01*
X025764Y022810D01*
X025694Y022740D01*
X025554Y022740D01*
X025484Y022810D01*
X025484Y023090D01*
X025554Y023160D01*
X025694Y023160D01*
X025764Y023090D01*
X025944Y023160D02*
X025944Y022740D01*
X025944Y022880D02*
X026224Y023160D01*
X026014Y022950D02*
X026224Y022740D01*
X026865Y022810D02*
X026935Y022740D01*
X027075Y022740D01*
X027145Y022810D01*
X027145Y023090D01*
X027075Y023160D01*
X026935Y023160D01*
X026865Y023090D01*
X026865Y022810D01*
X027325Y022740D02*
X027325Y023160D01*
X027213Y023167D02*
X027073Y023307D01*
X027493Y023307D01*
X027493Y023167D02*
X027493Y023447D01*
X027423Y023628D02*
X027143Y023908D01*
X027423Y023908D01*
X027493Y023838D01*
X027493Y023698D01*
X027423Y023628D01*
X027143Y023628D01*
X027073Y023698D01*
X027073Y023838D01*
X027143Y023908D01*
X027073Y024088D02*
X027493Y024088D01*
X027353Y024088D02*
X027073Y024368D01*
X027283Y024158D02*
X027493Y024368D01*
X027423Y025009D02*
X027493Y025079D01*
X027493Y025219D01*
X027423Y025289D01*
X027143Y025289D01*
X027073Y025219D01*
X027073Y025079D01*
X027143Y025009D01*
X027423Y025009D01*
X027493Y025469D02*
X027073Y025469D01*
X027213Y025539D02*
X027213Y025679D01*
X027283Y025749D01*
X027493Y025749D01*
X027493Y025930D02*
X027213Y025930D01*
X027213Y026000D01*
X027283Y026070D01*
X027213Y026140D01*
X027283Y026210D01*
X027493Y026210D01*
X027493Y026070D02*
X027283Y026070D01*
X027213Y025539D02*
X027283Y025469D01*
X027395Y023020D02*
X027535Y023020D01*
X027606Y022950D01*
X027606Y022740D01*
X027786Y022740D02*
X027786Y023020D01*
X027856Y023020D01*
X027926Y022950D01*
X027996Y023020D01*
X028066Y022950D01*
X028066Y022740D01*
X027926Y022740D02*
X027926Y022950D01*
X027395Y023020D02*
X027325Y022950D01*
X027435Y028240D02*
X027575Y028240D01*
X027645Y028310D01*
X027645Y028590D01*
X027575Y028660D01*
X027435Y028660D01*
X027365Y028590D01*
X027365Y028310D01*
X027435Y028240D01*
X027825Y028240D02*
X027825Y028660D01*
X027895Y028520D02*
X028035Y028520D01*
X028106Y028450D01*
X028106Y028240D01*
X028286Y028240D02*
X028286Y028520D01*
X028356Y028520D01*
X028426Y028450D01*
X028496Y028520D01*
X028566Y028450D01*
X028566Y028240D01*
X028426Y028240D02*
X028426Y028450D01*
X027895Y028520D02*
X027825Y028450D01*
X026724Y028240D02*
X026514Y028450D01*
X026444Y028380D02*
X026724Y028660D01*
X026444Y028660D02*
X026444Y028240D01*
X026264Y028310D02*
X026194Y028240D01*
X026054Y028240D01*
X025984Y028310D01*
X026264Y028590D01*
X026264Y028310D01*
X025984Y028310D02*
X025984Y028590D01*
X026054Y028660D01*
X026194Y028660D01*
X026264Y028590D01*
X025804Y028240D02*
X025523Y028240D01*
X025663Y028240D02*
X025663Y028660D01*
X025523Y028520D01*
X025523Y029740D02*
X025804Y029740D01*
X025663Y029740D02*
X025663Y030160D01*
X025523Y030020D01*
X025984Y030090D02*
X025984Y029810D01*
X026264Y030090D01*
X026264Y029810D01*
X026194Y029740D01*
X026054Y029740D01*
X025984Y029810D01*
X025984Y030090D02*
X026054Y030160D01*
X026194Y030160D01*
X026264Y030090D01*
X026444Y030160D02*
X026444Y029740D01*
X026444Y029880D02*
X026724Y030160D01*
X026514Y029950D02*
X026724Y029740D01*
X027365Y029810D02*
X027365Y030090D01*
X027435Y030160D01*
X027575Y030160D01*
X027645Y030090D01*
X027645Y029810D01*
X027575Y029740D01*
X027435Y029740D01*
X027365Y029810D01*
X027825Y029740D02*
X027825Y030160D01*
X027895Y030020D02*
X028035Y030020D01*
X028106Y029950D01*
X028106Y029740D01*
X028286Y029740D02*
X028286Y030020D01*
X028356Y030020D01*
X028426Y029950D01*
X028496Y030020D01*
X028566Y029950D01*
X028566Y029740D01*
X028426Y029740D02*
X028426Y029950D01*
X027895Y030020D02*
X027825Y029950D01*
D16*
X025014Y027181D02*
X025014Y024819D01*
X022652Y024819D01*
X022652Y027181D01*
X025014Y027181D01*
X022514Y027819D02*
X020152Y027819D01*
X020152Y030181D01*
X022514Y030181D01*
X022514Y027819D01*
X020014Y027181D02*
X020014Y024819D01*
X017652Y024819D01*
X017652Y027181D01*
X020014Y027181D01*
X020152Y024181D02*
X020152Y021819D01*
X022514Y021819D01*
X022514Y024181D01*
X020152Y024181D01*
X023078Y021395D02*
X023153Y021245D01*
X023303Y021095D01*
X023303Y021320D01*
X023378Y021395D01*
X023453Y021395D01*
X023528Y021320D01*
X023528Y021170D01*
X023453Y021095D01*
X023303Y021095D01*
X023303Y020934D02*
X023378Y020859D01*
X023378Y020634D01*
X023528Y020634D02*
X023078Y020634D01*
X023078Y020859D01*
X023153Y020934D01*
X023303Y020934D01*
X023078Y020474D02*
X023078Y020324D01*
X023078Y020399D02*
X023453Y020399D01*
X023528Y020324D01*
X023528Y020249D01*
X023453Y020174D01*
X024078Y020324D02*
X024078Y020474D01*
X024078Y020399D02*
X024453Y020399D01*
X024528Y020324D01*
X024528Y020249D01*
X024453Y020174D01*
X024378Y020634D02*
X024378Y020859D01*
X024303Y020934D01*
X024153Y020934D01*
X024078Y020859D01*
X024078Y020634D01*
X024528Y020634D01*
X024453Y021095D02*
X024528Y021170D01*
X024528Y021320D01*
X024453Y021395D01*
X024303Y021395D01*
X024228Y021320D01*
X024228Y021245D01*
X024303Y021095D01*
X024078Y021095D01*
X024078Y021395D01*
X025078Y021320D02*
X025303Y021095D01*
X025303Y021395D01*
X025528Y021320D02*
X025078Y021320D01*
X025153Y020934D02*
X025303Y020934D01*
X025378Y020859D01*
X025378Y020634D01*
X025528Y020634D02*
X025078Y020634D01*
X025078Y020859D01*
X025153Y020934D01*
X025078Y020474D02*
X025078Y020324D01*
X025078Y020399D02*
X025453Y020399D01*
X025528Y020324D01*
X025528Y020249D01*
X025453Y020174D01*
X026078Y020324D02*
X026078Y020474D01*
X026078Y020399D02*
X026453Y020399D01*
X026528Y020324D01*
X026528Y020249D01*
X026453Y020174D01*
X027078Y020324D02*
X027078Y020474D01*
X027078Y020399D02*
X027453Y020399D01*
X027528Y020324D01*
X027528Y020249D01*
X027453Y020174D01*
X027378Y020634D02*
X027378Y020859D01*
X027303Y020934D01*
X027153Y020934D01*
X027078Y020859D01*
X027078Y020634D01*
X027528Y020634D01*
X027528Y021095D02*
X027228Y021395D01*
X027153Y021395D01*
X027078Y021320D01*
X027078Y021170D01*
X027153Y021095D01*
X027528Y021095D02*
X027528Y021395D01*
X028078Y021245D02*
X028228Y021095D01*
X028153Y020934D02*
X028303Y020934D01*
X028378Y020859D01*
X028378Y020634D01*
X028528Y020634D02*
X028078Y020634D01*
X028078Y020859D01*
X028153Y020934D01*
X028078Y021245D02*
X028528Y021245D01*
X028528Y021095D02*
X028528Y021395D01*
X028453Y020399D02*
X028078Y020399D01*
X028078Y020324D02*
X028078Y020474D01*
X028453Y020399D02*
X028528Y020324D01*
X028528Y020249D01*
X028453Y020174D01*
X026528Y020634D02*
X026078Y020634D01*
X026078Y020859D01*
X026153Y020934D01*
X026303Y020934D01*
X026378Y020859D01*
X026378Y020634D01*
X026453Y021095D02*
X026528Y021170D01*
X026528Y021320D01*
X026453Y021395D01*
X026378Y021395D01*
X026303Y021320D01*
X026303Y021245D01*
X026303Y021320D02*
X026228Y021395D01*
X026153Y021395D01*
X026078Y021320D01*
X026078Y021170D01*
X026153Y021095D01*
X014098Y021231D02*
X014023Y021156D01*
X014098Y021231D02*
X014098Y021381D01*
X014023Y021456D01*
X013948Y021456D01*
X013873Y021381D01*
X013873Y021306D01*
X013873Y021381D02*
X013798Y021456D01*
X013723Y021456D01*
X013648Y021381D01*
X013648Y021231D01*
X013723Y021156D01*
X013723Y020996D02*
X013648Y020921D01*
X013648Y020696D01*
X014098Y020696D01*
X014098Y020921D01*
X014023Y020996D01*
X013723Y020996D01*
X013648Y020536D02*
X013648Y020235D01*
X014098Y020235D01*
X014098Y020536D01*
X013873Y020386D02*
X013873Y020235D01*
X014098Y020075D02*
X014098Y019775D01*
X013648Y019775D01*
X013723Y017456D02*
X013648Y017381D01*
X013648Y017231D01*
X013723Y017156D01*
X013723Y016996D02*
X013648Y016921D01*
X013648Y016696D01*
X014098Y016696D01*
X014098Y016921D01*
X014023Y016996D01*
X013723Y016996D01*
X014098Y017156D02*
X013798Y017456D01*
X013723Y017456D01*
X014098Y017456D02*
X014098Y017156D01*
X014098Y016536D02*
X014098Y016235D01*
X013648Y016235D01*
X013648Y016536D01*
X013873Y016386D02*
X013873Y016235D01*
X014098Y016075D02*
X014098Y015775D01*
X013648Y015775D01*
X014098Y013456D02*
X014098Y013156D01*
X014098Y013306D02*
X013648Y013306D01*
X013798Y013156D01*
X013723Y012996D02*
X013648Y012921D01*
X013648Y012696D01*
X014098Y012696D01*
X014098Y012921D01*
X014023Y012996D01*
X013723Y012996D01*
X013648Y012536D02*
X013648Y012235D01*
X014098Y012235D01*
X014098Y012536D01*
X013873Y012386D02*
X013873Y012235D01*
X014098Y012075D02*
X014098Y011775D01*
X013648Y011775D01*
X016833Y009750D02*
X016833Y008250D01*
X017233Y008250D02*
X017233Y009000D01*
X017933Y009000D01*
X017933Y008250D01*
X017233Y008250D01*
X016849Y009000D02*
X016851Y009062D01*
X016857Y009125D01*
X016867Y009186D01*
X016881Y009247D01*
X016898Y009307D01*
X016919Y009366D01*
X016945Y009423D01*
X016973Y009478D01*
X017005Y009532D01*
X017041Y009583D01*
X017079Y009633D01*
X017121Y009679D01*
X017165Y009723D01*
X017213Y009764D01*
X017262Y009802D01*
X017314Y009836D01*
X017368Y009867D01*
X017424Y009895D01*
X017482Y009919D01*
X017541Y009940D01*
X017601Y009956D01*
X017662Y009969D01*
X017724Y009978D01*
X017786Y009983D01*
X017849Y009984D01*
X017911Y009981D01*
X017973Y009974D01*
X018035Y009963D01*
X018095Y009948D01*
X018155Y009930D01*
X018213Y009908D01*
X018270Y009882D01*
X018325Y009852D01*
X018378Y009819D01*
X018429Y009783D01*
X018477Y009744D01*
X018523Y009701D01*
X018566Y009656D01*
X018606Y009608D01*
X018643Y009558D01*
X018677Y009505D01*
X018708Y009451D01*
X018734Y009395D01*
X018758Y009337D01*
X018777Y009277D01*
X018793Y009217D01*
X018805Y009155D01*
X018813Y009094D01*
X018817Y009031D01*
X018817Y008969D01*
X018813Y008906D01*
X018805Y008845D01*
X018793Y008783D01*
X018777Y008723D01*
X018758Y008663D01*
X018734Y008605D01*
X018708Y008549D01*
X018677Y008495D01*
X018643Y008442D01*
X018606Y008392D01*
X018566Y008344D01*
X018523Y008299D01*
X018477Y008256D01*
X018429Y008217D01*
X018378Y008181D01*
X018325Y008148D01*
X018270Y008118D01*
X018213Y008092D01*
X018155Y008070D01*
X018095Y008052D01*
X018035Y008037D01*
X017973Y008026D01*
X017911Y008019D01*
X017849Y008016D01*
X017786Y008017D01*
X017724Y008022D01*
X017662Y008031D01*
X017601Y008044D01*
X017541Y008060D01*
X017482Y008081D01*
X017424Y008105D01*
X017368Y008133D01*
X017314Y008164D01*
X017262Y008198D01*
X017213Y008236D01*
X017165Y008277D01*
X017121Y008321D01*
X017079Y008367D01*
X017041Y008417D01*
X017005Y008468D01*
X016973Y008522D01*
X016945Y008577D01*
X016919Y008634D01*
X016898Y008693D01*
X016881Y008753D01*
X016867Y008814D01*
X016857Y008875D01*
X016851Y008938D01*
X016849Y009000D01*
X016833Y008250D02*
X016876Y008196D01*
X016922Y008144D01*
X016971Y008095D01*
X017023Y008048D01*
X017077Y008005D01*
X017133Y007964D01*
X017192Y007927D01*
X017252Y007893D01*
X017315Y007863D01*
X017378Y007836D01*
X017444Y007812D01*
X017510Y007792D01*
X017578Y007776D01*
X017646Y007764D01*
X017715Y007756D01*
X017784Y007751D01*
X017854Y007750D01*
X017923Y007753D01*
X017992Y007760D01*
X018060Y007771D01*
X018128Y007785D01*
X018195Y007804D01*
X018261Y007826D01*
X018326Y007851D01*
X018389Y007880D01*
X018450Y007913D01*
X018509Y007949D01*
X018566Y007988D01*
X018622Y008030D01*
X018674Y008075D01*
X018724Y008123D01*
X018771Y008174D01*
X018816Y008228D01*
X018857Y008283D01*
X018895Y008341D01*
X018930Y008401D01*
X018962Y008463D01*
X018990Y008526D01*
X019014Y008591D01*
X019035Y008657D01*
X019052Y008725D01*
X019066Y008793D01*
X019075Y008862D01*
X019081Y008931D01*
X019083Y009000D01*
X019081Y009069D01*
X019075Y009138D01*
X019066Y009207D01*
X019052Y009275D01*
X019035Y009343D01*
X019014Y009409D01*
X018990Y009474D01*
X018962Y009537D01*
X018930Y009599D01*
X018895Y009659D01*
X018857Y009717D01*
X018816Y009772D01*
X018771Y009826D01*
X018724Y009877D01*
X018674Y009925D01*
X018622Y009970D01*
X018566Y010012D01*
X018509Y010051D01*
X018450Y010087D01*
X018389Y010120D01*
X018326Y010149D01*
X018261Y010174D01*
X018195Y010196D01*
X018128Y010215D01*
X018060Y010229D01*
X017992Y010240D01*
X017923Y010247D01*
X017854Y010250D01*
X017784Y010249D01*
X017715Y010244D01*
X017646Y010236D01*
X017578Y010224D01*
X017510Y010208D01*
X017444Y010188D01*
X017378Y010164D01*
X017315Y010137D01*
X017252Y010107D01*
X017192Y010073D01*
X017133Y010036D01*
X017077Y009995D01*
X017023Y009952D01*
X016971Y009905D01*
X016922Y009856D01*
X016876Y009804D01*
X016833Y009750D01*
X021644Y011291D02*
X021644Y007709D01*
X023022Y007709D01*
X023022Y011291D01*
X021644Y011291D01*
X024144Y011291D02*
X024144Y007709D01*
X025522Y007709D01*
X025522Y011291D01*
X024144Y011291D01*
X026108Y009746D02*
X026183Y009746D01*
X026483Y009446D01*
X026558Y009446D01*
X026333Y009286D02*
X026183Y009286D01*
X026108Y009211D01*
X026108Y008985D01*
X026558Y008985D01*
X026408Y008985D02*
X026408Y009211D01*
X026333Y009286D01*
X026108Y009446D02*
X026108Y009746D01*
X026108Y008825D02*
X026108Y008675D01*
X026108Y008750D02*
X026483Y008750D01*
X026558Y008675D01*
X026558Y008600D01*
X026483Y008525D01*
X028138Y008645D02*
X028138Y008795D01*
X028138Y008720D02*
X028513Y008720D01*
X028588Y008645D01*
X028588Y008570D01*
X028513Y008495D01*
X028438Y008955D02*
X028438Y009181D01*
X028363Y009256D01*
X028213Y009256D01*
X028138Y009181D01*
X028138Y008955D01*
X028588Y008955D01*
X028513Y009416D02*
X028438Y009416D01*
X028363Y009491D01*
X028363Y009641D01*
X028438Y009716D01*
X028513Y009716D01*
X028588Y009641D01*
X028588Y009491D01*
X028513Y009416D01*
X028363Y009491D02*
X028288Y009416D01*
X028213Y009416D01*
X028138Y009491D01*
X028138Y009641D01*
X028213Y009716D01*
X028288Y009716D01*
X028363Y009641D01*
X014098Y023775D02*
X013648Y023775D01*
X014098Y023775D02*
X014098Y024075D01*
X014098Y024235D02*
X014098Y024536D01*
X014098Y024696D02*
X013648Y024696D01*
X013648Y024921D01*
X013723Y024996D01*
X014023Y024996D01*
X014098Y024921D01*
X014098Y024696D01*
X013873Y024386D02*
X013873Y024235D01*
X013648Y024235D02*
X014098Y024235D01*
X013648Y024235D02*
X013648Y024536D01*
X013873Y025156D02*
X013873Y025456D01*
X014098Y025381D02*
X013648Y025381D01*
X013873Y025156D01*
X013648Y027775D02*
X014098Y027775D01*
X014098Y028075D01*
X014098Y028235D02*
X014098Y028536D01*
X014098Y028696D02*
X013648Y028696D01*
X013648Y028921D01*
X013723Y028996D01*
X014023Y028996D01*
X014098Y028921D01*
X014098Y028696D01*
X013873Y028386D02*
X013873Y028235D01*
X013648Y028235D02*
X014098Y028235D01*
X013648Y028235D02*
X013648Y028536D01*
X013648Y029156D02*
X013873Y029156D01*
X013798Y029306D01*
X013798Y029381D01*
X013873Y029456D01*
X014023Y029456D01*
X014098Y029381D01*
X014098Y029231D01*
X014023Y029156D01*
X013648Y029156D02*
X013648Y029456D01*
D17*
X018323Y018099D02*
X018323Y017952D01*
X018323Y018025D02*
X018103Y018025D01*
X018177Y017952D01*
X018213Y017878D02*
X018213Y017804D01*
X018213Y017878D02*
X018287Y017878D01*
X018323Y017841D01*
X018323Y017768D01*
X018287Y017731D01*
X018140Y017731D01*
X018103Y017768D01*
X018103Y017841D01*
X018140Y017878D01*
X018140Y017657D02*
X018103Y017620D01*
X018103Y017547D01*
X018140Y017510D01*
X018177Y017510D01*
X018213Y017547D01*
X018213Y017620D01*
X018250Y017657D01*
X018287Y017657D01*
X018323Y017620D01*
X018323Y017547D01*
X018287Y017510D01*
D18*
X018291Y010730D02*
X018138Y010654D01*
X017985Y010500D01*
X018215Y010500D01*
X018291Y010423D01*
X018291Y010347D01*
X018215Y010270D01*
X018061Y010270D01*
X017985Y010347D01*
X017985Y010500D01*
X017831Y010347D02*
X017831Y010654D01*
X017754Y010730D01*
X017524Y010730D01*
X017524Y010270D01*
X017754Y010270D01*
X017831Y010347D01*
X017371Y010270D02*
X017064Y010270D01*
X017064Y010730D01*
X017371Y010730D01*
X017217Y010500D02*
X017064Y010500D01*
X016910Y010270D02*
X016603Y010270D01*
X016603Y010730D01*
X023353Y010103D02*
X023353Y009999D01*
X023405Y009948D01*
X023353Y009832D02*
X023663Y009832D01*
X023560Y009729D01*
X023663Y009625D01*
X023353Y009625D01*
X023405Y009510D02*
X023353Y009458D01*
X023353Y009355D01*
X023405Y009303D01*
X023456Y009303D01*
X023508Y009355D01*
X023508Y009458D01*
X023560Y009510D01*
X023612Y009510D01*
X023663Y009458D01*
X023663Y009355D01*
X023612Y009303D01*
X023663Y009948D02*
X023456Y010155D01*
X023405Y010155D01*
X023353Y010103D01*
X023663Y010155D02*
X023663Y009948D01*
X025853Y010051D02*
X025956Y009948D01*
X025853Y010051D02*
X026163Y010051D01*
X026163Y009948D02*
X026163Y010155D01*
X026163Y009832D02*
X025853Y009832D01*
X025853Y009625D02*
X026163Y009625D01*
X026060Y009729D01*
X026163Y009832D01*
X026112Y009510D02*
X026163Y009458D01*
X026163Y009355D01*
X026112Y009303D01*
X026008Y009355D02*
X025956Y009303D01*
X025905Y009303D01*
X025853Y009355D01*
X025853Y009458D01*
X025905Y009510D01*
X026008Y009458D02*
X026060Y009510D01*
X026112Y009510D01*
X026008Y009458D02*
X026008Y009355D01*
X021081Y024270D02*
X021081Y024580D01*
X020926Y024425D01*
X021132Y024425D01*
X020810Y024270D02*
X020655Y024425D01*
X020603Y024373D02*
X020810Y024580D01*
X020603Y024580D02*
X020603Y024270D01*
X018632Y027270D02*
X018426Y027270D01*
X018529Y027270D02*
X018529Y027580D01*
X018426Y027477D01*
X018310Y027580D02*
X018103Y027373D01*
X018155Y027425D02*
X018310Y027270D01*
X018103Y027270D02*
X018103Y027580D01*
X020603Y030270D02*
X020603Y030580D01*
X020655Y030425D02*
X020810Y030270D01*
X020926Y030270D02*
X021132Y030477D01*
X021132Y030529D01*
X021081Y030580D01*
X020977Y030580D01*
X020926Y030529D01*
X020810Y030580D02*
X020603Y030373D01*
X020926Y030270D02*
X021132Y030270D01*
X023103Y027580D02*
X023103Y027270D01*
X023103Y027373D02*
X023310Y027580D01*
X023426Y027529D02*
X023477Y027580D01*
X023581Y027580D01*
X023632Y027529D01*
X023632Y027477D01*
X023581Y027425D01*
X023632Y027373D01*
X023632Y027322D01*
X023581Y027270D01*
X023477Y027270D01*
X023426Y027322D01*
X023310Y027270D02*
X023155Y027425D01*
X023529Y027425D02*
X023581Y027425D01*
M02*
